<svg width="24" height="24" viewBox="0 0 24 24" fill="none" xmlns="http://www.w3.org/2000/svg">
<path d="M12 0.833984C13.3536 0.83402 14.6321 1.05889 15.8389 1.50684L16.3516 1.71289C17.717 2.30181 18.8986 3.09712 19.9004 4.09961C20.9024 5.10237 21.6985 6.28444 22.2891 7.64941C22.8018 8.83458 23.0906 10.0915 23.1533 11.4238L23.166 12C23.164 13.355 22.9389 14.6341 22.4922 15.8408L22.2881 16.3535C21.7016 17.7176 20.905 18.898 19.9004 19.9004C19.0207 20.7781 18.0063 21.4983 16.8535 22.0596L16.3516 22.29C14.9994 22.8753 13.5502 23.1685 12 23.167C10.6448 23.167 9.36585 22.9421 8.16016 22.4941L7.64746 22.2891C6.28362 21.7001 5.10208 20.9041 4.09863 19.9014C3.22061 19.024 2.50149 18.0096 1.94141 16.8555L1.71191 16.3525C1.20086 15.1668 0.911366 13.9092 0.84668 12.5762L0.833008 12C0.8324 10.6457 1.05742 9.36725 1.50586 8.16113L1.71094 7.64941C2.30069 6.28454 3.09764 5.10232 4.09961 4.09961C4.9761 3.22254 5.99012 2.50389 7.14453 1.94336L7.64746 1.71289C9.00331 1.1281 10.4529 0.833984 12 0.833984ZM12 2.16699C9.43562 2.16699 7.22313 3.00689 5.3877 4.68066L5.02539 5.02637C3.12133 6.93043 2.16602 9.26562 2.16602 12.001C2.16609 14.5654 3.00577 16.7779 4.67969 18.6133L5.02539 18.9746C6.92946 20.8787 9.26464 21.834 12 21.834C14.5643 21.8339 16.7769 20.995 18.6123 19.3213L18.9736 18.9746C20.8776 17.0706 21.8329 14.7362 21.833 12.001C21.833 9.43675 20.9939 7.22404 19.3203 5.38867L18.9736 5.02637C17.0697 3.12249 14.7351 2.16707 12 2.16699ZM11.9434 16.584C12.1882 16.5831 12.3839 16.6519 12.5518 16.793L12.6221 16.8584C12.7847 17.0224 12.8752 17.21 12.8955 17.4414L12.8994 17.543C12.8999 17.7859 12.8314 17.9824 12.6895 18.1523L12.624 18.2236C12.4378 18.4098 12.2205 18.501 11.9414 18.501C11.7007 18.501 11.5036 18.4318 11.3311 18.2891L11.2578 18.2227C11.0713 18.0381 10.9818 17.8227 10.9834 17.5449C10.9849 17.2979 11.0554 17.1007 11.1963 16.9316L11.2607 16.8604C11.4209 16.6998 11.6068 16.6097 11.8398 16.5889L11.9434 16.584ZM12.1162 5.50098C13.08 5.50172 13.9086 5.7834 14.623 6.34277C15.3132 6.88316 15.6416 7.55175 15.6416 8.38379V8.38477C15.6422 8.84941 15.5386 9.26749 15.333 9.64746L15.2383 9.80762C15.014 10.1605 14.7565 10.4939 14.4648 10.8076L14.1621 11.1143C13.8388 11.4184 13.5355 11.7375 13.252 12.0713C12.9653 12.4087 12.7666 12.7906 12.6582 13.2119L12.6172 13.3916C12.5785 13.5873 12.4954 13.7353 12.3701 13.8545C12.289 13.9316 12.1995 13.9798 12.0889 13.999L11.9707 14.0088H11.9688C11.8242 14.0091 11.7056 13.9643 11.5918 13.8613C11.4907 13.7697 11.4493 13.6753 11.4492 13.5469L11.4561 13.3701C11.4822 13.0213 11.5858 12.7035 11.7676 12.4102L11.8652 12.2656C12.103 11.9392 12.3689 11.6324 12.6641 11.3457L12.9697 11.0654L12.9717 11.0635C13.2362 10.8306 13.4805 10.585 13.7051 10.3271L13.9229 10.0654C14.2144 9.69778 14.3802 9.27759 14.417 8.81738L14.4248 8.61719C14.4256 8.00217 14.1803 7.47615 13.7129 7.07227C13.2598 6.68086 12.7195 6.48438 12.1162 6.48438C11.6899 6.48439 11.2802 6.57989 10.8926 6.76758C10.497 6.95918 10.1667 7.23632 9.90527 7.59277L10.3047 7.88574L9.9043 7.59277L9.90137 7.59766C9.80341 7.73479 9.70073 7.81565 9.5918 7.86035L9.48047 7.89355C9.31641 7.92631 9.15992 7.90229 8.98926 7.80664C8.92954 7.76597 8.88503 7.71611 8.85645 7.64062L8.83105 7.54883C8.81107 7.44128 8.81853 7.34343 8.85547 7.24609L8.90234 7.14844L8.90918 7.13672C9.20809 6.58994 9.63831 6.18753 10.2129 5.9209C10.7419 5.67545 11.2925 5.5374 11.8682 5.50684L12.1162 5.50098Z" fill="#D3D1D2" stroke="#D3D1D2"/>
</svg>
