<svg width="28" height="28" viewBox="0 0 28 28" fill="none" xmlns="http://www.w3.org/2000/svg">
<path d="M14.0029 2.83398C15.3566 2.83402 16.6351 3.05889 17.8418 3.50684L18.3545 3.71289C19.7199 4.30181 20.9016 5.09712 21.9033 6.09961C22.9053 7.10237 23.7015 8.28444 24.292 9.64941C24.8047 10.8346 25.0936 12.0915 25.1562 13.4238L25.1689 14C25.167 15.355 24.9418 16.6341 24.4951 17.8408L24.291 18.3535C23.7046 19.7176 22.9079 20.898 21.9033 21.9004C21.0237 22.7781 20.0092 23.4983 18.8564 24.0596L18.3545 24.29C17.0023 24.8753 15.5531 25.1685 14.0029 25.167C12.6477 25.167 11.3688 24.9421 10.1631 24.4941L9.65039 24.2891C8.28655 23.7001 7.10501 22.9041 6.10156 21.9014C5.22354 21.024 4.50442 20.0096 3.94434 18.8555L3.71484 18.3525C3.20379 17.1668 2.9143 15.9092 2.84961 14.5762L2.83594 14C2.83533 12.6457 3.06035 11.3672 3.50879 10.1611L3.71387 9.64941C4.30362 8.28454 5.10057 7.10232 6.10254 6.09961C6.97903 5.22254 7.99305 4.50389 9.14746 3.94336L9.65039 3.71289C11.0062 3.1281 12.4558 2.83398 14.0029 2.83398ZM13.9424 17.584C13.4724 17.5858 13.0515 17.7319 12.7012 18.0215L12.5557 18.1543C12.1798 18.5313 11.9895 19.0034 11.9863 19.5391C11.9836 20.0117 12.1299 20.4352 12.4229 20.7871L12.5576 20.9336C12.9371 21.309 13.4092 21.501 13.9443 21.501C14.4148 21.501 14.836 21.3537 15.1875 21.0635L15.334 20.9307C15.665 20.5996 15.8524 20.1958 15.8936 19.7402L15.9023 19.541C15.9014 19.0724 15.7557 18.6522 15.4678 18.3008L15.335 18.1543C15.0042 17.8208 14.5992 17.6322 14.1416 17.5918L13.9424 17.584ZM14.1191 6.50098C13.3076 6.501 12.5312 6.67203 11.7949 7.01367C11.1243 7.32489 10.5877 7.78574 10.1943 8.38965L10.0352 8.65625C9.86854 8.94696 9.79898 9.26272 9.83105 9.58984L9.85156 9.73242C9.92429 10.1226 10.1301 10.4456 10.4678 10.6602L10.4775 10.666L10.4883 10.6719C10.8128 10.8573 11.1627 10.9374 11.5244 10.8984L11.6797 10.874C12.1097 10.788 12.4559 10.5425 12.7139 10.1836C12.8801 9.95689 13.0844 9.78649 13.3311 9.66699C13.5858 9.54361 13.8471 9.48439 14.1191 9.48438C14.488 9.48438 14.7944 9.59833 15.0615 9.8291C15.2823 10.0199 15.3979 10.2361 15.4229 10.5L15.4277 10.6162V10.6172C15.4277 10.8943 15.3559 11.1353 15.21 11.3525L15.1426 11.4443C14.9605 11.674 14.7599 11.8945 14.54 12.1055L14.3135 12.3125C13.9582 12.6216 13.6343 12.9548 13.3418 13.3115L13.0596 13.6768C12.7071 14.1606 12.5079 14.7024 12.4629 15.291L12.4521 15.5459V15.5469C12.4523 15.9624 12.6162 16.3252 12.9238 16.6035C13.2187 16.8703 13.576 17.0087 13.9736 17.0078C14.3887 17.0078 14.7617 16.866 15.0625 16.5801C15.3108 16.344 15.479 16.0556 15.5684 15.7275L15.6016 15.585L15.6025 15.582C15.6639 15.2598 15.7998 14.974 16.0166 14.7188C16.2115 14.4893 16.4177 14.2675 16.6338 14.0527L16.8535 13.8398L16.8564 13.8369C17.213 13.4959 17.5329 13.1306 17.8154 12.7412L18.0859 12.3438C18.4601 11.7548 18.6453 11.0971 18.6445 10.3838L18.6387 10.1709C18.5828 9.11476 18.1083 8.23324 17.2432 7.55566C16.4008 6.89606 15.4266 6.54668 14.3389 6.50488L14.1201 6.50098H14.1191Z" fill="#0000FF" stroke="#0000FF"/>
</svg>
