<svg width="28" height="28" viewBox="0 0 28 28" fill="none" xmlns="http://www.w3.org/2000/svg">
<path d="M14 2.83398C14.1324 2.83403 14.2605 2.87392 14.3691 2.94629L14.4707 3.0293L24.9707 13.5293C25.3907 13.9493 25.0938 14.6668 24.5 14.667H22.833V22.167C22.833 22.8633 22.5908 23.5345 22.1533 24.0684L21.9541 24.2881C21.3915 24.8507 20.6287 25.167 19.833 25.167H19.166V17.5L19.1621 17.3096C19.1168 16.3584 18.7333 15.4518 18.0771 14.7559C17.3773 14.0136 16.4198 13.5668 15.4014 13.5068H15.3857L15.1807 13.501L15.1738 13.5H12.833C11.7722 13.5 10.755 13.9218 10.0049 14.6719C9.25483 15.4219 8.83311 16.4393 8.83301 17.5V25.167H8.16602C7.47001 25.1669 6.79934 24.9246 6.26562 24.4873L6.04492 24.2881C5.48247 23.7255 5.16602 22.9625 5.16602 22.167V14.667H3.5C2.94385 14.667 2.64731 14.0361 2.95801 13.6113L3.02832 13.5293L13.5283 3.0293C13.6533 2.90432 13.8232 2.83398 14 2.83398ZM15.166 16.834C15.2985 16.834 15.4275 16.8729 15.5361 16.9453L15.6377 17.0293C15.7626 17.1542 15.8329 17.3234 15.833 17.5V25.167H12.166V17.5L12.1777 17.3799C12.1924 17.3005 12.2209 17.2243 12.2627 17.1553L12.335 17.0576C12.4428 16.9364 12.591 16.8586 12.752 16.8389L12.8457 16.834H15.166Z" fill="#0000FF" stroke="#0000FF"/>
</svg>
