<svg width="28" height="28" viewBox="0 0 28 28" fill="none" xmlns="http://www.w3.org/2000/svg">
<path d="M5.83333 14H3.5L14 3.5L24.5 14H22.1667M5.83333 14V22.1667C5.83333 22.7855 6.07917 23.379 6.51675 23.8166C6.95434 24.2542 7.54783 24.5 8.16667 24.5H19.8333C20.4522 24.5 21.0457 24.2542 21.4832 23.8166C21.9208 23.379 22.1667 22.7855 22.1667 22.1667V14" stroke="#D3D1D2" stroke-width="2" stroke-linecap="round" stroke-linejoin="round"/>
<path d="M10.5 24.4993V17.4993C10.5 16.8805 10.7458 16.287 11.1834 15.8494C11.621 15.4118 12.2145 15.166 12.8333 15.166H15.1667C15.7855 15.166 16.379 15.4118 16.8166 15.8494C17.2542 16.287 17.5 16.8805 17.5 17.4993V24.4993" stroke="#D3D1D2" stroke-width="2" stroke-linecap="round" stroke-linejoin="round"/>
</svg>
