<svg width="28" height="28" viewBox="0 0 28 28" fill="none" xmlns="http://www.w3.org/2000/svg">
<path d="M5.25 22.7656H22.75C22.9494 22.7656 23.142 22.8346 23.2949 22.96L23.3574 23.0176C23.5186 23.1787 23.6094 23.3971 23.6094 23.625C23.6094 23.8529 23.5186 24.0713 23.3574 24.2324C23.1963 24.3936 22.9779 24.4844 22.75 24.4844H5.25C5.05056 24.4844 4.85801 24.4154 4.70508 24.29L4.64258 24.2324C4.48141 24.0713 4.39062 23.8529 4.39062 23.625C4.39062 23.4256 4.45965 23.233 4.58496 23.0801L4.64258 23.0176C4.80374 22.8564 5.02208 22.7656 5.25 22.7656ZM3.5 20.1406H24.5C24.7279 20.1406 24.9463 20.2314 25.1074 20.3926C25.2686 20.5537 25.3594 20.7721 25.3594 21C25.3594 21.2279 25.2686 21.4463 25.1074 21.6074C24.9463 21.7686 24.7279 21.8594 24.5 21.8594H3.5C3.30056 21.8594 3.10801 21.7904 2.95508 21.665L2.89258 21.6074C2.73141 21.4463 2.64062 21.2279 2.64062 21C2.64062 20.8006 2.70965 20.608 2.83496 20.4551L2.89258 20.3926C3.05374 20.2314 3.27208 20.1406 3.5 20.1406ZM1.75 14.8906C2.6161 14.8916 3.44895 15.2143 4.08789 15.793L4.21289 15.9121C4.86612 16.5653 5.23336 17.4512 5.23438 18.375V19.2344H2.625C2.22244 19.2344 1.83404 19.0948 1.52539 18.8418L1.39844 18.7266C1.07318 18.4013 0.890625 17.96 0.890625 17.5V14.8906H1.75Z" fill="#0000FF" stroke="#0000FF" stroke-width="0.03125"/>
<path d="M26.25 13.125H27.125V9.625H26.25C24.8581 9.62341 23.5237 9.06977 22.5394 8.08555C21.5552 7.10133 21.0016 5.7669 21 4.375V3.5H7V4.375C6.99841 5.7669 6.44477 7.10133 5.46055 8.08555C4.47633 9.06977 3.1419 9.62341 1.75 9.625H0.875V13.125H1.75C3.1419 13.1266 4.47633 13.6802 5.46055 14.6644C6.44477 15.6487 6.99841 16.9831 7 18.375V19.25H21V18.375C21.0016 16.9831 21.5552 15.6487 22.5394 14.6644C23.5237 13.6802 24.8581 13.1266 26.25 13.125ZM14 16.625C12.9616 16.625 11.9466 16.3171 11.0833 15.7402C10.2199 15.1633 9.54699 14.3434 9.14963 13.3841C8.75227 12.4248 8.64831 11.3692 8.85088 10.3508C9.05345 9.33238 9.55346 8.39692 10.2877 7.66269C11.0219 6.92846 11.9574 6.42845 12.9758 6.22588C13.9942 6.0233 15.0498 6.12727 16.0091 6.52463C16.9684 6.92199 17.7883 7.5949 18.3652 8.45826C18.9421 9.32161 19.25 10.3366 19.25 11.375C19.2484 12.7669 18.6948 14.1013 17.7106 15.0856C16.7263 16.0698 15.3919 16.6234 14 16.625Z" fill="#0000FF"/>
<path d="M14 14.875C15.933 14.875 17.5 13.308 17.5 11.375C17.5 9.442 15.933 7.875 14 7.875C12.067 7.875 10.5 9.442 10.5 11.375C10.5 13.308 12.067 14.875 14 14.875Z" fill="#0000FF"/>
<path d="M22.75 18.375V19.25H25.375C25.8391 19.25 26.2842 19.0656 26.6124 18.7374C26.9406 18.4092 27.125 17.9641 27.125 17.5V14.875H26.25C25.3221 14.876 24.4324 15.2451 23.7762 15.9012C23.1201 16.5574 22.751 17.4471 22.75 18.375ZM26.25 7.875H27.125V5.25C27.125 4.78587 26.9406 4.34075 26.6124 4.01256C26.2842 3.68437 25.8391 3.5 25.375 3.5H22.75V4.375C22.751 5.30295 23.1201 6.1926 23.7762 6.84875C24.4324 7.50491 25.3221 7.87399 26.25 7.875ZM5.25 4.375V3.5H2.625C2.16087 3.5 1.71575 3.68437 1.38756 4.01256C1.05937 4.34075 0.875 4.78587 0.875 5.25V7.875H1.75C2.67795 7.87399 3.5676 7.50491 4.22375 6.84875C4.87991 6.1926 5.24899 5.30295 5.25 4.375Z" fill="#0000FF"/>
</svg>
