<svg width="28" height="28" viewBox="0 0 28 28" fill="none" xmlns="http://www.w3.org/2000/svg">
<path d="M2.625 18.375L25.375 18.375C25.8582 18.375 26.25 17.9832 26.25 17.5V5.25C26.25 4.76675 25.8582 4.375 25.375 4.375L2.625 4.375C2.14175 4.375 1.75 4.76675 1.75 5.25V17.5C1.75 17.9832 2.14175 18.375 2.625 18.375Z" stroke="#D3D1D2" stroke-linejoin="round"/>
<path d="M3.5 21H24.5M5.25 23.625H22.75" stroke="#D3D1D2" stroke-linecap="round" stroke-linejoin="round"/>
<path d="M14 15.75C16.4162 15.75 18.375 13.7912 18.375 11.375C18.375 8.95875 16.4162 7 14 7C11.5838 7 9.625 8.95875 9.625 11.375C9.625 13.7912 11.5838 15.75 14 15.75Z" stroke="white" stroke-linecap="round" stroke-linejoin="round"/>
<path d="M26.25 8.75C25.0897 8.75 23.9769 8.28906 23.1564 7.46859C22.3359 6.64812 21.875 5.53532 21.875 4.375M1.75 8.75C2.32453 8.75 2.89344 8.63684 3.42424 8.41697C3.95504 8.19711 4.43734 7.87485 4.84359 7.46859C5.24985 7.06234 5.57211 6.58004 5.79197 6.04924C6.01184 5.51844 6.125 4.94953 6.125 4.375M26.25 14C25.0897 14 23.9769 14.4609 23.1564 15.2814C22.3359 16.1019 21.875 17.2147 21.875 18.375M1.75 14C2.32453 14 2.89344 14.1132 3.42424 14.333C3.95504 14.5529 4.43734 14.8752 4.84359 15.2814C5.24985 15.6877 5.57211 16.17 5.79197 16.7008C6.01184 17.2316 6.125 17.8005 6.125 18.375" stroke="white" stroke-linecap="round" stroke-linejoin="round"/>
</svg>
