<svg width="28" height="28" viewBox="0 0 28 28" fill="none" xmlns="http://www.w3.org/2000/svg">
<path d="M14.001 15.666C15.4965 15.666 17.7669 16.0428 19.6504 16.7959C20.5915 17.1722 21.4047 17.6299 21.9746 18.1562C22.541 18.6795 22.835 19.2374 22.835 19.833V22.833H5.16797V19.833C5.16797 19.2374 5.46098 18.6795 6.02734 18.1562C6.59729 17.6298 7.41122 17.1723 8.35254 16.7959C10.2358 16.0429 12.5056 15.6661 14.001 15.666ZM14.001 16.8828C12.1945 16.8829 10.3541 17.3251 8.96387 17.8613C8.26881 18.1294 7.66782 18.4274 7.23145 18.7188C7.01489 18.8633 6.82239 19.0177 6.67773 19.1777C6.54753 19.3219 6.38477 19.5492 6.38477 19.833V21.6162H21.6182V19.833C21.6182 19.5492 21.4554 19.3219 21.3252 19.1777C21.1805 19.0176 20.9872 18.8634 20.7705 18.7188C20.3342 18.4275 19.7339 18.1293 19.0391 17.8613C17.6487 17.3251 15.8076 16.8828 14.001 16.8828ZM14.001 5.16602C15.037 5.16602 16.0335 5.552 16.7979 6.24414L16.9473 6.38672C17.7287 7.16812 18.168 8.22794 18.168 9.33301C18.1679 10.3689 17.7818 11.3647 17.0898 12.1289L16.9473 12.2793C16.1659 13.0605 15.1059 13.499 14.001 13.499C12.9653 13.4989 11.9693 13.1137 11.2051 12.4219L11.0547 12.2793C10.2734 11.498 9.83505 10.438 9.83496 9.33301C9.83496 8.29711 10.2202 7.30044 10.9121 6.53613L11.0547 6.38672C11.836 5.60539 12.896 5.1661 14.001 5.16602ZM14.001 6.49902C13.3438 6.4991 12.7101 6.72781 12.2061 7.14062L11.998 7.3291C11.4667 7.86045 11.168 8.58156 11.168 9.33301C11.1681 10.0843 11.4668 10.8047 11.998 11.3359C12.5293 11.8672 13.2496 12.1659 14.001 12.166C14.7524 12.166 15.4735 11.8673 16.0049 11.3359C16.5361 10.8047 16.8349 10.0843 16.835 9.33301C16.835 8.67559 16.6063 8.04125 16.1934 7.53711L16.0049 7.3291C15.4735 6.79775 14.7524 6.49902 14.001 6.49902Z" fill="black" stroke="#D3D1D2"/>
</svg>
