<svg width="28" height="28" viewBox="0 0 28 28" fill="none" xmlns="http://www.w3.org/2000/svg">
<path d="M14.001 16.833C16.5185 16.833 18.7723 17.3437 20.3779 18.1465C22.0132 18.9641 22.8348 20.0013 22.835 20.999V22.833H5.16797V20.999C5.16815 20.0013 5.98906 18.9641 7.62402 18.1465C9.2296 17.3437 11.4835 16.8331 14.001 16.833ZM14.001 5.16602C15.037 5.16602 16.0335 5.552 16.7979 6.24414L16.9473 6.38672C17.7287 7.16812 18.168 8.22794 18.168 9.33301C18.1679 10.3689 17.7818 11.3647 17.0898 12.1289L16.9473 12.2793C16.1659 13.0605 15.1059 13.499 14.001 13.499C12.9653 13.4989 11.9693 13.1137 11.2051 12.4219L11.0547 12.2793C10.2734 11.498 9.83505 10.438 9.83496 9.33301C9.83496 8.29711 10.2202 7.30044 10.9121 6.53613L11.0547 6.38672C11.836 5.60539 12.896 5.1661 14.001 5.16602Z" fill="#0000FF" stroke="#0000FF"/>
</svg>
