<svg width="26" height="23" viewBox="0 0 26 23" fill="none" xmlns="http://www.w3.org/2000/svg">
<mask id="path-1-inside-1_801_3521" fill="white">
<path d="M5.06001 5.81459C5.09732 5.73056 5.15082 5.65471 5.21745 5.59136C5.28408 5.52801 5.36254 5.47841 5.44835 5.44539C5.53415 5.41237 5.62562 5.39657 5.71753 5.3989C5.80944 5.40124 5.89999 5.42165 5.984 5.45898L11.9998 8.13299L18.0156 5.45898C18.1853 5.38361 18.378 5.37873 18.5513 5.44542C18.7245 5.51211 18.8642 5.6449 18.9396 5.81459C19.015 5.98427 19.0199 6.17695 18.9532 6.35023C18.8865 6.52352 18.7537 6.66321 18.584 6.73859L12.6998 9.35379V15.9002C12.6998 16.0858 12.6261 16.2639 12.4948 16.3952C12.3635 16.5264 12.1855 16.6002 11.9998 16.6002C11.8142 16.6002 11.6361 16.5264 11.5048 16.3952C11.3736 16.2639 11.2998 16.0858 11.2998 15.9002V9.35379L5.41561 6.73859C5.33158 6.70127 5.25573 6.64777 5.19238 6.58114C5.12903 6.51451 5.07943 6.43605 5.04641 6.35024C5.01339 6.26444 4.99759 6.17297 4.99992 6.08106C5.00226 5.98915 5.02267 5.8986 5.06001 5.81459ZM10.1798 0.473585C11.3481 0.0062007 12.6515 0.0062007 13.8198 0.473585L21.8796 3.69779C22.6776 4.01559 23.1998 4.78839 23.1998 5.64659V13.8492C22.968 13.8157 22.734 13.7988 22.4998 13.7988H21.7998V5.64659C21.7998 5.50679 21.7579 5.37021 21.6795 5.25443C21.6012 5.13865 21.49 5.04899 21.3602 4.99698L13.3004 1.77419C12.4659 1.44039 11.5351 1.44039 10.7006 1.77419L2.6394 4.99698C2.50964 5.04899 2.39842 5.13865 2.32007 5.25443C2.24173 5.37021 2.19984 5.50679 2.1998 5.64659V16.351C2.19956 16.491 2.24132 16.6279 2.31968 16.744C2.39805 16.86 2.50942 16.9499 2.6394 17.002L10.7006 20.2262C11.2158 20.4317 11.7724 20.5118 12.3246 20.46C12.5066 20.9318 12.76 21.37 13.0708 21.7578C12.1058 21.9738 11.0979 21.8928 10.1798 21.5254L2.12 18.3012C1.73023 18.1453 1.39613 17.8762 1.1608 17.5286C0.925476 17.1809 0.799735 16.7708 0.799805 16.351V5.64659C0.800014 5.22704 0.925886 4.81717 1.16119 4.46983C1.3965 4.12248 1.73046 3.85358 2.12 3.69779L10.1798 0.473585ZM16.8998 15.1988C15.9715 15.1988 15.0813 15.5675 14.4249 16.2239C13.7686 16.8803 13.3998 17.7705 13.3998 18.6988C13.3998 19.627 13.7686 20.5173 14.4249 21.1737C15.0813 21.83 15.9715 22.1988 16.8998 22.1988H17.5998C17.7855 22.1988 17.9635 22.125 18.0948 21.9938C18.2261 21.8625 18.2998 21.6844 18.2998 21.4988C18.2998 21.3131 18.2261 21.1351 18.0948 21.0038C17.9635 20.8725 17.7855 20.7988 17.5998 20.7988H16.8998C16.3429 20.7988 15.8087 20.5775 15.4149 20.1837C15.0211 19.7899 14.7998 19.2557 14.7998 18.6988C14.7998 18.1418 15.0211 17.6077 15.4149 17.2139C15.8087 16.82 16.3429 16.5988 16.8998 16.5988H17.5998C17.7855 16.5988 17.9635 16.525 18.0948 16.3938C18.2261 16.2625 18.2998 16.0844 18.2998 15.8988C18.2998 15.7131 18.2261 15.5351 18.0948 15.4038C17.9635 15.2725 17.7855 15.1988 17.5998 15.1988H16.8998ZM21.7998 15.1988C21.6142 15.1988 21.4361 15.2725 21.3048 15.4038C21.1736 15.5351 21.0998 15.7131 21.0998 15.8988C21.0998 16.0844 21.1736 16.2625 21.3048 16.3938C21.4361 16.525 21.6142 16.5988 21.7998 16.5988H22.4998C23.0568 16.5988 23.5909 16.82 23.9847 17.2139C24.3786 17.6077 24.5998 18.1418 24.5998 18.6988C24.5998 19.2557 24.3786 19.7899 23.9847 20.1837C23.5909 20.5775 23.0568 20.7988 22.4998 20.7988H21.7998C21.6142 20.7988 21.4361 20.8725 21.3048 21.0038C21.1736 21.1351 21.0998 21.3131 21.0998 21.4988C21.0998 21.6844 21.1736 21.8625 21.3048 21.9938C21.4361 22.125 21.6142 22.1988 21.7998 22.1988H22.4998C23.4281 22.1988 24.3183 21.83 24.9747 21.1737C25.6311 20.5173 25.9998 19.627 25.9998 18.6988C25.9998 17.7705 25.6311 16.8803 24.9747 16.2239C24.3183 15.5675 23.4281 15.1988 22.4998 15.1988H21.7998ZM16.8998 17.9988C16.7142 17.9988 16.5361 18.0725 16.4048 18.2038C16.2736 18.3351 16.1998 18.5131 16.1998 18.6988C16.1998 18.8844 16.2736 19.0625 16.4048 19.1938C16.5361 19.325 16.7142 19.3988 16.8998 19.3988H22.4998C22.6855 19.3988 22.8635 19.325 22.9948 19.1938C23.1261 19.0625 23.1998 18.8844 23.1998 18.6988C23.1998 18.5131 23.1261 18.3351 22.9948 18.2038C22.8635 18.0725 22.6855 17.9988 22.4998 17.9988H16.8998Z"/>
</mask>
<path d="M5.06001 5.81459C5.09732 5.73056 5.15082 5.65471 5.21745 5.59136C5.28408 5.52801 5.36254 5.47841 5.44835 5.44539C5.53415 5.41237 5.62562 5.39657 5.71753 5.3989C5.80944 5.40124 5.89999 5.42165 5.984 5.45898L11.9998 8.13299L18.0156 5.45898C18.1853 5.38361 18.378 5.37873 18.5513 5.44542C18.7245 5.51211 18.8642 5.6449 18.9396 5.81459C19.015 5.98427 19.0199 6.17695 18.9532 6.35023C18.8865 6.52352 18.7537 6.66321 18.584 6.73859L12.6998 9.35379V15.9002C12.6998 16.0858 12.6261 16.2639 12.4948 16.3952C12.3635 16.5264 12.1855 16.6002 11.9998 16.6002C11.8142 16.6002 11.6361 16.5264 11.5048 16.3952C11.3736 16.2639 11.2998 16.0858 11.2998 15.9002V9.35379L5.41561 6.73859C5.33158 6.70127 5.25573 6.64777 5.19238 6.58114C5.12903 6.51451 5.07943 6.43605 5.04641 6.35024C5.01339 6.26444 4.99759 6.17297 4.99992 6.08106C5.00226 5.98915 5.02267 5.8986 5.06001 5.81459ZM10.1798 0.473585C11.3481 0.0062007 12.6515 0.0062007 13.8198 0.473585L21.8796 3.69779C22.6776 4.01559 23.1998 4.78839 23.1998 5.64659V13.8492C22.968 13.8157 22.734 13.7988 22.4998 13.7988H21.7998V5.64659C21.7998 5.50679 21.7579 5.37021 21.6795 5.25443C21.6012 5.13865 21.49 5.04899 21.3602 4.99698L13.3004 1.77419C12.4659 1.44039 11.5351 1.44039 10.7006 1.77419L2.6394 4.99698C2.50964 5.04899 2.39842 5.13865 2.32007 5.25443C2.24173 5.37021 2.19984 5.50679 2.1998 5.64659V16.351C2.19956 16.491 2.24132 16.6279 2.31968 16.744C2.39805 16.86 2.50942 16.9499 2.6394 17.002L10.7006 20.2262C11.2158 20.4317 11.7724 20.5118 12.3246 20.46C12.5066 20.9318 12.76 21.37 13.0708 21.7578C12.1058 21.9738 11.0979 21.8928 10.1798 21.5254L2.12 18.3012C1.73023 18.1453 1.39613 17.8762 1.1608 17.5286C0.925476 17.1809 0.799735 16.7708 0.799805 16.351V5.64659C0.800014 5.22704 0.925886 4.81717 1.16119 4.46983C1.3965 4.12248 1.73046 3.85358 2.12 3.69779L10.1798 0.473585ZM16.8998 15.1988C15.9715 15.1988 15.0813 15.5675 14.4249 16.2239C13.7686 16.8803 13.3998 17.7705 13.3998 18.6988C13.3998 19.627 13.7686 20.5173 14.4249 21.1737C15.0813 21.83 15.9715 22.1988 16.8998 22.1988H17.5998C17.7855 22.1988 17.9635 22.125 18.0948 21.9938C18.2261 21.8625 18.2998 21.6844 18.2998 21.4988C18.2998 21.3131 18.2261 21.1351 18.0948 21.0038C17.9635 20.8725 17.7855 20.7988 17.5998 20.7988H16.8998C16.3429 20.7988 15.8087 20.5775 15.4149 20.1837C15.0211 19.7899 14.7998 19.2557 14.7998 18.6988C14.7998 18.1418 15.0211 17.6077 15.4149 17.2139C15.8087 16.82 16.3429 16.5988 16.8998 16.5988H17.5998C17.7855 16.5988 17.9635 16.525 18.0948 16.3938C18.2261 16.2625 18.2998 16.0844 18.2998 15.8988C18.2998 15.7131 18.2261 15.5351 18.0948 15.4038C17.9635 15.2725 17.7855 15.1988 17.5998 15.1988H16.8998ZM21.7998 15.1988C21.6142 15.1988 21.4361 15.2725 21.3048 15.4038C21.1736 15.5351 21.0998 15.7131 21.0998 15.8988C21.0998 16.0844 21.1736 16.2625 21.3048 16.3938C21.4361 16.525 21.6142 16.5988 21.7998 16.5988H22.4998C23.0568 16.5988 23.5909 16.82 23.9847 17.2139C24.3786 17.6077 24.5998 18.1418 24.5998 18.6988C24.5998 19.2557 24.3786 19.7899 23.9847 20.1837C23.5909 20.5775 23.0568 20.7988 22.4998 20.7988H21.7998C21.6142 20.7988 21.4361 20.8725 21.3048 21.0038C21.1736 21.1351 21.0998 21.3131 21.0998 21.4988C21.0998 21.6844 21.1736 21.8625 21.3048 21.9938C21.4361 22.125 21.6142 22.1988 21.7998 22.1988H22.4998C23.4281 22.1988 24.3183 21.83 24.9747 21.1737C25.6311 20.5173 25.9998 19.627 25.9998 18.6988C25.9998 17.7705 25.6311 16.8803 24.9747 16.2239C24.3183 15.5675 23.4281 15.1988 22.4998 15.1988H21.7998ZM16.8998 17.9988C16.7142 17.9988 16.5361 18.0725 16.4048 18.2038C16.2736 18.3351 16.1998 18.5131 16.1998 18.6988C16.1998 18.8844 16.2736 19.0625 16.4048 19.1938C16.5361 19.325 16.7142 19.3988 16.8998 19.3988H22.4998C22.6855 19.3988 22.8635 19.325 22.9948 19.1938C23.1261 19.0625 23.1998 18.8844 23.1998 18.6988C23.1998 18.5131 23.1261 18.3351 22.9948 18.2038C22.8635 18.0725 22.6855 17.9988 22.4998 17.9988H16.8998Z" fill="black" stroke="#D3D1D2" stroke-width="2" mask="url(#path-1-inside-1_801_3521)"/>
</svg>
