<svg width="26" height="23" viewBox="0 0 26 23" fill="none" xmlns="http://www.w3.org/2000/svg">
<path d="M16.8994 15.6992H17.5996C17.6395 15.6992 17.6783 15.7116 17.7109 15.7334L17.7412 15.7578C17.7787 15.7953 17.7997 15.8464 17.7998 15.8994C17.7998 15.9392 17.7883 15.9781 17.7666 16.0107L17.7412 16.041C17.7037 16.0785 17.6527 16.0996 17.5996 16.0996H16.8994C16.2962 16.0997 15.7145 16.3094 15.252 16.6885L15.0615 16.8613C14.574 17.3488 14.2999 18.0098 14.2998 18.6992C14.2998 19.3027 14.5095 19.885 14.8887 20.3477L15.0615 20.5381C15.549 21.0255 16.21 21.2997 16.8994 21.2998H17.5996C17.6527 21.2998 17.7037 21.3209 17.7412 21.3584C17.7787 21.3959 17.7998 21.447 17.7998 21.5C17.7997 21.5395 17.7881 21.5779 17.7666 21.6104L17.7412 21.6406C17.7037 21.6781 17.6527 21.6992 17.5996 21.6992H16.8994C16.2033 21.6991 15.5318 21.4579 14.998 21.0205L14.7783 20.8213C14.2157 20.2587 13.8994 19.4949 13.8994 18.6992C13.8995 18.0033 14.142 17.3325 14.5791 16.7988L14.7783 16.5781C15.3408 16.0156 16.1039 15.6993 16.8994 15.6992ZM21.7998 15.6992H22.5C23.1962 15.6993 23.8676 15.9415 24.4014 16.3789L24.6211 16.5781C25.1836 17.1406 25.4999 17.9037 25.5 18.6992C25.5 19.3954 25.2576 20.0668 24.8203 20.6006L24.6211 20.8213C24.0585 21.3837 23.2955 21.6992 22.5 21.6992H21.7998C21.7468 21.6992 21.6957 21.6781 21.6582 21.6406C21.621 21.6032 21.5997 21.5528 21.5996 21.5C21.5996 21.4601 21.612 21.4213 21.6338 21.3887L21.6582 21.3584C21.6957 21.3209 21.7468 21.2998 21.7998 21.2998H22.5C23.1894 21.2998 23.8504 21.0255 24.3379 20.5381C24.8255 20.0505 25.0996 19.3888 25.0996 18.6992C25.0995 18.0098 24.8254 17.3488 24.3379 16.8613C23.8504 16.3738 23.1894 16.0997 22.5 16.0996H21.7998C21.7468 16.0996 21.6957 16.0785 21.6582 16.041C21.6208 16.0035 21.5996 15.9524 21.5996 15.8994C21.5997 15.8597 21.6121 15.8216 21.6338 15.7891L21.6582 15.7578C21.6957 15.7204 21.7468 15.6992 21.7998 15.6992ZM10.3652 0.935547C11.3487 0.542132 12.4388 0.518156 13.4355 0.862305L13.6338 0.935547L21.6934 4.16113L21.6943 4.16211C22.3015 4.40392 22.7002 4.99236 22.7002 5.64648V13.3047C22.6335 13.3022 22.5668 13.2979 22.5 13.2979H16.8994C16.0097 13.2977 15.1359 13.5181 14.3545 13.9355L14.0254 14.126C13.7285 14.3125 13.4533 14.5285 13.2002 14.7666V9.67773L18.7871 7.19531C18.9311 7.13134 19.0613 7.03903 19.1699 6.9248C19.2513 6.83913 19.3192 6.74194 19.3721 6.63672L19.4199 6.5293C19.4624 6.41893 19.4885 6.30307 19.4971 6.18555L19.499 6.06738C19.496 5.94932 19.4765 5.83241 19.4395 5.7207L19.3965 5.61133C19.3485 5.50324 19.2851 5.40265 19.208 5.31348L19.127 5.22852C19.0414 5.14717 18.944 5.07923 18.8389 5.02637L18.7305 4.97852C18.6204 4.93616 18.5049 4.90998 18.3877 4.90137L18.2695 4.89844C18.1514 4.90143 18.0346 4.92201 17.9229 4.95898L17.8125 5.00195L11.999 7.58496L6.18652 5.00293C5.89574 4.87388 5.56547 4.86522 5.26855 4.97949C5.00855 5.07959 4.79267 5.26667 4.65625 5.50684L4.60352 5.6123C4.47434 5.9031 4.46586 6.23329 4.58008 6.53027C4.68007 6.7901 4.86657 7.00612 5.10645 7.14258L5.21289 7.19629L10.7998 9.67773V15.8994C10.7998 16.1778 10.8964 16.4466 11.0713 16.6602L11.1514 16.748C11.3163 16.913 11.5244 17.0242 11.749 17.0723C11.5221 17.791 11.4477 18.5521 11.5332 19.3066C11.6158 20.0354 11.8471 20.7358 12.207 21.3682C11.6909 21.3924 11.1736 21.3278 10.6787 21.1719L10.3652 21.0605L2.30566 17.8359C2.04577 17.732 1.8184 17.5621 1.64551 17.3438L1.5752 17.248C1.39591 16.9832 1.29977 16.6704 1.2998 16.3506V5.64648L1.30469 5.52637C1.32266 5.28881 1.39326 5.05826 1.51172 4.85156L1.5752 4.75C1.73205 4.51847 1.94635 4.33231 2.19629 4.20996L2.30566 4.16113L10.3652 0.935547ZM16.8994 18.5H22.5C22.553 18.5001 22.6041 18.5211 22.6416 18.5586C22.6788 18.596 22.7001 18.6465 22.7002 18.6992C22.7002 18.7521 22.6789 18.8033 22.6416 18.8408C22.6041 18.8783 22.553 18.8994 22.5 18.8994H16.8994C16.8599 18.8993 16.8215 18.8878 16.7891 18.8662L16.7588 18.8408C16.7213 18.8033 16.7002 18.7523 16.7002 18.6992C16.7003 18.6596 16.7118 18.6213 16.7334 18.5889L16.7588 18.5586C16.7962 18.5212 16.8465 18.5001 16.8994 18.5Z" fill="#0000FF" stroke="#0000FF"/>
</svg>
