<svg width="28" height="28" viewBox="0 0 28 28" fill="none" xmlns="http://www.w3.org/2000/svg">
<mask id="path-1-inside-1_1709_1317" fill="white">
<path fill-rule="evenodd" clip-rule="evenodd" d="M14.0245 3.5C11.3896 3.5 8.98914 4.37033 7.56872 5.08142C7.44039 5.14558 7.32061 5.20819 7.20939 5.26925C6.98889 5.38942 6.80105 5.50142 6.65172 5.6L8.26755 7.97883L9.02822 8.28158C12.0009 9.78133 15.9874 9.78133 18.9606 8.28158L19.824 7.83358L21.3517 5.6C21.0349 5.39415 20.7059 5.20772 20.3665 5.04175C18.9531 4.33825 16.6098 3.5 14.0251 3.5M10.2672 6.19267C9.69517 6.08501 9.13007 5.9432 8.57497 5.768C9.90555 5.17708 11.8883 4.55 14.0251 4.55C15.505 4.55 16.9044 4.851 18.0617 5.2325C16.7055 5.42325 15.2582 5.747 13.8792 6.14542C12.7942 6.45925 11.5261 6.42542 10.2672 6.19267ZM19.5772 9.14667L19.4337 9.219C16.1636 10.8687 11.8259 10.8687 8.55572 9.219L8.4198 9.15017C3.50639 14.5407 -0.244448 24.4983 14.0245 24.4983C28.2934 24.4983 24.4516 14.3558 19.5772 9.14667ZM13.4184 14C13.109 14 12.8122 14.1229 12.5934 14.3417C12.3746 14.5605 12.2517 14.8572 12.2517 15.1667C12.2517 15.4761 12.3746 15.7728 12.5934 15.9916C12.8122 16.2104 13.109 16.3333 13.4184 16.3333V14ZM14.5851 12.8333V12.25H13.4184V12.8333C12.7995 12.8333 12.2061 13.0792 11.7685 13.5168C11.3309 13.9543 11.0851 14.5478 11.0851 15.1667C11.0851 15.7855 11.3309 16.379 11.7685 16.8166C12.2061 17.2542 12.7995 17.5 13.4184 17.5V19.8333C12.9109 19.8333 12.4786 19.5096 12.3176 19.0557C12.2937 18.9815 12.2552 18.9128 12.2043 18.8537C12.1534 18.7946 12.0912 18.7463 12.0213 18.7117C11.9514 18.6771 11.8753 18.6568 11.7974 18.6521C11.7196 18.6474 11.6415 18.6584 11.568 18.6844C11.4945 18.7104 11.4269 18.7508 11.3692 18.8034C11.3116 18.856 11.2651 18.9195 11.2325 18.9904C11.1999 19.0612 11.1818 19.1379 11.1793 19.2159C11.1768 19.2938 11.19 19.3715 11.2181 19.4442C11.3789 19.8993 11.6769 20.2932 12.0709 20.5719C12.465 20.8505 12.9358 21.0001 13.4184 21V21.5833H14.5851V21C15.2039 21 15.7974 20.7542 16.235 20.3166C16.6726 19.879 16.9184 19.2855 16.9184 18.6667C16.9184 18.0478 16.6726 17.4543 16.235 17.0168C15.7974 16.5792 15.2039 16.3333 14.5851 16.3333V14C15.0926 14 15.5248 14.3237 15.6858 14.7776C15.7097 14.8518 15.7482 14.9205 15.7991 14.9796C15.85 15.0387 15.9123 15.087 15.9822 15.1216C16.052 15.1563 16.1282 15.1765 16.206 15.1812C16.2839 15.1859 16.3619 15.1749 16.4354 15.1489C16.509 15.123 16.5766 15.0825 16.6342 15.0299C16.6918 14.9774 16.7383 14.9138 16.771 14.843C16.8036 14.7721 16.8217 14.6954 16.8241 14.6175C16.8266 14.5395 16.8134 14.4619 16.7854 14.3891C16.6246 13.9341 16.3266 13.5401 15.9325 13.2615C15.5384 12.9828 15.0677 12.8333 14.5851 12.8333ZM14.5851 17.5V19.8333C14.8945 19.8333 15.1912 19.7104 15.41 19.4916C15.6288 19.2728 15.7517 18.9761 15.7517 18.6667C15.7517 18.3572 15.6288 18.0605 15.41 17.8417C15.1912 17.6229 14.8945 17.5 14.5851 17.5Z"/>
</mask>
<path fill-rule="evenodd" clip-rule="evenodd" d="M14.0245 3.5C11.3896 3.5 8.98914 4.37033 7.56872 5.08142C7.44039 5.14558 7.32061 5.20819 7.20939 5.26925C6.98889 5.38942 6.80105 5.50142 6.65172 5.6L8.26755 7.97883L9.02822 8.28158C12.0009 9.78133 15.9874 9.78133 18.9606 8.28158L19.824 7.83358L21.3517 5.6C21.0349 5.39415 20.7059 5.20772 20.3665 5.04175C18.9531 4.33825 16.6098 3.5 14.0251 3.5M10.2672 6.19267C9.69517 6.08501 9.13007 5.9432 8.57497 5.768C9.90555 5.17708 11.8883 4.55 14.0251 4.55C15.505 4.55 16.9044 4.851 18.0617 5.2325C16.7055 5.42325 15.2582 5.747 13.8792 6.14542C12.7942 6.45925 11.5261 6.42542 10.2672 6.19267ZM19.5772 9.14667L19.4337 9.219C16.1636 10.8687 11.8259 10.8687 8.55572 9.219L8.4198 9.15017C3.50639 14.5407 -0.244448 24.4983 14.0245 24.4983C28.2934 24.4983 24.4516 14.3558 19.5772 9.14667ZM13.4184 14C13.109 14 12.8122 14.1229 12.5934 14.3417C12.3746 14.5605 12.2517 14.8572 12.2517 15.1667C12.2517 15.4761 12.3746 15.7728 12.5934 15.9916C12.8122 16.2104 13.109 16.3333 13.4184 16.3333V14ZM14.5851 12.8333V12.25H13.4184V12.8333C12.7995 12.8333 12.2061 13.0792 11.7685 13.5168C11.3309 13.9543 11.0851 14.5478 11.0851 15.1667C11.0851 15.7855 11.3309 16.379 11.7685 16.8166C12.2061 17.2542 12.7995 17.5 13.4184 17.5V19.8333C12.9109 19.8333 12.4786 19.5096 12.3176 19.0557C12.2937 18.9815 12.2552 18.9128 12.2043 18.8537C12.1534 18.7946 12.0912 18.7463 12.0213 18.7117C11.9514 18.6771 11.8753 18.6568 11.7974 18.6521C11.7196 18.6474 11.6415 18.6584 11.568 18.6844C11.4945 18.7104 11.4269 18.7508 11.3692 18.8034C11.3116 18.856 11.2651 18.9195 11.2325 18.9904C11.1999 19.0612 11.1818 19.1379 11.1793 19.2159C11.1768 19.2938 11.19 19.3715 11.2181 19.4442C11.3789 19.8993 11.6769 20.2932 12.0709 20.5719C12.465 20.8505 12.9358 21.0001 13.4184 21V21.5833H14.5851V21C15.2039 21 15.7974 20.7542 16.235 20.3166C16.6726 19.879 16.9184 19.2855 16.9184 18.6667C16.9184 18.0478 16.6726 17.4543 16.235 17.0168C15.7974 16.5792 15.2039 16.3333 14.5851 16.3333V14C15.0926 14 15.5248 14.3237 15.6858 14.7776C15.7097 14.8518 15.7482 14.9205 15.7991 14.9796C15.85 15.0387 15.9123 15.087 15.9822 15.1216C16.052 15.1563 16.1282 15.1765 16.206 15.1812C16.2839 15.1859 16.3619 15.1749 16.4354 15.1489C16.509 15.123 16.5766 15.0825 16.6342 15.0299C16.6918 14.9774 16.7383 14.9138 16.771 14.843C16.8036 14.7721 16.8217 14.6954 16.8241 14.6175C16.8266 14.5395 16.8134 14.4619 16.7854 14.3891C16.6246 13.9341 16.3266 13.5401 15.9325 13.2615C15.5384 12.9828 15.0677 12.8333 14.5851 12.8333ZM14.5851 17.5V19.8333C14.8945 19.8333 15.1912 19.7104 15.41 19.4916C15.6288 19.2728 15.7517 18.9761 15.7517 18.6667C15.7517 18.3572 15.6288 18.0605 15.41 17.8417C15.1912 17.6229 14.8945 17.5 14.5851 17.5Z" fill="#0000FF"/>
<path d="M7.56872 5.08142L7.79233 5.52863L7.79255 5.52852L7.56872 5.08142ZM7.20939 5.26925L7.44865 5.70829L7.44999 5.70755L7.20939 5.26925ZM6.65172 5.6L6.37625 5.18273L5.95344 5.46185L6.23811 5.88094L6.65172 5.6ZM8.26755 7.97883L7.85395 8.25978L7.94014 8.38667L8.08266 8.44339L8.26755 7.97883ZM9.02822 8.28158L9.25344 7.83518L9.23368 7.82521L9.21312 7.81703L9.02822 8.28158ZM18.9606 8.28158L19.1858 8.72803L19.1909 8.72539L18.9606 8.28158ZM19.824 7.83358L20.0543 8.27739L20.1658 8.21954L20.2367 8.11586L19.824 7.83358ZM21.3517 5.6L21.7644 5.88228L22.0535 5.45969L21.6241 5.18073L21.3517 5.6ZM20.3665 5.04175L20.1437 5.48938L20.1468 5.49092L20.3665 5.04175ZM10.2672 6.19267L10.1747 6.68404L10.1763 6.68433L10.2672 6.19267ZM8.57497 5.768L8.37203 5.31104L7.16472 5.84721L8.42448 6.24481L8.57497 5.768ZM18.0617 5.2325L18.1314 5.72763L18.2183 4.75763L18.0617 5.2325ZM13.8792 6.14542L13.7404 5.66506L13.7403 5.66511L13.8792 6.14542ZM19.5772 9.14667L19.9423 8.80504L19.6865 8.53165L19.3522 8.70018L19.5772 9.14667ZM19.4337 9.219L19.2087 8.77251L19.2085 8.77259L19.4337 9.219ZM8.55572 9.219L8.32982 9.66506L8.33052 9.66541L8.55572 9.219ZM8.4198 9.15017L8.6457 8.70411L8.30645 8.53229L8.05027 8.81335L8.4198 9.15017ZM13.4184 14H13.9184V13.5H13.4184V14ZM13.4184 16.3333V16.8333H13.9184V16.3333H13.4184ZM14.5851 12.8333H14.0851V13.3334L14.5851 13.3333L14.5851 12.8333ZM14.5851 12.25H15.0851V11.75H14.5851V12.25ZM13.4184 12.25V11.75H12.9184V12.25H13.4184ZM13.4184 12.8333V13.3333H13.9184V12.8333H13.4184ZM13.4184 17.5H13.9184V17H13.4184V17.5ZM13.4184 19.8333V20.3333H13.9184V19.8333H13.4184ZM12.3176 19.0557L11.8417 19.2089L11.8439 19.2159L11.8464 19.2229L12.3176 19.0557ZM11.2181 19.4442L11.6897 19.2776L11.6846 19.2644L11.2181 19.4442ZM13.4184 21H13.9184V20.4999L13.4183 20.5L13.4184 21ZM13.4184 21.5833H12.9184V22.0833H13.4184V21.5833ZM14.5851 21.5833V22.0833H15.0851V21.5833H14.5851ZM14.5851 21V20.5H14.0851V21H14.5851ZM14.5851 16.3333H14.0851V16.8333H14.5851V16.3333ZM14.5851 14V13.5H14.0851V14H14.5851ZM15.6858 14.7776L16.1618 14.6245L16.1595 14.6174L16.157 14.6104L15.6858 14.7776ZM16.7854 14.3891L16.3138 14.5558L16.3189 14.569L16.7854 14.3891ZM14.5851 17.5V17H14.0851V17.5H14.5851ZM14.5851 19.8333H14.0851V20.3333H14.5851V19.8333ZM15.41 19.4916L15.7636 19.8452L15.41 19.4916ZM14.0245 3C11.2879 3 8.80965 3.90103 7.34489 4.63431L7.79255 5.52852C9.16863 4.83963 11.4912 4 14.0245 4V3ZM7.34511 4.6342C7.21178 4.70087 7.08628 4.76645 6.96878 4.83095L7.44999 5.70755C7.55494 5.64994 7.66899 5.5903 7.79233 5.52863L7.34511 4.6342ZM6.97012 4.83021C6.74056 4.95532 6.54011 5.07455 6.37625 5.18273L6.92719 6.01727C7.06199 5.92828 7.23721 5.82351 7.44865 5.70829L6.97012 4.83021ZM6.23811 5.88094L7.85395 8.25978L8.68116 7.69789L7.06533 5.31906L6.23811 5.88094ZM8.08266 8.44339L8.84332 8.74614L9.21312 7.81703L8.45245 7.51428L8.08266 8.44339ZM8.803 8.72799C11.9173 10.2992 16.071 10.2992 19.1858 8.72801L18.7355 7.83516C15.9038 9.26348 12.0844 9.26346 9.25344 7.83518L8.803 8.72799ZM19.1909 8.72539L20.0543 8.27739L19.5937 7.38978L18.7303 7.83778L19.1909 8.72539ZM20.2367 8.11586L21.7644 5.88228L20.939 5.31772L19.4113 7.5513L20.2367 8.11586ZM21.6241 5.18073C21.2904 4.96385 20.9437 4.76744 20.5861 4.59258L20.1468 5.49092C20.4681 5.648 20.7795 5.82444 21.0793 6.01927L21.6241 5.18073ZM20.5893 4.59413C19.1308 3.8682 16.7102 3 14.0251 3V4C16.5094 4 18.7753 4.8083 20.1437 5.48937L20.5893 4.59413ZM10.3597 5.70129C9.80725 5.59733 9.26153 5.46038 8.72546 5.29119L8.42448 6.24481C8.99861 6.42602 9.58308 6.57269 10.1747 6.68404L10.3597 5.70129ZM8.77791 6.22496C10.0677 5.65215 11.9797 5.05 14.0251 5.05V4.05C11.7969 4.05 9.74339 4.70201 8.37203 5.31104L8.77791 6.22496ZM14.0251 5.05C15.4393 5.05 16.7849 5.33808 17.9052 5.70737L18.2183 4.75763C17.0239 4.36392 15.5707 4.05 14.0251 4.05V5.05ZM17.9921 4.73737C16.6088 4.93192 15.1383 5.2612 13.7404 5.66506L14.018 6.62577C15.3782 6.2328 16.8021 5.91458 18.1314 5.72763L17.9921 4.73737ZM13.7403 5.66511C12.7576 5.94934 11.575 5.92599 10.3581 5.701L10.1763 6.68433C11.4771 6.92484 12.8308 6.96916 14.0181 6.62573L13.7403 5.66511ZM19.3522 8.70018L19.2087 8.77251L19.6588 9.66548L19.8023 9.59315L19.3522 8.70018ZM19.2085 8.77259C16.08 10.3508 11.9095 10.3508 8.78092 8.77259L8.33052 9.66541C11.7423 11.3865 16.2471 11.3865 19.6589 9.66541L19.2085 8.77259ZM8.78162 8.77294L8.6457 8.70411L8.1939 9.59623L8.32982 9.66506L8.78162 8.77294ZM8.05027 8.81335C6.79411 10.1915 5.60952 11.8639 4.76616 13.6044C3.92565 15.3391 3.40541 17.1802 3.5301 18.8822C3.65671 20.6105 4.44898 22.1704 6.16711 23.2784C7.85955 24.3698 10.4108 24.9983 14.0245 24.9983V23.9983C10.5037 23.9983 8.17294 23.382 6.70908 22.438C5.2709 21.5105 4.63254 20.244 4.52742 18.8091C4.42038 17.348 4.86731 15.689 5.66608 14.0405C6.46199 12.3979 7.58879 10.8041 8.78933 9.48699L8.05027 8.81335ZM14.0245 24.9983C17.6393 24.9983 20.1865 24.3579 21.8719 23.2499C23.5824 22.1254 24.3618 20.5471 24.4784 18.8094C24.5934 17.0968 24.0658 15.2505 23.2218 13.5234C22.375 11.7908 21.1912 10.1397 19.9423 8.80504L19.2121 9.48829C20.4005 10.7582 21.5247 12.3284 22.3233 13.9625C23.1246 15.6022 23.5796 17.2682 23.4807 18.7424C23.3834 20.1914 22.7525 21.4743 21.3226 22.4143C19.8675 23.3708 17.5441 23.9983 14.0245 23.9983V24.9983ZM13.4184 13.5C12.9764 13.5 12.5524 13.6756 12.2399 13.9882L12.947 14.6953C13.072 14.5702 13.2416 14.5 13.4184 14.5V13.5ZM12.2399 13.9882C11.9273 14.3007 11.7517 14.7246 11.7517 15.1667H12.7517C12.7517 14.9899 12.822 14.8203 12.947 14.6953L12.2399 13.9882ZM11.7517 15.1667C11.7517 15.6087 11.9273 16.0326 12.2399 16.3452L12.947 15.6381C12.822 15.513 12.7517 15.3435 12.7517 15.1667H11.7517ZM12.2399 16.3452C12.5524 16.6577 12.9764 16.8333 13.4184 16.8333V15.8333C13.2416 15.8333 13.072 15.7631 12.947 15.6381L12.2399 16.3452ZM13.9184 16.3333V14H12.9184V16.3333H13.9184ZM15.0851 12.8333V12.25H14.0851V12.8333H15.0851ZM14.5851 11.75H13.4184V12.75H14.5851V11.75ZM12.9184 12.25V12.8333H13.9184V12.25H12.9184ZM13.4184 12.3333C12.6669 12.3333 11.9463 12.6318 11.4149 13.1632L12.122 13.8703C12.4658 13.5265 12.9322 13.3333 13.4184 13.3333V12.3333ZM11.4149 13.1632C10.8836 13.6946 10.5851 14.4152 10.5851 15.1667H11.5851C11.5851 14.6804 11.7782 14.2141 12.122 13.8703L11.4149 13.1632ZM10.5851 15.1667C10.5851 15.9181 10.8836 16.6388 11.4149 17.1701L12.122 16.463C11.7782 16.1192 11.5851 15.6529 11.5851 15.1667H10.5851ZM11.4149 17.1701C11.9463 17.7015 12.6669 18 13.4184 18V17C12.9322 17 12.4658 16.8068 12.122 16.463L11.4149 17.1701ZM12.9184 17.5V19.8333H13.9184V17.5H12.9184ZM13.4184 19.3333C13.1291 19.3333 12.8813 19.1491 12.7889 18.8886L11.8464 19.2229C12.076 19.8701 12.6927 20.3333 13.4184 20.3333V19.3333ZM12.7936 18.9026C12.7492 18.7647 12.6777 18.6371 12.5832 18.5274L11.8255 19.18C11.8327 19.1885 11.8382 19.1983 11.8417 19.2089L12.7936 18.9026ZM12.5832 18.5274C12.4886 18.4176 12.373 18.328 12.2432 18.2637L11.7993 19.1597C11.8093 19.1647 11.8182 19.1716 11.8255 19.18L12.5832 18.5274ZM12.2432 18.2637C12.1134 18.1994 11.9721 18.1617 11.8275 18.153L11.7673 19.1512C11.7785 19.1519 11.7893 19.1548 11.7993 19.1597L12.2432 18.2637ZM11.8275 18.153C11.6829 18.1443 11.538 18.1647 11.4014 18.2129L11.7346 19.1558C11.7451 19.1521 11.7562 19.1505 11.7673 19.1512L11.8275 18.153ZM11.4014 18.2129C11.2649 18.2612 11.1393 18.3364 11.0323 18.434L11.7062 19.1728C11.7144 19.1653 11.7241 19.1595 11.7346 19.1558L11.4014 18.2129ZM11.0323 18.434C10.9253 18.5316 10.8389 18.6497 10.7783 18.7812L11.6866 19.1995C11.6913 19.1894 11.6979 19.1803 11.7062 19.1728L11.0323 18.434ZM10.7783 18.7812C10.7177 18.9128 10.6841 19.0552 10.6795 19.2L11.679 19.2317C11.6794 19.2206 11.682 19.2097 11.6866 19.1995L10.7783 18.7812ZM10.6795 19.2C10.6749 19.3447 10.6994 19.489 10.7515 19.6241L11.6846 19.2644C11.6806 19.254 11.6787 19.2429 11.679 19.2317L10.6795 19.2ZM10.7466 19.6109C10.9419 20.1634 11.3038 20.6418 11.7823 20.9801L12.3596 20.1636C12.05 19.9447 11.8158 19.6352 11.6895 19.2776L10.7466 19.6109ZM11.7823 20.9801C12.2608 21.3185 12.8324 21.5001 13.4185 21.5L13.4183 20.5C13.0391 20.5001 12.6692 20.3825 12.3596 20.1636L11.7823 20.9801ZM12.9184 21V21.5833H13.9184V21H12.9184ZM13.4184 22.0833H14.5851V21.0833H13.4184V22.0833ZM15.0851 21.5833V21H14.0851V21.5833H15.0851ZM14.5851 21.5C15.3365 21.5 16.0572 21.2015 16.5885 20.6701L15.8814 19.963C15.5376 20.3068 15.0713 20.5 14.5851 20.5V21.5ZM16.5885 20.6701C17.1199 20.1388 17.4184 19.4181 17.4184 18.6667H16.4184C16.4184 19.1529 16.2252 19.6192 15.8814 19.963L16.5885 20.6701ZM17.4184 18.6667C17.4184 17.9152 17.1199 17.1946 16.5885 16.6632L15.8814 17.3703C16.2252 17.7141 16.4184 18.1804 16.4184 18.6667H17.4184ZM16.5885 16.6632C16.0572 16.1318 15.3365 15.8333 14.5851 15.8333V16.8333C15.0713 16.8333 15.5376 17.0265 15.8814 17.3703L16.5885 16.6632ZM15.0851 16.3333V14H14.0851V16.3333H15.0851ZM14.5851 14.5C14.8743 14.5 15.1221 14.6842 15.2146 14.9448L16.157 14.6104C15.9275 13.9633 15.3108 13.5 14.5851 13.5V14.5ZM15.2098 14.9307C15.2542 15.0686 15.3258 15.1962 15.4203 15.3059L16.178 14.6533C16.1707 14.6449 16.1652 14.6351 16.1618 14.6245L15.2098 14.9307ZM15.4203 15.3059C15.5148 15.4157 15.6304 15.5054 15.7602 15.5697L16.2041 14.6736C16.1941 14.6687 16.1852 14.6618 16.178 14.6533L15.4203 15.3059ZM15.7602 15.5697C15.89 15.634 16.0314 15.6716 16.176 15.6803L16.2361 14.6821C16.225 14.6814 16.2141 14.6786 16.2041 14.6736L15.7602 15.5697ZM16.176 15.6803C16.3206 15.689 16.4654 15.6686 16.602 15.6204L16.2689 14.6775C16.2584 14.6812 16.2472 14.6828 16.2361 14.6821L16.176 15.6803ZM16.602 15.6204C16.7386 15.5721 16.8641 15.497 16.9711 15.3994L16.2973 14.6605C16.289 14.668 16.2794 14.6738 16.2689 14.6775L16.602 15.6204ZM16.9711 15.3994C17.0781 15.3018 17.1645 15.1837 17.2251 15.0521L16.3168 14.6338C16.3121 14.6439 16.3055 14.653 16.2973 14.6605L16.9711 15.3994ZM17.2251 15.0521C17.2857 14.9205 17.3193 14.7782 17.3239 14.6334L16.3244 14.6016C16.324 14.6127 16.3215 14.6237 16.3168 14.6338L17.2251 15.0521ZM17.3239 14.6334C17.3285 14.4886 17.304 14.3444 17.2519 14.2092L16.3189 14.569C16.3229 14.5794 16.3248 14.5905 16.3244 14.6016L17.3239 14.6334ZM17.2568 14.2225C17.0615 13.6699 16.6997 13.1915 16.2212 12.8532L15.6438 13.6697C15.9535 13.8886 16.1876 14.1982 16.314 14.5557L17.2568 14.2225ZM16.2212 12.8532C15.7427 12.5149 15.171 12.3332 14.585 12.3333L14.5851 13.3333C14.9643 13.3333 15.3342 13.4508 15.6438 13.6697L16.2212 12.8532ZM14.0851 17.5V19.8333H15.0851V17.5H14.0851ZM14.5851 20.3333C15.0271 20.3333 15.451 20.1577 15.7636 19.8452L15.0565 19.1381C14.9314 19.2631 14.7619 19.3333 14.5851 19.3333V20.3333ZM15.7636 19.8452C16.0761 19.5326 16.2517 19.1087 16.2517 18.6667H15.2517C15.2517 18.8435 15.1815 19.013 15.0565 19.1381L15.7636 19.8452ZM16.2517 18.6667C16.2517 18.2246 16.0761 17.8007 15.7636 17.4882L15.0565 18.1953C15.1815 18.3203 15.2517 18.4899 15.2517 18.6667H16.2517ZM15.7636 17.4882C15.451 17.1756 15.0271 17 14.5851 17V18C14.7619 18 14.9314 18.0702 15.0565 18.1953L15.7636 17.4882Z" fill="#0000FF" mask="url(#path-1-inside-1_1709_1317)"/>
</svg>
