<svg width="28" height="28" viewBox="0 0 28 28" fill="none" xmlns="http://www.w3.org/2000/svg">
<path d="M14.332 20.083H14.582C14.9107 20.083 15.2275 19.9691 15.4795 19.7627L15.584 19.668C15.8494 19.4024 15.9989 19.0424 15.999 18.667C15.999 18.3381 15.8844 18.0207 15.6777 17.7686L15.584 17.665C15.3183 17.3994 14.9578 17.25 14.582 17.25H14.332V20.083ZM13.415 13.75C13.0395 13.7501 12.6796 13.8995 12.4141 14.165C12.1484 14.4307 11.999 14.7913 11.999 15.167C11.9991 15.5426 12.1485 15.9024 12.4141 16.168C12.6797 16.4336 13.0394 16.5829 13.415 16.583H13.665V13.75H13.415ZM13.665 17.25H13.415C12.9316 17.2499 12.4654 17.0821 12.0947 16.7783L11.9424 16.6396C11.5518 16.249 11.3321 15.7194 11.332 15.167C11.332 14.6836 11.5001 14.2174 11.8037 13.8467L11.9424 13.6934C12.333 13.3028 12.8627 13.0831 13.415 13.083H13.665V12.5H14.332V13.083H14.582C14.9592 13.0829 15.3283 13.1856 15.6504 13.3779L15.7852 13.4658C16.0929 13.6834 16.3354 13.9795 16.4873 14.3223L16.5469 14.4727C16.5613 14.5137 16.5677 14.5572 16.5654 14.6006C16.5643 14.6225 16.5611 14.6448 16.5557 14.666L16.5332 14.7275C16.5238 14.7473 16.5121 14.7658 16.499 14.7832L16.4551 14.8311C16.4388 14.8457 16.4211 14.859 16.4023 14.8701L16.3438 14.8975C16.3026 14.912 16.2585 14.9183 16.2148 14.916L16.1504 14.9062L16.0889 14.8838C16.029 14.8552 15.9787 14.8101 15.9453 14.7539L15.918 14.6943L15.877 14.5928C15.7884 14.393 15.6555 14.2158 15.4873 14.0762L15.4004 14.0098C15.1612 13.8407 14.875 13.7499 14.582 13.75H14.332V16.583H14.582C15.1344 16.583 15.664 16.8029 16.0547 17.1934C16.4454 17.5841 16.665 18.1145 16.665 18.667C16.665 19.2194 16.4453 19.749 16.0547 20.1396C15.664 20.5302 15.1345 20.75 14.582 20.75H14.332V21.333H13.665V20.75H13.415C12.9842 20.75 12.5637 20.6169 12.2119 20.3682C11.9041 20.1505 11.6627 19.8535 11.5107 19.5107L11.4512 19.3613L11.4482 19.3545L11.4307 19.29C11.427 19.2682 11.4251 19.2459 11.4258 19.2236C11.4272 19.1791 11.4374 19.1352 11.4561 19.0947C11.4653 19.0746 11.4772 19.0559 11.4902 19.0381L11.5352 18.9883C11.5516 18.9733 11.569 18.9596 11.5879 18.9482L11.6484 18.9199C11.6694 18.9125 11.691 18.9074 11.7129 18.9043L11.7793 18.9014C11.8014 18.9027 11.8234 18.9065 11.8447 18.9121L11.9072 18.9355C11.9272 18.9454 11.9464 18.9571 11.9639 18.9707L12.0117 19.0166C12.0407 19.0502 12.0625 19.0896 12.0762 19.1318L12.3145 19.0557L12.0762 19.1328L12.0791 19.1396C12.2744 19.6899 12.7987 20.0829 13.415 20.083H13.665V17.25Z" fill="white" stroke="#D3D1D2" stroke-width="0.5"/>
<path d="M14.0215 3.75C16.1805 3.75001 18.172 4.34707 19.5752 4.95215L20.1396 5.20996L20.2197 5.24902C20.5259 5.4005 20.7868 5.54558 20.9961 5.67285L18.9873 8.6084L18.8721 8.77832L19.0146 8.9248C20.2387 10.1761 21.3949 11.7733 22.2227 13.4629C23.0515 15.1547 23.5424 16.9214 23.4619 18.5156C23.3819 20.0996 22.7384 21.5177 21.2803 22.5479C19.8111 23.5857 17.4892 24.248 14.0215 24.248C10.5529 24.248 8.22373 23.5972 6.74512 22.5732C5.27791 21.5572 4.62393 20.1576 4.53418 18.5869C4.4438 17.0053 4.92645 15.2452 5.75195 13.5439C6.57624 11.8452 7.73349 10.2226 8.96973 8.92188L9.10938 8.77637L8.99609 8.60938L7.00098 5.6748C7.01893 5.66401 7.03698 5.65263 7.05566 5.6416L7.38965 5.4541H7.39062L7.78125 5.25391C9.19084 4.56405 11.5011 3.75 14.0215 3.75ZM18.3984 9.4668C15.6477 10.5305 12.3357 10.5304 9.58496 9.46777L9.42773 9.40625L9.3125 9.53125C8.31529 10.6061 7.37791 11.8938 6.64941 13.25L6.35059 13.835C5.60381 15.3746 5.1727 16.9157 5.18945 18.2793L5.19922 18.5488C5.27343 19.85 5.77453 20.9878 6.8916 21.8555L7.12305 22.0254H7.12402C8.44664 22.9408 10.6205 23.582 14.0205 23.582C17.2054 23.582 19.3077 23.0088 20.6387 22.1738L20.8955 22.0029C22.0873 21.1604 22.6528 20.0378 22.7773 18.7432L22.7959 18.4824C22.8642 17.1298 22.4763 15.5935 21.7686 14.0625L21.623 13.7568L21.6221 13.7549L21.3232 13.1807C20.6021 11.8534 19.7105 10.6248 18.6699 9.52734L18.5547 9.40625L18.3984 9.4668ZM19.5156 5.9375C18.093 6.03996 16.4404 6.34413 14.8105 6.77734L14.1143 6.9707C13.0104 7.28959 11.7884 7.28954 10.6094 7.12012L10.1074 7.03809C9.77317 6.97619 9.44132 6.9019 9.1123 6.81641L8.46875 6.64941L8.84277 7.19922L9.96191 8.84766L10.0078 8.91504L10.085 8.94336C12.5395 9.81723 15.4375 9.81693 17.8926 8.94434L17.9697 8.91699L18.0156 8.84961L19.7402 6.32812L20.0332 5.90039L19.5156 5.9375ZM14.0205 4.41699C11.9674 4.41706 10.059 4.98916 8.72656 5.55469L8.08691 5.82617L8.75293 6.02441C9.10857 6.13022 9.47701 6.22509 9.85156 6.30566L10.2275 6.38086L10.2285 6.38184C11.4237 6.60193 12.6416 6.65007 13.7158 6.38672L13.9287 6.3291C15.1695 5.96749 16.432 5.68385 17.708 5.47852L17.7402 4.99219C16.6492 4.6637 15.3686 4.41699 14.0205 4.41699Z" fill="white" stroke="#D3D1D2" stroke-width="0.5"/>
</svg>
