<svg width="28" height="28" viewBox="0 0 28 28" fill="none" xmlns="http://www.w3.org/2000/svg">
<path d="M4.375 2.32812L13.2344 2.3291V2.33008C13.3073 2.33027 13.3782 2.35131 13.4385 2.39062L13.4951 2.43652L13.4961 2.4375L20.3857 9.11523C20.4219 9.15028 20.4511 9.19287 20.4707 9.23926C20.4804 9.26226 20.4873 9.28621 20.4922 9.31055L20.5 9.38574V21.7959C20.4999 21.8705 20.4774 21.9427 20.4365 22.0039L20.3906 22.0605C20.3203 22.1309 20.2245 22.1709 20.125 22.1709H4.375C4.30038 22.1709 4.22816 22.1482 4.16699 22.1074L4.10938 22.0605C4.03933 21.9903 4.00007 21.8951 4 21.7959V2.70312L4.00684 2.62988C4.01644 2.58163 4.03616 2.53603 4.06348 2.49512L4.10938 2.4375C4.1622 2.38467 4.22955 2.34933 4.30176 2.33496L4.375 2.32812ZM6.5 18.874H18V16.124H6.5V18.874ZM6.5 14.499H18V11.749H6.5V14.499ZM6.5 10.124H11V7.37402H6.5V10.124ZM13.6104 9.01172H19.1992L18.3135 8.15234L14.458 4.41309L13.6104 3.58984V9.01172Z" fill="#0000FF" stroke="#0000FF"/>
<path d="M22.75 13.125V24.5H7.875V26.25H23.625C23.8571 26.25 24.0796 26.1578 24.2437 25.9937C24.4078 25.8296 24.5 25.6071 24.5 25.375V13.125H22.75Z" fill="#0000FF"/>
</svg>
