<svg width="20" height="20" viewBox="0 0 20 20" fill="none" xmlns="http://www.w3.org/2000/svg">
<path d="M9.99707 11.666C11.4925 11.666 13.763 12.0428 15.6465 12.7959C16.5876 13.1722 17.4008 13.6299 17.9707 14.1562C18.5371 14.6795 18.8311 15.2374 18.8311 15.833V18.833H1.16406V15.833C1.16406 15.2374 1.45708 14.6795 2.02344 14.1562C2.59338 13.6298 3.40732 13.1723 4.34863 12.7959C6.23194 12.0429 8.50164 11.6661 9.99707 11.666ZM9.99707 12.8828C8.1906 12.8829 6.35024 13.3251 4.95996 13.8613C4.2649 14.1294 3.66392 14.4274 3.22754 14.7188C3.01099 14.8633 2.81848 15.0177 2.67383 15.1777C2.54362 15.3219 2.38086 15.5492 2.38086 15.833V17.6162H17.6143V15.833C17.6143 15.5492 17.4515 15.3219 17.3213 15.1777C17.1766 15.0176 16.9833 14.8634 16.7666 14.7188C16.3303 14.4275 15.7299 14.1293 15.0352 13.8613C13.6448 13.3251 11.8037 12.8828 9.99707 12.8828ZM9.99707 1.16602C11.0331 1.16602 12.0296 1.552 12.7939 2.24414L12.9434 2.38672C13.7248 3.16812 14.1641 4.22794 14.1641 5.33301C14.164 6.36886 13.7779 7.36466 13.0859 8.12891L12.9434 8.2793C12.162 9.06049 11.102 9.49902 9.99707 9.49902C8.96137 9.49894 7.96537 9.11366 7.20117 8.42188L7.05078 8.2793C6.26946 7.49797 5.83114 6.43796 5.83105 5.33301C5.83105 4.29711 6.21625 3.30044 6.9082 2.53613L7.05078 2.38672C7.83211 1.60539 8.89212 1.1661 9.99707 1.16602ZM9.99707 2.49902C9.33985 2.4991 8.70618 2.72781 8.20215 3.14062L7.99414 3.3291C7.46279 3.86045 7.16406 4.58156 7.16406 5.33301C7.16415 6.08434 7.46286 6.80466 7.99414 7.33594C8.52542 7.86721 9.24574 8.16593 9.99707 8.16602C10.7485 8.16602 11.4696 7.86729 12.001 7.33594C12.5322 6.80468 12.831 6.08426 12.8311 5.33301C12.8311 4.67559 12.6024 4.04125 12.1895 3.53711L12.001 3.3291C11.4696 2.79775 10.7485 2.49902 9.99707 2.49902Z" fill="black" stroke="#D3D1D2"/>
</svg>
