<svg width="28" height="28" viewBox="0 0 28 28" fill="none" xmlns="http://www.w3.org/2000/svg">
<path d="M13.9971 16.833C16.5146 16.833 18.7684 17.3437 20.374 18.1465C22.0093 18.9641 22.8309 20.0013 22.8311 20.999V22.833H5.16406V20.999C5.16424 20.0013 5.98516 18.9641 7.62012 18.1465C9.22569 17.3437 11.4796 16.8331 13.9971 16.833ZM13.9971 5.16602C15.0331 5.16602 16.0296 5.552 16.7939 6.24414L16.9434 6.38672C17.7248 7.16812 18.1641 8.22794 18.1641 9.33301C18.164 10.3689 17.7779 11.3647 17.0859 12.1289L16.9434 12.2793C16.162 13.0605 15.102 13.499 13.9971 13.499C12.9614 13.4989 11.9654 13.1137 11.2012 12.4219L11.0508 12.2793C10.2695 11.498 9.83114 10.438 9.83105 9.33301C9.83105 8.29711 10.2162 7.30044 10.9082 6.53613L11.0508 6.38672C11.8321 5.60539 12.8921 5.1661 13.9971 5.16602Z" fill="#0000FF" stroke="#0000FF"/>
</svg>
