<svg width="33" height="33" viewBox="0 0 33 33" fill="none" xmlns="http://www.w3.org/2000/svg">
<g clip-path="url(#clip0_590_7046)">
<path d="M11.0052 15.1673C12.7733 15.1673 14.469 14.4649 15.7193 13.2147C16.9695 11.9645 17.6719 10.2688 17.6719 8.50065C17.6719 6.73254 16.9695 5.03685 15.7193 3.78661C14.469 2.53636 12.7733 1.83398 11.0052 1.83398C9.2371 1.83398 7.54141 2.53636 6.29116 3.78661C5.04092 5.03685 4.33854 6.73254 4.33854 8.50065C4.33854 10.2688 5.04092 11.9645 6.29116 13.2147C7.54141 14.4649 9.2371 15.1673 11.0052 15.1673ZM11.0052 15.1673C13.6892 15.1673 16.0345 16.1807 17.7025 17.8647M11.0052 15.1673C5.67188 15.1673 1.67188 19.1673 1.67188 24.5007V31.1673H11.0052M31.0052 20.5007L27.0052 16.5007L19.0052 24.5007M23.6719 19.834L27.6719 23.834M13.6719 26.5007C13.6722 27.3851 14.0239 28.2331 14.6495 28.8582C15.2751 29.4833 16.1235 29.8343 17.0079 29.834C17.8923 29.8336 18.7403 29.482 19.3654 28.8563C19.9906 28.2307 20.3416 27.3824 20.3412 26.498C20.3409 25.6136 19.9892 24.7655 19.3636 24.1404C18.7379 23.5153 17.8896 23.1643 17.0052 23.1647C16.1208 23.165 15.2728 23.5167 14.6476 24.1423C14.0225 24.7679 13.6715 25.6162 13.6719 26.5007Z" stroke="white" stroke-width="2"/>
</g>
<defs>
<clipPath id="clip0_590_7046">
<rect width="32" height="32" fill="white" transform="translate(0.335938 0.5)"/>
</clipPath>
</defs>
</svg>
