<svg width="32" height="32" viewBox="0 0 32 32" fill="none" xmlns="http://www.w3.org/2000/svg">
<g clip-path="url(#clip0_590_7053)">
<path d="M14.1759 18.8007C15.2017 16.5483 17.0801 14.7956 19.3979 13.928C21.7158 13.0603 24.2833 13.1488 26.5359 14.174C28.7883 15.1997 30.541 17.0781 31.4086 19.396C32.2763 21.7138 32.1878 24.2814 31.1626 26.534C30.4233 28.1661 29.2287 29.5501 27.7221 30.5198C26.2155 31.4895 24.461 32.0037 22.6693 32.0007C19.0693 32.0007 15.7759 29.9207 14.2293 26.6673H1.33594V24.0007C1.41594 22.4807 2.45594 21.2407 4.45594 20.2407C6.45594 19.2407 8.9626 18.7207 12.0026 18.6673C12.7626 18.6673 13.4826 18.734 14.1759 18.8007ZM12.0026 5.33398C13.4959 5.37398 14.7493 5.89398 15.7493 6.89398C16.7493 7.89398 17.2426 9.14732 17.2426 10.6673C17.2426 12.1873 16.7493 13.4407 15.7493 14.4407C14.7493 15.4407 13.4959 15.934 12.0026 15.934C10.5093 15.934 9.25594 15.4407 8.25594 14.4407C7.25594 13.4407 6.7626 12.1873 6.7626 10.6673C6.7626 9.14732 7.25594 7.89398 8.25594 6.89398C9.25594 5.89398 10.5093 5.37398 12.0026 5.33398ZM22.6693 29.334C24.4374 29.334 26.1331 28.6316 27.3833 27.3814C28.6336 26.1311 29.3359 24.4354 29.3359 22.6673C29.3359 20.8992 28.6336 19.2035 27.3833 17.9533C26.1331 16.703 24.4374 16.0007 22.6693 16.0007C20.9012 16.0007 19.2055 16.703 17.9552 17.9533C16.705 19.2035 16.0026 20.8992 16.0026 22.6673C16.0026 24.4354 16.705 26.1311 17.9552 27.3814C19.2055 28.6316 20.9012 29.334 22.6693 29.334ZM21.3359 18.6673H23.3359V22.4273L26.5893 24.3073L25.5893 26.0407L21.3359 23.5873V18.6673Z" fill="white"/>
</g>
<defs>
<clipPath id="clip0_590_7053">
<rect width="32" height="32" fill="white"/>
</clipPath>
</defs>
</svg>
