<svg width="20" height="20" viewBox="0 0 20 20" fill="none" xmlns="http://www.w3.org/2000/svg">
<path d="M11.15 5.455C10.6358 5.45447 10.1429 5.24984 9.77951 4.88608C9.41612 4.52232 9.212 4.02917 9.212 3.515C9.212 2.445 10.082 1.575 11.151 1.575C12.221 1.575 13.091 2.445 13.091 3.515C13.091 4.585 12.221 5.455 11.151 5.455M10 0C4.477 0 0 4.477 0 10C0 12.348 0.811 14.506 2.166 16.212C3.258 14.68 4.424 13.235 5.887 12.032C5.929 11.997 6.03 11.922 6.159 11.829C6.7723 11.3776 7.18496 10.7044 7.309 9.953V9.941C7.679 7.503 8.68 6.662 11.461 6.662C11.7077 6.66267 11.9697 6.66933 12.247 6.682C13.67 6.749 14.49 7.155 14.587 7.367C14.6354 7.4818 14.6449 7.6093 14.614 7.73L14.503 7.715C13.625 7.606 12.272 7.875 12.084 8.832C11.979 9.376 12.104 9.975 12.156 10.525C12.21 11.092 12.26 11.664 12.255 12.236C12.252 12.28 12.22 12.502 12.25 12.526C10.736 11.077 7.236 12.896 6.134 13.696C6.24733 13.6573 6.36067 13.6167 6.474 13.574C7.524 13.217 10.714 12.26 11.944 13.318C12.987 14.595 12.048 16.952 11.271 18.12C10.8068 18.8111 10.2556 19.4396 9.631 19.99C9.75367 19.996 9.87667 19.9993 10 20C15.523 20 20 15.523 20 10C20 4.477 15.523 0 10 0Z" fill="#F44336"/>
</svg>
