<svg width="24" height="21" viewBox="0 0 24 21" fill="none" xmlns="http://www.w3.org/2000/svg">
<rect width="24" height="21" rx="4.66667" fill="#BC8522"/>
<path d="M5.0312 14.5448V12.8312H6.5544C6.9352 12.8312 7.27867 12.7752 7.5848 12.6632C7.89093 12.5437 8.15227 12.3795 8.3688 12.1704C8.58533 11.9539 8.7496 11.6963 8.8616 11.3976C8.9736 11.0915 9.0296 10.7555 9.0296 10.3896C9.0296 10.0088 8.9736 9.66907 8.8616 9.3704C8.7496 9.07173 8.58533 8.81787 8.3688 8.6088C8.15227 8.39973 7.89093 8.24293 7.5848 8.1384C7.27867 8.0264 6.9352 7.9704 6.5544 7.9704H5.0312V6.2568H6.4536C7.1928 6.2568 7.83867 6.36507 8.3912 6.5816C8.94373 6.79813 9.40667 7.09307 9.78 7.4664C10.1533 7.83973 10.4296 8.26907 10.6088 8.7544C10.7955 9.23227 10.8888 9.73627 10.8888 10.2664V10.5128C10.8888 11.0056 10.7955 11.4947 10.6088 11.98C10.4296 12.4579 10.1533 12.8909 9.78 13.2792C9.40667 13.66 8.94373 13.9661 8.3912 14.1976C7.83867 14.4291 7.1928 14.5448 6.4536 14.5448H5.0312ZM3.4184 14.5448V6.2568H5.2552V14.5448H3.4184ZM16.0436 14.7128C15.3119 14.7128 14.6735 14.5933 14.1284 14.3544C13.5833 14.108 13.1316 13.7795 12.7732 13.3688C12.4223 12.9581 12.1609 12.5027 11.9892 12.0024C11.8175 11.5021 11.7316 11.0019 11.7316 10.5016V10.2552C11.7316 9.74 11.8175 9.236 11.9892 8.7432C12.1609 8.2504 12.4185 7.8024 12.762 7.3992C13.1129 6.996 13.546 6.67493 14.0612 6.436C14.5839 6.19707 15.1849 6.0776 15.8644 6.0776C16.6036 6.0776 17.2569 6.21573 17.8244 6.492C18.3919 6.7608 18.8473 7.13787 19.1908 7.6232C19.5343 8.10107 19.7321 8.65733 19.7844 9.292H17.9476C17.9028 8.99333 17.7833 8.732 17.5892 8.508C17.4025 8.284 17.1599 8.10853 16.8612 7.9816C16.57 7.85467 16.2377 7.7912 15.8644 7.7912C15.506 7.7912 15.1849 7.85467 14.9012 7.9816C14.6249 8.10853 14.386 8.28773 14.1844 8.5192C13.9903 8.75067 13.8409 9.02693 13.7364 9.348C13.6393 9.6616 13.5908 10.0088 13.5908 10.3896C13.5908 10.7853 13.6431 11.1475 13.7476 11.476C13.8596 11.7971 14.0201 12.0771 14.2292 12.316C14.4383 12.5475 14.6959 12.7267 15.002 12.8536C15.3156 12.9805 15.6628 13.044 16.0436 13.044C16.5513 13.044 16.9919 12.9395 17.3652 12.7304C17.7385 12.5213 18.0073 12.2451 18.1716 11.9016L17.9476 13.156V11.2072H19.6388V12.9544C19.2879 13.5219 18.8025 13.9587 18.1828 14.2648C17.5705 14.5635 16.8575 14.7128 16.0436 14.7128ZM15.8084 11.5656V10.244H20.3108V11.5656H15.8084Z" fill="white"/>
</svg>
