<svg width="24" height="25" viewBox="0 0 24 25" fill="none" xmlns="http://www.w3.org/2000/svg">
<path fill-rule="evenodd" clip-rule="evenodd" d="M12.365 0.5C9.35368 0.5 6.61035 1.49467 4.98702 2.30733C4.84035 2.38067 4.70346 2.45222 4.57635 2.522C4.32435 2.65933 4.10968 2.78733 3.93902 2.9L5.78569 5.61867L6.65502 5.96467C10.0524 7.67867 14.6084 7.67867 18.0063 5.96467L18.993 5.45267L20.739 2.9C20.3769 2.66474 20.0009 2.45168 19.613 2.262C17.9977 1.458 15.3197 0.5 12.3657 0.5M8.07102 3.57733C7.41724 3.4543 6.77142 3.29223 6.13702 3.092C7.65768 2.41667 9.92369 1.7 12.3657 1.7C14.057 1.7 15.6564 2.044 16.979 2.48C15.429 2.698 13.775 3.068 12.199 3.52333C10.959 3.882 9.50968 3.84333 8.07102 3.57733ZM18.711 6.95333L18.547 7.036C14.8097 8.92133 9.85235 8.92133 6.11502 7.036L5.95968 6.95733C0.344351 13.118 -3.94232 24.498 12.365 24.498C28.6723 24.498 24.2817 12.9067 18.711 6.95333ZM11.6724 12.5C11.3187 12.5 10.9796 12.6405 10.7295 12.8905C10.4795 13.1406 10.339 13.4797 10.339 13.8333C10.339 14.187 10.4795 14.5261 10.7295 14.7761C10.9796 15.0262 11.3187 15.1667 11.6724 15.1667V12.5ZM13.0057 11.1667V10.5H11.6724V11.1667C10.9651 11.1667 10.2868 11.4476 9.78673 11.9477C9.28664 12.4478 9.00568 13.1261 9.00568 13.8333C9.00568 14.5406 9.28664 15.2189 9.78673 15.719C10.2868 16.219 10.9651 16.5 11.6724 16.5V19.1667C11.0924 19.1667 10.5984 18.7967 10.4144 18.278C10.3871 18.1931 10.343 18.1146 10.2848 18.0471C10.2267 17.9795 10.1555 17.9244 10.0757 17.8848C9.99578 17.8452 9.90878 17.8221 9.8198 17.8167C9.73083 17.8113 9.64168 17.8239 9.55763 17.8536C9.47358 17.8833 9.39634 17.9295 9.33048 17.9896C9.26462 18.0497 9.21147 18.1223 9.17418 18.2033C9.13689 18.2843 9.11622 18.3719 9.11339 18.461C9.11055 18.5501 9.12562 18.6388 9.15769 18.722C9.34149 19.242 9.68204 19.6923 10.1324 20.0107C10.5828 20.3291 11.1208 20.5001 11.6724 20.5V21.1667H13.0057V20.5C13.7129 20.5 14.3912 20.219 14.8913 19.719C15.3914 19.2189 15.6724 18.5406 15.6724 17.8333C15.6724 17.1261 15.3914 16.4478 14.8913 15.9477C14.3912 15.4476 13.7129 15.1667 13.0057 15.1667V12.5C13.5857 12.5 14.0797 12.87 14.2637 13.3887C14.291 13.4735 14.335 13.552 14.3932 13.6196C14.4514 13.6871 14.5225 13.7423 14.6024 13.7819C14.6823 13.8215 14.7693 13.8446 14.8582 13.85C14.9472 13.8553 15.0364 13.8428 15.1204 13.8131C15.2045 13.7834 15.2817 13.7371 15.3476 13.6771C15.4134 13.617 15.4666 13.5443 15.5039 13.4634C15.5411 13.3824 15.5618 13.2948 15.5646 13.2057C15.5675 13.1166 15.5524 13.0278 15.5204 12.9447C15.3365 12.4246 14.996 11.9744 14.5456 11.656C14.0953 11.3375 13.5573 11.1666 13.0057 11.1667ZM13.0057 16.5V19.1667C13.3593 19.1667 13.6984 19.0262 13.9485 18.7761C14.1985 18.5261 14.339 18.187 14.339 17.8333C14.339 17.4797 14.1985 17.1406 13.9485 16.8905C13.6984 16.6405 13.3593 16.5 13.0057 16.5Z" fill="white"/>
</svg>
