<svg width="29" height="26" viewBox="0 0 29 26" fill="none" xmlns="http://www.w3.org/2000/svg">
<path d="M10.9231 0.468975C12.2584 -0.0651791 13.7479 -0.0651791 15.0831 0.468975L24.2943 4.15537C25.2063 4.51857 25.8031 5.40177 25.8031 6.38257V15.757C25.5382 15.7187 25.2708 15.6994 25.0031 15.6994H18.6031C17.5484 15.6991 16.5151 15.9967 15.6221 16.558C14.7291 17.1192 14.0127 17.9212 13.5554 18.8716C13.0982 19.8221 12.9186 20.8823 13.0375 21.9303C13.1563 22.9783 13.5687 23.9714 14.2271 24.7954C13.1242 25.0423 11.9724 24.9497 10.9231 24.5298L1.71193 20.845C1.26647 20.6668 0.884636 20.3593 0.615693 19.962C0.34675 19.5647 0.203045 19.0959 0.203125 18.6162V6.38257C0.203365 5.90309 0.347218 5.43467 0.616141 5.03771C0.885064 4.64074 1.26673 4.33342 1.71193 4.15537L10.9231 0.468975ZM6.12792 6.16977C5.934 6.08363 5.7138 6.07805 5.51576 6.15427C5.31772 6.23048 5.15807 6.38225 5.07193 6.57617C4.98578 6.7701 4.98021 6.9903 5.05642 7.18834C5.13263 7.38638 5.2844 7.54603 5.47832 7.63217L12.2031 10.6194V18.101C12.2031 18.3131 12.2874 18.5166 12.4374 18.6667C12.5875 18.8167 12.791 18.901 13.0031 18.901C13.2153 18.901 13.4188 18.8167 13.5688 18.6667C13.7188 18.5166 13.8031 18.3131 13.8031 18.101V10.6194L20.5279 7.63057C20.6239 7.58792 20.7106 7.52677 20.783 7.45062C20.8554 7.37447 20.9121 7.2848 20.9498 7.18674C20.9876 7.08868 21.0056 6.98415 21.003 6.87912C21.0003 6.77408 20.977 6.6706 20.9343 6.57457C20.8917 6.47855 20.8305 6.39187 20.7544 6.31948C20.6782 6.24709 20.5886 6.19041 20.4905 6.15267C20.3924 6.11493 20.2879 6.09688 20.1829 6.09954C20.0778 6.1022 19.9743 6.12552 19.8783 6.16817L13.0031 9.22417L6.12792 6.16977ZM18.6031 17.301C17.5423 17.301 16.5248 17.7224 15.7747 18.4725C15.0246 19.2227 14.6031 20.2401 14.6031 21.301C14.6031 22.3618 15.0246 23.3793 15.7747 24.1294C16.5248 24.8795 17.5423 25.301 18.6031 25.301H19.4031C19.6153 25.301 19.8188 25.2167 19.9688 25.0667C20.1188 24.9166 20.2031 24.7131 20.2031 24.501C20.2031 24.2888 20.1188 24.0853 19.9688 23.9353C19.8188 23.7853 19.6153 23.701 19.4031 23.701H18.6031C17.9666 23.701 17.3562 23.4481 16.9061 22.998C16.456 22.5479 16.2031 21.9375 16.2031 21.301C16.2031 20.6645 16.456 20.054 16.9061 19.6039C17.3562 19.1538 17.9666 18.901 18.6031 18.901H19.4031C19.6153 18.901 19.8188 18.8167 19.9688 18.6667C20.1188 18.5166 20.2031 18.3131 20.2031 18.101C20.2031 17.8888 20.1188 17.6853 19.9688 17.5353C19.8188 17.3853 19.6153 17.301 19.4031 17.301H18.6031ZM24.2031 17.301C23.9909 17.301 23.7875 17.3853 23.6374 17.5353C23.4874 17.6853 23.4031 17.8888 23.4031 18.101C23.4031 18.3131 23.4874 18.5166 23.6374 18.6667C23.7875 18.8167 23.9909 18.901 24.2031 18.901H25.0031C25.6396 18.901 26.2501 19.1538 26.7002 19.6039C27.1503 20.054 27.4031 20.6645 27.4031 21.301C27.4031 21.9375 27.1503 22.5479 26.7002 22.998C26.2501 23.4481 25.6396 23.701 25.0031 23.701H24.2031C23.9909 23.701 23.7875 23.7853 23.6374 23.9353C23.4874 24.0853 23.4031 24.2888 23.4031 24.501C23.4031 24.7131 23.4874 24.9166 23.6374 25.0667C23.7875 25.2167 23.9909 25.301 24.2031 25.301H25.0031C26.064 25.301 27.0814 24.8795 27.8316 24.1294C28.5817 23.3793 29.0031 22.3618 29.0031 21.301C29.0031 20.2401 28.5817 19.2227 27.8316 18.4725C27.0814 17.7224 26.064 17.301 25.0031 17.301H24.2031ZM17.8031 21.301C17.8031 21.0888 17.8874 20.8853 18.0374 20.7353C18.1875 20.5853 18.391 20.501 18.6031 20.501H25.0031C25.2153 20.501 25.4188 20.5853 25.5688 20.7353C25.7188 20.8853 25.8031 21.0888 25.8031 21.301C25.8031 21.5131 25.7188 21.7166 25.5688 21.8667C25.4188 22.0167 25.2153 22.101 25.0031 22.101H18.6031C18.391 22.101 18.1875 22.0167 18.0374 21.8667C17.8874 21.7166 17.8031 21.5131 17.8031 21.301Z" fill="white"/>
</svg>
