<svg width="230" height="79" viewBox="0 0 230 79" fill="none" xmlns="http://www.w3.org/2000/svg">
<rect x="0.5" y="1" width="229" height="77" rx="7.5" fill="#211A1D"/>
<rect x="0.5" y="1" width="229" height="77" rx="7.5" stroke="#908D8E"/>
<path d="M26.5331 44.8594C26.1651 44.8594 25.9171 44.8954 25.7891 44.9314V47.2874C25.9411 47.3234 26.1311 47.3334 26.3931 47.3334C27.3511 47.3334 27.9411 46.8494 27.9411 46.0314C27.9411 45.2994 27.4331 44.8594 26.5331 44.8594ZM33.5071 44.8834C33.1071 44.8834 32.8471 44.9194 32.6931 44.9554V50.1754C32.8471 50.2114 33.0951 50.2114 33.3191 50.2114C34.9531 50.2234 36.0171 49.3234 36.0171 47.4194C36.0291 45.7594 35.0591 44.8834 33.5071 44.8834Z" fill="#FF3737"/>
<path d="M38 19.5H22C20.9391 19.5 19.9217 19.9214 19.1716 20.6716C18.4214 21.4217 18 22.4391 18 23.5V55.5C18 56.5609 18.4214 57.5783 19.1716 58.3284C19.9217 59.0786 20.9391 59.5 22 59.5H46C47.0609 59.5 48.0783 59.0786 48.8284 58.3284C49.5786 57.5783 50 56.5609 50 55.5V31.5L38 19.5ZM28.996 47.88C28.378 48.46 27.466 48.72 26.404 48.72C26.198 48.7239 25.9921 48.7118 25.788 48.684V51.536H24V43.664C24.8069 43.544 25.6222 43.4892 26.438 43.5C27.552 43.5 28.344 43.712 28.878 44.138C29.386 44.542 29.73 45.204 29.73 45.984C29.728 46.768 29.468 47.43 28.996 47.88ZM36.61 50.59C35.77 51.288 34.492 51.62 32.93 51.62C31.994 51.62 31.332 51.56 30.882 51.5V43.666C31.6892 43.5486 32.5043 43.4931 33.32 43.5C34.834 43.5 35.818 43.772 36.586 44.352C37.416 44.968 37.936 45.95 37.936 47.36C37.936 48.886 37.378 49.94 36.61 50.59ZM44 45.04H40.936V46.862H43.8V48.33H40.936V51.538H39.124V43.56H44V45.04ZM38 33.5H36V23.5L46 33.5H38Z" fill="#FF3737"/>
<path d="M71.114 33.288C70.506 33.288 69.946 33.176 69.434 32.952C68.922 32.728 68.4793 32.4133 68.106 32.008C67.7327 31.6027 67.4447 31.1333 67.242 30.6C67.0393 30.056 66.938 29.4693 66.938 28.84V28.504C66.938 27.8853 67.034 27.304 67.226 26.76C67.4287 26.216 67.706 25.7413 68.058 25.336C68.4207 24.9307 68.8527 24.616 69.354 24.392C69.866 24.1573 70.4313 24.04 71.05 24.04C71.7327 24.04 72.33 24.1893 72.842 24.488C73.3647 24.776 73.7807 25.2133 74.09 25.8C74.3993 26.3867 74.57 27.1227 74.602 28.008L73.946 27.24V21.32H76.17V33H74.41V29.304H74.794C74.762 30.1893 74.5807 30.9307 74.25 31.528C73.9193 32.1147 73.482 32.5573 72.938 32.856C72.4047 33.144 71.7967 33.288 71.114 33.288ZM71.61 31.416C72.0473 31.416 72.4473 31.32 72.81 31.128C73.1727 30.9253 73.4607 30.6373 73.674 30.264C73.898 29.88 74.01 29.432 74.01 28.92V28.28C74.01 27.768 73.898 27.3413 73.674 27C73.45 26.648 73.1567 26.3813 72.794 26.2C72.4313 26.008 72.0367 25.912 71.61 25.912C71.13 25.912 70.7033 26.0293 70.33 26.264C69.9673 26.488 69.6793 26.808 69.466 27.224C69.2633 27.64 69.162 28.1253 69.162 28.68C69.162 29.2347 69.2687 29.72 69.482 30.136C69.6953 30.5413 69.9833 30.856 70.346 31.08C70.7193 31.304 71.1407 31.416 71.61 31.416ZM82.8775 33.304C82.1095 33.304 81.4322 33.1813 80.8455 32.936C80.2588 32.6907 79.7628 32.36 79.3575 31.944C78.9522 31.5173 78.6428 31.0373 78.4295 30.504C78.2268 29.9707 78.1255 29.416 78.1255 28.84V28.504C78.1255 27.9067 78.2322 27.3413 78.4455 26.808C78.6695 26.264 78.9842 25.784 79.3895 25.368C79.8055 24.9413 80.3068 24.6107 80.8935 24.376C81.4802 24.1307 82.1415 24.008 82.8775 24.008C83.6135 24.008 84.2748 24.1307 84.8615 24.376C85.4482 24.6107 85.9442 24.9413 86.3495 25.368C86.7655 25.784 87.0802 26.264 87.2935 26.808C87.5068 27.3413 87.6135 27.9067 87.6135 28.504V28.84C87.6135 29.416 87.5068 29.9707 87.2935 30.504C87.0908 31.0373 86.7868 31.5173 86.3815 31.944C85.9762 32.36 85.4802 32.6907 84.8935 32.936C84.3068 33.1813 83.6348 33.304 82.8775 33.304ZM82.8775 31.4C83.4215 31.4 83.8802 31.2827 84.2535 31.048C84.6268 30.8027 84.9095 30.4773 85.1015 30.072C85.2935 29.656 85.3895 29.1867 85.3895 28.664C85.3895 28.1307 85.2882 27.6613 85.0855 27.256C84.8935 26.84 84.6055 26.5147 84.2215 26.28C83.8482 26.0347 83.4002 25.912 82.8775 25.912C82.3548 25.912 81.9015 26.0347 81.5175 26.28C81.1442 26.5147 80.8562 26.84 80.6535 27.256C80.4508 27.6613 80.3495 28.1307 80.3495 28.664C80.3495 29.1867 80.4455 29.656 80.6375 30.072C80.8402 30.4773 81.1282 30.8027 81.5015 31.048C81.8748 31.2827 82.3335 31.4 82.8775 31.4ZM93.4169 33.304C92.6595 33.304 92.0035 33.176 91.4489 32.92C90.9049 32.664 90.4462 32.3227 90.0729 31.896C89.7102 31.4693 89.4382 30.9893 89.2569 30.456C89.0755 29.9227 88.9849 29.3787 88.9849 28.824V28.52C88.9849 27.9333 89.0755 27.3733 89.2569 26.84C89.4489 26.296 89.7315 25.816 90.1049 25.4C90.4782 24.9733 90.9369 24.6373 91.4809 24.392C92.0355 24.136 92.6755 24.008 93.4009 24.008C94.1582 24.008 94.8355 24.1573 95.4329 24.456C96.0302 24.744 96.5049 25.1493 96.8569 25.672C97.2195 26.1947 97.4222 26.8027 97.4649 27.496H95.3049C95.2515 27.048 95.0595 26.6747 94.7289 26.376C94.4089 26.0773 93.9662 25.928 93.4009 25.928C92.9102 25.928 92.4995 26.0453 92.1689 26.28C91.8489 26.5147 91.6089 26.84 91.4489 27.256C91.2889 27.6613 91.2089 28.1307 91.2089 28.664C91.2089 29.176 91.2835 29.64 91.4329 30.056C91.5929 30.472 91.8329 30.7973 92.1529 31.032C92.4835 31.2667 92.9049 31.384 93.4169 31.384C93.8009 31.384 94.1315 31.3147 94.4089 31.176C94.6862 31.0373 94.9049 30.8453 95.0649 30.6C95.2355 30.3547 95.3422 30.0773 95.3849 29.768H97.5449C97.5022 30.472 97.2942 31.0907 96.9209 31.624C96.5582 32.1467 96.0729 32.5573 95.4649 32.856C94.8675 33.1547 94.1849 33.304 93.4169 33.304ZM98.8964 33V30.44H101.392V33H98.8964ZM103.545 36.2V24.312H105.305V28.056L105.033 28.04C105.076 27.1547 105.257 26.4133 105.577 25.816C105.908 25.2187 106.345 24.776 106.889 24.488C107.433 24.1893 108.041 24.04 108.713 24.04C109.332 24.04 109.887 24.152 110.377 24.376C110.879 24.6 111.305 24.9147 111.657 25.32C112.02 25.7253 112.297 26.2 112.489 26.744C112.681 27.2773 112.777 27.8533 112.777 28.472V28.808C112.777 29.4373 112.681 30.024 112.489 30.568C112.308 31.1013 112.036 31.576 111.673 31.992C111.321 32.3973 110.895 32.7173 110.393 32.952C109.892 33.176 109.332 33.288 108.713 33.288C108.063 33.288 107.465 33.1547 106.921 32.888C106.388 32.6107 105.956 32.1893 105.625 31.624C105.295 31.048 105.108 30.3067 105.065 29.4L105.769 30.472V36.2H103.545ZM108.153 31.416C108.633 31.416 109.049 31.2987 109.401 31.064C109.764 30.8293 110.047 30.504 110.249 30.088C110.452 29.6613 110.553 29.1813 110.553 28.648C110.553 28.0933 110.452 27.6133 110.249 27.208C110.047 26.8027 109.764 26.488 109.401 26.264C109.049 26.0293 108.633 25.912 108.153 25.912C107.716 25.912 107.311 26.008 106.937 26.2C106.575 26.392 106.276 26.6747 106.041 27.048C105.817 27.4213 105.705 27.8693 105.705 28.392V29.032C105.705 29.5333 105.823 29.96 106.057 30.312C106.292 30.664 106.596 30.936 106.969 31.128C107.343 31.32 107.737 31.416 108.153 31.416ZM118.333 33.288C117.725 33.288 117.165 33.176 116.653 32.952C116.141 32.728 115.698 32.4133 115.325 32.008C114.951 31.6027 114.663 31.1333 114.461 30.6C114.258 30.056 114.157 29.4693 114.157 28.84V28.504C114.157 27.8853 114.253 27.304 114.445 26.76C114.647 26.216 114.925 25.7413 115.277 25.336C115.639 24.9307 116.071 24.616 116.573 24.392C117.085 24.1573 117.65 24.04 118.269 24.04C118.951 24.04 119.549 24.1893 120.061 24.488C120.583 24.776 120.999 25.2133 121.309 25.8C121.618 26.3867 121.789 27.1227 121.821 28.008L121.165 27.24V21.32H123.389V33H121.629V29.304H122.013C121.981 30.1893 121.799 30.9307 121.469 31.528C121.138 32.1147 120.701 32.5573 120.157 32.856C119.623 33.144 119.015 33.288 118.333 33.288ZM118.829 31.416C119.266 31.416 119.666 31.32 120.029 31.128C120.391 30.9253 120.679 30.6373 120.893 30.264C121.117 29.88 121.229 29.432 121.229 28.92V28.28C121.229 27.768 121.117 27.3413 120.893 27C120.669 26.648 120.375 26.3813 120.013 26.2C119.65 26.008 119.255 25.912 118.829 25.912C118.349 25.912 117.922 26.0293 117.549 26.264C117.186 26.488 116.898 26.808 116.685 27.224C116.482 27.64 116.381 28.1253 116.381 28.68C116.381 29.2347 116.487 29.72 116.701 30.136C116.914 30.5413 117.202 30.856 117.565 31.08C117.938 31.304 118.359 31.416 118.829 31.416ZM126.128 33V24.104C126.128 23.112 126.4 22.3813 126.944 21.912C127.499 21.432 128.315 21.192 129.392 21.192H130.48V22.904H129.232C128.902 22.904 128.646 22.9947 128.464 23.176C128.294 23.3467 128.208 23.592 128.208 23.912V33H126.128ZM125.04 26.088V24.456H130.624V26.088H125.04Z" fill="#B5B3B4"/>
<path d="M70.8654 58.252C70.0814 58.252 69.4187 58.0933 68.8774 57.776C68.3361 57.4493 67.9254 57.0247 67.6454 56.502C67.3654 55.9793 67.2254 55.424 67.2254 54.836H68.5414C68.5414 55.2653 68.6347 55.648 68.8214 55.984C69.0174 56.32 69.2881 56.586 69.6334 56.782C69.9787 56.978 70.3894 57.076 70.8654 57.076C71.3321 57.076 71.7381 56.9827 72.0834 56.796C72.4381 56.6 72.7134 56.334 72.9094 55.998C73.1054 55.6527 73.2034 55.2653 73.2034 54.836C73.2034 54.4067 73.1054 54.0193 72.9094 53.674C72.7227 53.3287 72.4521 53.0533 72.0974 52.848C71.7521 52.6427 71.3414 52.54 70.8654 52.54C70.5201 52.54 70.1701 52.6007 69.8154 52.722C69.4607 52.834 69.1761 52.9973 68.9614 53.212H67.7294L68.2474 47.78H73.6094V48.928H69.0314L69.3674 48.466L68.9754 52.428L68.6114 52.302C68.8821 52.0313 69.2087 51.8167 69.5914 51.658C69.9834 51.4993 70.4267 51.42 70.9214 51.42C71.7054 51.42 72.3634 51.5833 72.8954 51.91C73.4274 52.2273 73.8287 52.6427 74.0994 53.156C74.3794 53.66 74.5194 54.1873 74.5194 54.738V54.934C74.5194 55.4847 74.3794 56.0167 74.0994 56.53C73.8194 57.034 73.4041 57.4493 72.8534 57.776C72.3121 58.0933 71.6494 58.252 70.8654 58.252ZM76.6481 58V47.78H78.4681L81.4921 54.598H81.7161L84.7261 47.78H86.5601V58H85.1881V49.278L85.2861 49.306L82.3881 55.886H80.7081L77.7961 49.306L77.9081 49.278V58H76.6481ZM90.619 58.056V56.852H93.475C94.0256 56.852 94.4503 56.698 94.749 56.39C95.057 56.0727 95.211 55.6527 95.211 55.13C95.211 54.598 95.0616 54.1827 94.763 53.884C94.4643 53.576 94.035 53.422 93.475 53.422H90.619V52.526H93.279C93.9323 52.526 94.5063 52.6053 95.001 52.764C95.505 52.9227 95.897 53.1887 96.177 53.562C96.4663 53.926 96.611 54.4253 96.611 55.06V55.256C96.611 55.8533 96.4896 56.362 96.247 56.782C96.0043 57.1927 95.6356 57.51 95.141 57.734C94.6463 57.9487 94.0256 58.056 93.279 58.056H90.619ZM89.527 58.056V47.724H90.899V58.056H89.527ZM90.619 53.17V52.274H93.097C93.6756 52.274 94.1003 52.12 94.371 51.812C94.651 51.4947 94.791 51.0933 94.791 50.608C94.791 50.1133 94.651 49.712 94.371 49.404C94.1003 49.0867 93.6756 48.928 93.097 48.928H90.619V47.724H92.859C93.979 47.724 94.8143 47.962 95.365 48.438C95.9156 48.9047 96.191 49.5813 96.191 50.468V50.664C96.191 51.2893 96.051 51.7887 95.771 52.162C95.491 52.526 95.099 52.7873 94.595 52.946C94.1003 53.0953 93.5216 53.17 92.859 53.17H90.619Z" fill="#98A2B3"/>
<path d="M208 43.5L203 38.5L204.4 37.05L207 39.65V31.5H209V39.65L211.6 37.05L213 38.5L208 43.5ZM202 47.5C201.45 47.5 200.979 47.3043 200.588 46.913C200.197 46.5217 200.001 46.0507 200 45.5V42.5H202V45.5H214V42.5H216V45.5C216 46.05 215.804 46.521 215.413 46.913C215.022 47.305 214.551 47.5007 214 47.5H202Z" fill="#908D8E"/>
</svg>
