<svg width="24" height="21" viewBox="0 0 24 21" fill="none" xmlns="http://www.w3.org/2000/svg">
<rect width="24" height="21" rx="4.66667" fill="#000080"/>
<path d="M6.0312 12.1592V10.5688H7.4984C7.78213 10.5688 8.0248 10.5128 8.2264 10.4008C8.43547 10.2888 8.596 10.132 8.708 9.9304C8.82 9.72133 8.876 9.4824 8.876 9.2136C8.876 8.92987 8.82 8.6872 8.708 8.4856C8.596 8.27653 8.43547 8.11973 8.2264 8.0152C8.0248 7.9032 7.78213 7.8472 7.4984 7.8472H6.0312V6.2568H7.4088C8.1032 6.2568 8.6968 6.37253 9.1896 6.604C9.68987 6.83547 10.0707 7.164 10.332 7.5896C10.6008 8.0152 10.7352 8.52667 10.7352 9.124V9.3032C10.7352 9.8856 10.6008 10.3933 10.332 10.8264C10.0707 11.252 9.68987 11.5805 9.1896 11.812C8.6968 12.0435 8.1032 12.1592 7.4088 12.1592H6.0312ZM4.4184 14.5V6.2568H6.2552V14.5H4.4184ZM15.6407 14.7128C14.9015 14.7128 14.2668 14.5859 13.7367 14.332C13.2066 14.0707 12.7735 13.7309 12.4375 13.3128C12.1015 12.8872 11.8514 12.4317 11.6871 11.9464C11.5303 11.4536 11.4519 10.9757 11.4519 10.5128V10.2664C11.4519 9.75867 11.534 9.2584 11.6983 8.7656C11.8626 8.26533 12.1127 7.8136 12.4487 7.4104C12.7922 7.0072 13.2215 6.68613 13.7367 6.4472C14.2594 6.2008 14.8754 6.0776 15.5847 6.0776C16.3239 6.0776 16.9772 6.21573 17.5447 6.492C18.1122 6.76827 18.5639 7.1528 18.8999 7.6456C19.2434 8.13093 19.445 8.70213 19.5047 9.3592H17.6567C17.6044 9.03067 17.485 8.75067 17.2983 8.5192C17.1116 8.28773 16.869 8.10853 16.5703 7.9816C16.2791 7.85467 15.9506 7.7912 15.5847 7.7912C15.2188 7.7912 14.894 7.85467 14.6103 7.9816C14.3266 8.10853 14.0876 8.28773 13.8935 8.5192C13.7068 8.75067 13.5612 9.02693 13.4567 9.348C13.3596 9.6616 13.3111 10.0125 13.3111 10.4008C13.3111 10.7816 13.3596 11.1325 13.4567 11.4536C13.5612 11.7672 13.7106 12.0435 13.9047 12.2824C14.1063 12.5139 14.3527 12.6931 14.6439 12.82C14.9351 12.9395 15.2674 12.9992 15.6407 12.9992C16.2082 12.9992 16.686 12.8611 17.0743 12.5848C17.47 12.3085 17.709 11.9277 17.7911 11.4424H19.6279C19.5607 12.0397 19.3591 12.5885 19.0231 13.0888C18.6946 13.5816 18.2428 13.9773 17.6679 14.276C17.1004 14.5672 16.4247 14.7128 15.6407 14.7128Z" fill="white"/>
</svg>
