<svg width="33" height="33" viewBox="0 0 33 33" fill="none" xmlns="http://www.w3.org/2000/svg">
<path d="M3.16406 16.4993C3.16406 23.8633 9.1334 29.8327 16.4974 29.8327C23.8614 29.8327 29.8307 23.8633 29.8307 16.4993C29.8307 9.13535 23.8614 3.16602 16.4974 3.16602C9.1334 3.16602 3.16406 9.13535 3.16406 16.4993ZM27.1641 16.4993C27.1641 19.3283 26.0403 22.0414 24.0399 24.0418C22.0395 26.0422 19.3264 27.166 16.4974 27.166C13.6684 27.166 10.9553 26.0422 8.95492 24.0418C6.95454 22.0414 5.83073 19.3283 5.83073 16.4993C5.83073 13.6704 6.95454 10.9573 8.95492 8.95688C10.9553 6.95649 13.6684 5.83268 16.4974 5.83268C19.3264 5.83268 22.0395 6.95649 24.0399 8.95688C26.0403 10.9573 27.1641 13.6704 27.1641 16.4993ZM16.4974 24.4993C18.6191 24.4993 20.654 23.6565 22.1543 22.1562C23.6545 20.6559 24.4974 18.6211 24.4974 16.4993C24.4974 14.3776 23.6545 12.3428 22.1543 10.8425C20.654 9.3422 18.6191 8.49935 16.4974 8.49935C14.3757 8.49935 12.3408 9.3422 10.8405 10.8425C9.34025 12.3428 8.4974 14.3776 8.4974 16.4993C8.4974 18.6211 9.34025 20.6559 10.8405 22.1562C12.3408 23.6565 14.3757 24.4993 16.4974 24.4993Z" fill="white"/>
</svg>
