<svg width="24" height="24" viewBox="0 0 24 24" fill="none" xmlns="http://www.w3.org/2000/svg">
<path d="M11.9137 1.57541C6.58875 1.57541 6.9255 3.87791 6.9255 3.87791V6.27041H11.9895V7.02041H4.90875C4.90875 7.02041 1.5 6.60041 1.5 12.0042C1.5 17.4079 4.50975 17.1882 4.50975 17.1882H6.2475V14.6674C6.2475 14.6674 6.15 11.6577 9.1725 11.6577H14.244C14.244 11.6577 17.073 11.7027 17.073 8.91866V4.35041C17.073 4.35041 17.502 1.56641 11.9415 1.56641L11.9137 1.57541ZM9.11475 3.17816C9.29478 3.17361 9.47211 3.22256 9.62432 3.31881C9.77654 3.41505 9.89679 3.55428 9.96987 3.71887C10.043 3.88346 10.0656 4.06603 10.0349 4.24348C10.0042 4.42094 9.92161 4.58531 9.79751 4.71581C9.67341 4.84631 9.51339 4.93708 9.3377 4.97663C9.16201 5.01619 8.97854 5.00275 8.81049 4.93803C8.64243 4.87331 8.49734 4.76021 8.39357 4.61302C8.2898 4.46584 8.23201 4.29119 8.2275 4.11116V4.09616C8.2275 3.85468 8.32343 3.62309 8.49418 3.45234C8.66493 3.28158 8.89652 3.18566 9.138 3.18566L9.11475 3.17816Z" fill="url(#paint0_linear_618_9646)"/>
<path d="M12.062 22.4316C17.387 22.4316 17.0503 20.1216 17.0503 20.1216V17.7366H11.987V16.9866H19.0895C19.0895 16.9866 22.4983 17.3676 22.4983 11.9954C22.4983 6.6231 19.4885 6.81135 19.4885 6.81135H17.7283V9.2991C17.7283 9.2991 17.8258 12.3089 14.8033 12.3089H9.72954C9.72954 12.3089 6.89829 12.2661 6.89829 15.0501V19.6491C6.89829 19.6491 6.46929 22.4331 12.0298 22.4331H12.0598L12.062 22.4316ZM14.861 20.8214C14.681 20.8259 14.5037 20.7769 14.3515 20.6807C14.1993 20.5845 14.079 20.4452 14.0059 20.2806C13.9328 20.1161 13.9102 19.9335 13.9409 19.756C13.9716 19.5786 14.0542 19.4142 14.1783 19.2837C14.3024 19.1532 14.4624 19.0624 14.6381 19.0229C14.8138 18.9833 14.9972 18.9968 15.1653 19.0615C15.3334 19.1262 15.4784 19.2393 15.5822 19.3865C15.686 19.5337 15.7438 19.7083 15.7483 19.8884V19.9109C15.7483 20.1523 15.6524 20.3839 15.4816 20.5547C15.3109 20.7254 15.0793 20.8214 14.8378 20.8214H14.861Z" fill="url(#paint1_linear_618_9646)"/>
<defs>
<linearGradient id="paint0_linear_618_9646" x1="3.57537" y1="3.61758" x2="13.5404" y2="13.56" gradientUnits="userSpaceOnUse">
<stop stop-color="#387EB8"/>
<stop offset="1" stop-color="#366994"/>
</linearGradient>
<linearGradient id="paint1_linear_618_9646" x1="9.46892" y1="10.093" x2="20.8541" y2="20.0325" gradientUnits="userSpaceOnUse">
<stop stop-color="#FFE052"/>
<stop offset="1" stop-color="#FFC331"/>
</linearGradient>
</defs>
</svg>
