<svg width="33" height="33" viewBox="0 0 33 33" fill="none" xmlns="http://www.w3.org/2000/svg">
<path fill-rule="evenodd" clip-rule="evenodd" d="M16.7791 4.5C13.7677 4.5 11.0244 5.49467 9.40108 6.30733C9.25441 6.38067 9.11753 6.45222 8.99041 6.522C8.73841 6.65933 8.52375 6.78733 8.35308 6.9L10.1997 9.61867L11.0691 9.96467C14.4664 11.6787 19.0224 11.6787 22.4204 9.96467L23.4071 9.45267L25.1531 6.9C24.791 6.66474 24.415 6.45168 24.0271 6.262C22.4117 5.458 19.7337 4.5 16.7797 4.5M12.4851 7.57733C11.8313 7.4543 11.1855 7.29223 10.5511 7.092C12.0717 6.41667 14.3377 5.7 16.7797 5.7C18.4711 5.7 20.0704 6.044 21.3931 6.48C19.8431 6.698 18.1891 7.068 16.6131 7.52333C15.3731 7.882 13.9237 7.84333 12.4851 7.57733ZM23.1251 10.9533L22.9611 11.036C19.2237 12.9213 14.2664 12.9213 10.5291 11.036L10.3737 10.9573C4.75841 17.118 0.471747 28.498 16.7791 28.498C33.0864 28.498 28.6957 16.9067 23.1251 10.9533ZM16.0864 16.5C15.7328 16.5 15.3937 16.6405 15.1436 16.8905C14.8936 17.1406 14.7531 17.4797 14.7531 17.8333C14.7531 18.187 14.8936 18.5261 15.1436 18.7761C15.3937 19.0262 15.7328 19.1667 16.0864 19.1667V16.5ZM17.4197 15.1667V14.5H16.0864V15.1667C15.3792 15.1667 14.7009 15.4476 14.2008 15.9477C13.7007 16.4478 13.4197 17.1261 13.4197 17.8333C13.4197 18.5406 13.7007 19.2189 14.2008 19.719C14.7009 20.219 15.3792 20.5 16.0864 20.5V23.1667C15.5064 23.1667 15.0124 22.7967 14.8284 22.278C14.8011 22.1931 14.7571 22.1146 14.6989 22.0471C14.6407 21.9795 14.5696 21.9244 14.4897 21.8848C14.4098 21.8452 14.3228 21.8221 14.2339 21.8167C14.1449 21.8113 14.0557 21.8239 13.9717 21.8536C13.8876 21.8833 13.8104 21.9295 13.7445 21.9896C13.6787 22.0497 13.6255 22.1223 13.5882 22.2033C13.551 22.2843 13.5303 22.3719 13.5274 22.461C13.5246 22.5501 13.5397 22.6388 13.5717 22.722C13.7556 23.242 14.0961 23.6923 14.5465 24.0107C14.9968 24.3291 15.5348 24.5001 16.0864 24.5V25.1667H17.4197V24.5C18.127 24.5 18.8053 24.219 19.3054 23.719C19.8055 23.2189 20.0864 22.5406 20.0864 21.8333C20.0864 21.1261 19.8055 20.4478 19.3054 19.9477C18.8053 19.4476 18.127 19.1667 17.4197 19.1667V16.5C17.9997 16.5 18.4937 16.87 18.6777 17.3887C18.705 17.4735 18.7491 17.552 18.8073 17.6196C18.8654 17.6871 18.9366 17.7423 19.0164 17.7819C19.0963 17.8215 19.1833 17.8446 19.2723 17.85C19.3613 17.8553 19.4504 17.8428 19.5345 17.8131C19.6185 17.7834 19.6958 17.7371 19.7616 17.6771C19.8275 17.617 19.8806 17.5443 19.9179 17.4634C19.9552 17.3824 19.9759 17.2948 19.9787 17.2057C19.9815 17.1166 19.9665 17.0278 19.9344 16.9447C19.7506 16.4246 19.4101 15.9744 18.9597 15.656C18.5093 15.3375 17.9713 15.1666 17.4197 15.1667ZM17.4197 20.5V23.1667C17.7734 23.1667 18.1125 23.0262 18.3626 22.7761C18.6126 22.5261 18.7531 22.187 18.7531 21.8333C18.7531 21.4797 18.6126 21.1406 18.3626 20.8905C18.1125 20.6405 17.7734 20.5 17.4197 20.5Z" fill="white"/>
</svg>
