<svg width="20" height="27" viewBox="0 0 20 27" fill="none" xmlns="http://www.w3.org/2000/svg">
<path d="M5.60103 21.0973C5.54215 19.6496 4.58471 18.289 3.29319 17.0269C1.92783 15.6936 0.99085 13.9835 0.601896 12.1152C0.212943 10.2468 0.38967 8.30496 1.10951 6.53752C1.82935 4.77008 3.05964 3.2573 4.64326 2.19234C6.22689 1.12739 8.09199 0.558594 10.0004 0.558594C11.9088 0.558594 13.7739 1.12739 15.3575 2.19234C16.9412 3.2573 18.1714 4.77008 18.8913 6.53752C19.6111 8.30496 19.7878 10.2468 19.3989 12.1152C19.0099 13.9835 18.073 15.6936 16.7076 17.0269C15.3751 18.3286 14.3972 19.7367 14.3972 21.2381V23.2797C14.3972 24.0435 14.0938 24.7761 13.5537 25.3162C13.0136 25.8563 12.281 26.1597 11.5172 26.1597H8.47976C7.71593 26.1597 6.98339 25.8563 6.44329 25.3162C5.90318 24.7761 5.59976 24.0435 5.59976 23.2797L5.60103 21.0973ZM2.32039 10.1597C2.3189 11.1839 2.52295 12.1979 2.92047 13.1418C3.31799 14.0857 3.90088 14.9402 4.63463 15.6547C5.58311 16.5815 6.56999 17.745 7.10887 19.1197H9.04039V13.1562C8.63529 13.0135 8.2674 12.7817 7.96392 12.4778L6.88103 11.3949C6.78939 11.3063 6.7163 11.2003 6.66605 11.0832C6.61579 10.966 6.58937 10.84 6.58832 10.7126C6.58727 10.5851 6.61162 10.4587 6.65995 10.3408C6.70827 10.2228 6.77961 10.1156 6.86979 10.0255C6.95996 9.93546 7.06718 9.86422 7.18519 9.81601C7.30319 9.7678 7.42961 9.74356 7.55708 9.74473C7.68455 9.7459 7.8105 9.77244 7.9276 9.82281C8.0447 9.87318 8.1506 9.94636 8.23911 10.0381L9.32199 11.1197C9.502 11.2995 9.74599 11.4004 10.0004 11.4004C10.2548 11.4004 10.4988 11.2995 10.6788 11.1197L11.7617 10.0368C11.8496 9.94249 11.9555 9.86684 12.0733 9.81437C12.1911 9.7619 12.3182 9.73369 12.4471 9.73141C12.576 9.72914 12.704 9.75285 12.8236 9.80113C12.9431 9.84942 13.0517 9.92128 13.1428 10.0124C13.234 10.1036 13.3059 10.2122 13.3542 10.3317C13.4024 10.4513 13.4261 10.5793 13.4239 10.7082C13.4216 10.8371 13.3934 10.9642 13.3409 11.082C13.2884 11.1997 13.2128 11.3057 13.1185 11.3936L12.0369 12.4765C11.7335 12.7809 11.3656 13.0131 10.9604 13.1562V19.1197H12.8919C13.4308 17.745 14.4177 16.5802 15.3662 15.6547C16.2725 14.7696 16.9458 13.6741 17.3261 12.4657C17.7065 11.2573 17.7819 9.97363 17.5459 8.72899C17.3098 7.48436 16.7695 6.31745 15.9732 5.33223C15.1768 4.34702 14.1491 3.5741 12.9816 3.08234C11.8142 2.59058 10.5432 2.39526 9.28189 2.51378C8.02063 2.63229 6.80826 3.06097 5.75283 3.76161C4.6974 4.46225 3.83167 5.41309 3.23278 6.52941C2.6339 7.64574 2.32046 8.89287 2.32039 10.1597ZM7.52103 21.3123V23.2797C7.52103 23.8096 7.94983 24.2397 8.48103 24.2397H11.5172C11.7718 24.2397 12.016 24.1385 12.196 23.9585C12.3761 23.7785 12.4772 23.5343 12.4772 23.2797V21.0397H7.51975V21.0615C7.5218 21.1451 7.52308 21.2287 7.52103 21.3123Z" fill="black"/>
</svg>
