<svg width="24" height="23" viewBox="0 0 24 23" fill="none" xmlns="http://www.w3.org/2000/svg">
<rect x="3" y="3.5" width="17" height="17" rx="8.5" fill="white"/>
<path d="M8.29091 22.5L6.21818 19.1476L2.29091 18.3095L2.67273 14.4333L0 11.5L2.67273 8.56667L2.29091 4.69048L6.21818 3.85238L8.29091 0.5L12 2.01905L15.7091 0.5L17.7818 3.85238L21.7091 4.69048L21.3273 8.56667L24 11.5L21.3273 14.4333L21.7091 18.3095L17.7818 19.1476L15.7091 22.5L12 20.981L8.29091 22.5ZM10.8545 15.219L17.0182 9.3L15.4909 7.78095L10.8545 12.2333L8.50909 10.0333L6.98182 11.5L10.8545 15.219Z" fill="#0000FF"/>
</svg>
