<svg width="40" height="41" viewBox="0 0 40 41" fill="none" xmlns="http://www.w3.org/2000/svg">
<path d="M38.0121 11.1625L34.2621 7.48127C33.7935 7.01421 33.1589 6.75195 32.4973 6.75195C31.8357 6.75195 31.201 7.01421 30.7324 7.48127L16.2496 21.786L10.5168 16.2235C10.0472 15.7579 9.41236 15.4974 8.75113 15.4988C8.08991 15.5003 7.45619 15.7636 6.98869 16.2313L3.23869 19.9813C2.77068 20.45 2.50781 21.0853 2.50781 21.7477C2.50781 22.41 2.77068 23.0453 3.23869 23.5141L14.4293 34.7641C14.6615 34.9963 14.9371 35.1805 15.2404 35.3062C15.5438 35.4318 15.8689 35.4965 16.1973 35.4965C16.5256 35.4965 16.8508 35.4318 17.1541 35.3062C17.4575 35.1805 17.7331 34.9963 17.9652 34.7641L38.0199 14.7047C38.2526 14.4719 38.437 14.1955 38.5625 13.8913C38.6881 13.5871 38.7523 13.2611 38.7516 12.932C38.7509 12.6029 38.6852 12.2772 38.5583 11.9735C38.4314 11.6699 38.2458 11.3943 38.0121 11.1625ZM16.1902 33L4.99962 21.75L8.74962 18C8.75417 18.0038 8.75836 18.008 8.76212 18.0125L15.3793 24.4328C15.6129 24.6614 15.9267 24.7894 16.2535 24.7894C16.5803 24.7894 16.8942 24.6614 17.1277 24.4328L32.509 9.25002L36.2496 12.9375L16.1902 33Z" fill="#E2E2E2"/>
</svg>
