<svg width="18" height="18" viewBox="0 0 18 18" fill="none" xmlns="http://www.w3.org/2000/svg">
<path fill-rule="evenodd" clip-rule="evenodd" d="M9.01986 0C6.76136 0 4.70386 0.746 3.48636 1.3555C3.37636 1.4105 3.27369 1.46417 3.17836 1.5165C2.98936 1.6195 2.82836 1.7155 2.70036 1.8L4.08536 3.839L4.73736 4.0985C7.28536 5.384 10.7024 5.384 13.2509 4.0985L13.9909 3.7145L15.3004 1.8C15.0288 1.62355 14.7468 1.46376 14.4559 1.3215C13.2444 0.7185 11.2359 0 9.02036 0M5.79936 2.308C5.30903 2.21572 4.82466 2.09417 4.34886 1.944C5.48936 1.4375 7.18886 0.9 9.02036 0.9C10.2889 0.9 11.4884 1.158 12.4804 1.485C11.3179 1.6485 10.0774 1.926 8.89536 2.2675C7.96536 2.5365 6.87836 2.5075 5.79936 2.308ZM13.7794 4.84L13.6564 4.902C10.8534 6.316 7.13536 6.316 4.33236 4.902L4.21586 4.843C0.00435734 9.4635 -3.21064 17.9985 9.01986 17.9985C21.2504 17.9985 17.9574 9.305 13.7794 4.84ZM8.50036 9C8.23514 9 7.98079 9.10536 7.79325 9.29289C7.60571 9.48043 7.50036 9.73478 7.50036 10C7.50036 10.2652 7.60571 10.5196 7.79325 10.7071C7.98079 10.8946 8.23514 11 8.50036 11V9ZM9.50036 8V7.5H8.50036V8C7.96992 8 7.46122 8.21071 7.08614 8.58579C6.71107 8.96086 6.50036 9.46957 6.50036 10C6.50036 10.5304 6.71107 11.0391 7.08614 11.4142C7.46122 11.7893 7.96992 12 8.50036 12V14C8.06536 14 7.69486 13.7225 7.55686 13.3335C7.53638 13.2699 7.50335 13.211 7.45972 13.1603C7.41609 13.1097 7.36274 13.0683 7.30284 13.0386C7.24293 13.0089 7.17768 12.9916 7.11095 12.9875C7.04421 12.9835 6.97735 12.9929 6.91432 13.0152C6.85128 13.0375 6.79335 13.0721 6.74395 13.1172C6.69456 13.1622 6.6547 13.2167 6.62673 13.2775C6.59876 13.3382 6.58326 13.4039 6.58113 13.4707C6.57901 13.5376 6.59031 13.6041 6.61436 13.6665C6.75221 14.0565 7.00762 14.3942 7.34539 14.633C7.68317 14.8719 8.08668 15.0001 8.50036 15V15.5H9.50036V15C10.0308 15 10.5395 14.7893 10.9146 14.4142C11.2896 14.0391 11.5004 13.5304 11.5004 13C11.5004 12.4696 11.2896 11.9609 10.9146 11.5858C10.5395 11.2107 10.0308 11 9.50036 11V9C9.93536 9 10.3059 9.2775 10.4439 9.6665C10.4643 9.73014 10.4974 9.78903 10.541 9.83969C10.5846 9.89034 10.638 9.93173 10.6979 9.96141C10.7578 9.99109 10.823 10.0084 10.8898 10.0125C10.9565 10.0165 11.0234 10.0071 11.0864 9.98481C11.1494 9.96254 11.2074 9.92786 11.2568 9.8828C11.3062 9.83775 11.346 9.78325 11.374 9.72253C11.402 9.66181 11.4175 9.59609 11.4196 9.52927C11.4217 9.46245 11.4104 9.39588 11.3864 9.3335C11.2485 8.94347 10.9931 8.60579 10.6553 8.36696C10.3175 8.12814 9.91403 7.99993 9.50036 8ZM9.50036 12V14C9.76557 14 10.0199 13.8946 10.2075 13.7071C10.395 13.5196 10.5004 13.2652 10.5004 13C10.5004 12.7348 10.395 12.4804 10.2075 12.2929C10.0199 12.1054 9.76557 12 9.50036 12Z" fill="white"/>
</svg>
