<svg width="36" height="37" viewBox="0 0 36 37" fill="none" xmlns="http://www.w3.org/2000/svg">
<rect y="0.5" width="36" height="36" rx="5" fill="#0000FF"/>
<path d="M8 9H28C28.0994 9 28.1958 9.02963 28.2773 9.08398L28.3535 9.14648C28.4473 9.24025 28.5 9.36739 28.5 9.5V17.5C28.5 17.6326 28.4473 17.7597 28.3535 17.8535C28.2597 17.9473 28.1326 18 28 18H24.5V27.5C24.5 27.6326 24.4473 27.7597 24.3535 27.8535C24.2597 27.9473 24.1326 28 24 28H12C11.8674 28 11.7403 27.9473 11.6465 27.8535C11.5527 27.7597 11.5 27.6326 11.5 27.5V18H8C7.90056 18 7.80419 17.9704 7.72266 17.916L7.64648 17.8535C7.55272 17.7597 7.5 17.6326 7.5 17.5V9.5L7.50977 9.40234C7.52255 9.33817 7.54769 9.2771 7.58398 9.22266L7.64648 9.14648C7.71689 9.07608 7.80611 9.02894 7.90234 9.00977L8 9ZM12.5 27H15.5V26.5C15.5 25.837 15.2364 25.2013 14.7676 24.7324C14.2987 24.2636 13.663 24 13 24H12.5V27ZM12.5 23H13C13.9283 23 14.8182 23.369 15.4746 24.0254C16.131 24.6818 16.5 25.5717 16.5 26.5V27H19.5V26.5C19.5 25.5717 19.869 24.6818 20.5254 24.0254C21.1818 23.369 22.0717 23 23 23H23.5V14H12.5V23ZM23 24C22.337 24 21.7013 24.2636 21.2324 24.7324C20.7636 25.2013 20.5 25.837 20.5 26.5V27H23.5V24H23ZM17.043 16.1904C17.4996 16.0013 18.0025 15.9515 18.4873 16.0479C18.9723 16.1443 19.4179 16.3828 19.7676 16.7324C20.1172 17.0821 20.3557 17.5277 20.4521 18.0127C20.5485 18.4975 20.4987 19.0004 20.3096 19.457C20.1203 19.9137 19.7997 20.3045 19.3887 20.5791C18.9776 20.8536 18.4943 21 18 21C17.337 21 16.7013 20.7364 16.2324 20.2676C15.7636 19.7987 15.5 19.163 15.5 18.5C15.5 18.0674 15.6122 17.6432 15.8242 17.2686L15.9209 17.1113C16.1955 16.7003 16.5863 16.3797 17.043 16.1904ZM18 17C17.6022 17 17.2208 17.1581 16.9395 17.4395C16.6581 17.7208 16.5 18.1022 16.5 18.5C16.5 18.7966 16.5882 19.0864 16.7529 19.333C16.9177 19.5796 17.1518 19.7722 17.4258 19.8857C17.6999 19.9993 18.002 20.0286 18.293 19.9707C18.5838 19.9128 18.8509 19.7702 19.0605 19.5605C19.2702 19.3509 19.4128 19.0838 19.4707 18.793C19.5286 18.502 19.4993 18.1999 19.3857 17.9258C19.2722 17.6518 19.0796 17.4177 18.833 17.2529C18.5864 17.0882 18.2966 17 18 17ZM8.5 17H11.5V13.5C11.5 13.3674 11.5527 13.2403 11.6465 13.1465C11.7403 13.0527 11.8674 13 12 13H24C24.1326 13 24.2597 13.0527 24.3535 13.1465C24.4473 13.2403 24.5 13.3674 24.5 13.5V17H27.5V10H8.5V17Z" stroke="white"/>
</svg>
