<svg width="36" height="37" viewBox="0 0 36 37" fill="none" xmlns="http://www.w3.org/2000/svg">
<rect y="0.5" width="36" height="36" rx="5" fill="#0000FF"/>
<path d="M18 25.5H12C11.2044 25.5 10.4413 25.1839 9.87868 24.6213C9.31607 24.0587 9 23.2956 9 22.5V14.5C9 13.7044 9.31607 12.9413 9.87868 12.3787C10.4413 11.8161 11.2044 11.5 12 11.5H24C24.7956 11.5 25.5587 11.8161 26.1213 12.3787C26.6839 12.9413 27 13.7044 27 14.5V19M9 16.5H27M13 21.5H13.01M17 21.5H19M22 25.5H28M22 25.5L25 22.5M22 25.5L25 28.5" stroke="white" stroke-width="2" stroke-linecap="round" stroke-linejoin="round"/>
</svg>
