<svg width="32" height="33" viewBox="0 0 32 33" fill="none" xmlns="http://www.w3.org/2000/svg">
<g clip-path="url(#clip0_590_7106)">
<path d="M10.6693 15.1673C12.4374 15.1673 14.1331 14.4649 15.3833 13.2147C16.6336 11.9645 17.3359 10.2688 17.3359 8.50065C17.3359 6.73254 16.6336 5.03685 15.3833 3.78661C14.1331 2.53636 12.4374 1.83398 10.6693 1.83398C8.90116 1.83398 7.20547 2.53636 5.95523 3.78661C4.70498 5.03685 4.0026 6.73254 4.0026 8.50065C4.0026 10.2688 4.70498 11.9645 5.95523 13.2147C7.20547 14.4649 8.90116 15.1673 10.6693 15.1673ZM10.6693 15.1673C13.3533 15.1673 15.6986 16.1807 17.3666 17.8647M10.6693 15.1673C5.33594 15.1673 1.33594 19.1673 1.33594 24.5007V31.1673H10.6693M30.6693 20.5007L26.6693 16.5007L18.6693 24.5007M23.3359 19.834L27.3359 23.834M13.3359 26.5007C13.3363 27.3851 13.688 28.2331 14.3136 28.8582C14.9392 29.4833 15.7875 29.8343 16.6719 29.834C17.5563 29.8336 18.4044 29.482 19.0295 28.8563C19.6546 28.2307 20.0056 27.3824 20.0053 26.498C20.0049 25.6136 19.6532 24.7655 19.0276 24.1404C18.402 23.5153 17.5537 23.1643 16.6693 23.1647C15.7849 23.165 14.9368 23.5167 14.3117 24.1423C13.6866 24.7679 13.3356 25.6162 13.3359 26.5007Z" stroke="white" stroke-width="2"/>
</g>
<defs>
<clipPath id="clip0_590_7106">
<rect width="32" height="32" fill="white" transform="translate(0 0.5)"/>
</clipPath>
</defs>
</svg>
