<svg width="32" height="33" viewBox="0 0 32 33" fill="none" xmlns="http://www.w3.org/2000/svg">
<path d="M22.6693 16.5007C18.9893 16.5007 16.0026 19.4873 16.0026 23.1673C16.0026 26.8473 18.9893 29.834 22.6693 29.834C26.3493 29.834 29.3359 26.8473 29.3359 23.1673C29.3359 19.4873 26.3493 16.5007 22.6693 16.5007ZM24.8693 26.3007L22.0026 23.434V19.1673H23.3359V22.8873L25.8026 25.354L24.8693 26.3007ZM24.0026 4.50065H19.7626C19.2026 2.95398 17.7359 1.83398 16.0026 1.83398C14.2693 1.83398 12.8026 2.95398 12.2426 4.50065H8.0026C6.53594 4.50065 5.33594 5.70065 5.33594 7.16732V27.1673C5.33594 28.634 6.53594 29.834 8.0026 29.834H16.1493C15.3594 29.0692 14.7176 28.1651 14.2559 27.1673H8.0026V7.16732H10.6693V11.1673H21.3359V7.16732H24.0026V13.9407C24.9493 14.074 25.8426 14.354 26.6693 14.7407V7.16732C26.6693 5.70065 25.4693 4.50065 24.0026 4.50065ZM16.0026 7.16732C15.2693 7.16732 14.6693 6.56732 14.6693 5.83398C14.6693 5.10065 15.2693 4.50065 16.0026 4.50065C16.7359 4.50065 17.3359 5.10065 17.3359 5.83398C17.3359 6.56732 16.7359 7.16732 16.0026 7.16732Z" fill="white"/>
</svg>
