<svg width="33" height="33" viewBox="0 0 33 33" fill="none" xmlns="http://www.w3.org/2000/svg">
<path d="M29.316 20.5C30.116 20.5 30.916 21.3 30.916 22.2333V26.9C30.916 27.7 30.116 28.5 29.1827 28.5H21.8493C21.0494 28.5 20.2493 27.7 20.2493 26.7667V22.1C20.2493 21.3 21.0494 20.5 21.8493 20.5V18.5C21.8493 16.6333 23.716 15.1667 25.5827 15.1667C27.4494 15.1667 29.316 16.6333 29.316 18.5V20.5ZM27.5827 20.5V18.5C27.5827 17.4333 26.6493 16.7667 25.5827 16.7667C24.516 16.7667 23.5827 17.4333 23.5827 18.5V20.5H27.5827ZM2.91602 8.5H26.916V12.6333L25.5827 12.5C24.4893 12.5 23.4627 12.7667 22.556 13.22C21.956 12.74 21.5827 11.9933 21.5827 11.1667H8.24935C8.24935 12.6467 7.06268 13.8333 5.58268 13.8333V19.1667C6.28993 19.1667 6.9682 19.4476 7.4683 19.9477C7.9684 20.4478 8.24935 21.1261 8.24935 21.8333H17.636L17.5827 22.5V24.5H2.91602V8.5ZM14.916 12.5C17.1293 12.5 18.916 14.2867 18.916 16.5C18.916 18.7133 17.1293 20.5 14.916 20.5C12.7027 20.5 10.916 18.7133 10.916 16.5C10.916 14.2867 12.7027 12.5 14.916 12.5Z" fill="white"/>
</svg>
