<svg width="696" height="306" viewBox="0 0 696 306" fill="none" xmlns="http://www.w3.org/2000/svg">
<path d="M20.1543 202.584L26.8533 149.654L129.83 24.3122L165.889 54.9786L77.7614 162.387L81.2721 169.436L216.537 186.555L211.444 226.794L20.1543 202.584ZM133.22 260.922L153.826 98.1092L200.565 104.025L179.959 266.838L133.22 260.922Z" fill="white"/>
<g clip-path="url(#clip0_349_5575)">
<path fill-rule="evenodd" clip-rule="evenodd" d="M269.496 152.623C269.496 132.069 277.661 112.356 292.195 97.8223C306.729 83.2882 326.441 75.123 346.996 75.123C367.55 75.123 387.262 83.2882 401.796 97.8223C416.33 112.356 424.496 132.069 424.496 152.623C424.496 173.177 416.33 192.89 401.796 207.424C387.262 221.958 367.55 230.123 346.996 230.123C326.441 230.123 306.729 221.958 292.195 207.424C277.661 192.89 269.496 173.177 269.496 152.623ZM310.829 137.123H321.162V126.79H310.829V137.123ZM372.829 137.123H383.162V126.79H372.829V137.123ZM320.129 181.556C323.257 177.385 327.313 174 331.977 171.669C336.64 169.337 341.782 168.123 346.996 168.123C352.209 168.123 357.351 169.337 362.015 171.669C366.678 174 370.734 177.385 373.862 181.556L382.129 175.356C364.562 151.931 329.429 151.931 311.862 175.356L320.129 181.556Z" fill="#2B2BFF"/>
</g>
<path d="M487.568 226.864L480.532 173.978L548.098 26.4998L590.791 46.9443L533.004 173.292L538.198 179.211L673.351 161.231L678.7 201.437L487.568 226.864ZM611.781 254.404L590.139 91.7255L636.839 85.5127L658.481 248.191L611.781 254.404Z" fill="white"/>
<defs>
<clipPath id="clip0_349_5575">
<rect width="155" height="155" fill="white" transform="translate(269.496 75.123)"/>
</clipPath>
</defs>
</svg>
