<svg width="29" height="26" viewBox="0 0 29 26" fill="none" xmlns="http://www.w3.org/2000/svg">
<path d="M10.9202 0.468975C12.2554 -0.0651791 13.745 -0.0651791 15.0802 0.468975L24.2914 4.15537C25.2034 4.51857 25.8002 5.40177 25.8002 6.38257V15.757C25.5352 15.7187 25.2679 15.6994 25.0002 15.6994H18.6002C17.5455 15.6991 16.5121 15.9967 15.6191 16.558C14.7261 17.1192 14.0098 17.9212 13.5525 18.8716C13.0953 19.8221 12.9157 20.8823 13.0345 21.9303C13.1534 22.9783 13.5658 23.9714 14.2242 24.7954C13.1213 25.0423 11.9695 24.9497 10.9202 24.5298L1.709 20.845C1.26354 20.6668 0.881706 20.3593 0.612763 19.962C0.34382 19.5647 0.200115 19.0959 0.200195 18.6162V6.38257C0.200435 5.90309 0.344289 5.43467 0.613211 5.03771C0.882134 4.64074 1.2638 4.33342 1.709 4.15537L10.9202 0.468975ZM6.125 6.16977C5.93107 6.08363 5.71087 6.07805 5.51283 6.15427C5.31479 6.23048 5.15514 6.38225 5.069 6.57617C4.98285 6.7701 4.97728 6.9903 5.05349 7.18834C5.1297 7.38638 5.28147 7.54603 5.47539 7.63217L12.2002 10.6194V18.101C12.2002 18.3131 12.2845 18.5166 12.4345 18.6667C12.5845 18.8167 12.788 18.901 13.0002 18.901C13.2124 18.901 13.4159 18.8167 13.5659 18.6667C13.7159 18.5166 13.8002 18.3131 13.8002 18.101V10.6194L20.525 7.63057C20.621 7.58792 20.7077 7.52677 20.7801 7.45062C20.8525 7.37447 20.9092 7.2848 20.9469 7.18674C20.9846 7.08868 21.0027 6.98415 21 6.87912C20.9974 6.77408 20.974 6.6706 20.9314 6.57457C20.8887 6.47855 20.8276 6.39187 20.7514 6.31948C20.6753 6.24709 20.5856 6.19041 20.4876 6.15267C20.3895 6.11493 20.285 6.09688 20.1799 6.09954C20.0749 6.1022 19.9714 6.12552 19.8754 6.16817L13.0002 9.22417L6.125 6.16977ZM18.6002 17.301C17.5393 17.301 16.5219 17.7224 15.7718 18.4725C15.0216 19.2227 14.6002 20.2401 14.6002 21.301C14.6002 22.3618 15.0216 23.3793 15.7718 24.1294C16.5219 24.8795 17.5393 25.301 18.6002 25.301H19.4002C19.6124 25.301 19.8159 25.2167 19.9659 25.0667C20.1159 24.9166 20.2002 24.7131 20.2002 24.501C20.2002 24.2888 20.1159 24.0853 19.9659 23.9353C19.8159 23.7853 19.6124 23.701 19.4002 23.701H18.6002C17.9637 23.701 17.3532 23.4481 16.9031 22.998C16.4531 22.5479 16.2002 21.9375 16.2002 21.301C16.2002 20.6645 16.4531 20.054 16.9031 19.6039C17.3532 19.1538 17.9637 18.901 18.6002 18.901H19.4002C19.6124 18.901 19.8159 18.8167 19.9659 18.6667C20.1159 18.5166 20.2002 18.3131 20.2002 18.101C20.2002 17.8888 20.1159 17.6853 19.9659 17.5353C19.8159 17.3853 19.6124 17.301 19.4002 17.301H18.6002ZM24.2002 17.301C23.988 17.301 23.7845 17.3853 23.6345 17.5353C23.4845 17.6853 23.4002 17.8888 23.4002 18.101C23.4002 18.3131 23.4845 18.5166 23.6345 18.6667C23.7845 18.8167 23.988 18.901 24.2002 18.901H25.0002C25.6367 18.901 26.2472 19.1538 26.6972 19.6039C27.1473 20.054 27.4002 20.6645 27.4002 21.301C27.4002 21.9375 27.1473 22.5479 26.6972 22.998C26.2472 23.4481 25.6367 23.701 25.0002 23.701H24.2002C23.988 23.701 23.7845 23.7853 23.6345 23.9353C23.4845 24.0853 23.4002 24.2888 23.4002 24.501C23.4002 24.7131 23.4845 24.9166 23.6345 25.0667C23.7845 25.2167 23.988 25.301 24.2002 25.301H25.0002C26.0611 25.301 27.0785 24.8795 27.8286 24.1294C28.5788 23.3793 29.0002 22.3618 29.0002 21.301C29.0002 20.2401 28.5788 19.2227 27.8286 18.4725C27.0785 17.7224 26.0611 17.301 25.0002 17.301H24.2002ZM17.8002 21.301C17.8002 21.0888 17.8845 20.8853 18.0345 20.7353C18.1845 20.5853 18.388 20.501 18.6002 20.501H25.0002C25.2124 20.501 25.4159 20.5853 25.5659 20.7353C25.7159 20.8853 25.8002 21.0888 25.8002 21.301C25.8002 21.5131 25.7159 21.7166 25.5659 21.8667C25.4159 22.0167 25.2124 22.101 25.0002 22.101H18.6002C18.388 22.101 18.1845 22.0167 18.0345 21.8667C17.8845 21.7166 17.8002 21.5131 17.8002 21.301Z" fill="white"/>
</svg>
