<svg width="33" height="33" viewBox="0 0 33 33" fill="none" xmlns="http://www.w3.org/2000/svg">
<path d="M16.7474 18.366L20.6141 22.2327C20.8585 22.4771 21.1696 22.5993 21.5474 22.5993C21.9252 22.5993 22.2363 22.4771 22.4807 22.2327C22.7252 21.9882 22.8474 21.6771 22.8474 21.2994C22.8474 20.9216 22.7252 20.6105 22.4807 20.366L18.6141 16.4993L22.4807 12.6327C22.7252 12.3882 22.8474 12.0771 22.8474 11.6993C22.8474 11.3216 22.7252 11.0105 22.4807 10.766C22.2363 10.5216 21.9252 10.3993 21.5474 10.3993C21.1696 10.3993 20.8585 10.5216 20.6141 10.766L16.7474 14.6327L12.8807 10.766C12.6363 10.5216 12.3252 10.3993 11.9474 10.3993C11.5696 10.3993 11.2585 10.5216 11.0141 10.766C10.7696 11.0105 10.6474 11.3216 10.6474 11.6993C10.6474 12.0771 10.7696 12.3882 11.0141 12.6327L14.8807 16.4993L11.0141 20.366C10.7696 20.6105 10.6474 20.9216 10.6474 21.2994C10.6474 21.6771 10.7696 21.9882 11.0141 22.2327C11.2585 22.4771 11.5696 22.5993 11.9474 22.5993C12.3252 22.5993 12.6363 22.4771 12.8807 22.2327L16.7474 18.366ZM16.7474 29.8327C14.903 29.8327 13.1696 29.4825 11.5474 28.782C9.92518 28.0816 8.51406 27.1318 7.31406 25.9327C6.11406 24.7336 5.16429 23.3225 4.46473 21.6993C3.76518 20.0762 3.41495 18.3429 3.41406 16.4993C3.41318 14.6558 3.7634 12.9225 4.46473 11.2993C5.16606 9.67624 6.11584 8.26513 7.31406 7.06602C8.51229 5.8669 9.9234 4.91713 11.5474 4.21668C13.1714 3.51624 14.9047 3.16602 16.7474 3.16602C18.5901 3.16602 20.3234 3.51624 21.9474 4.21668C23.5714 4.91713 24.9825 5.8669 26.1807 7.06602C27.379 8.26513 28.3292 9.67624 29.0314 11.2993C29.7336 12.9225 30.0834 14.6558 30.0807 16.4993C30.0781 18.3429 29.7278 20.0762 29.0301 21.6993C28.3323 23.3225 27.3825 24.7336 26.1807 25.9327C24.979 27.1318 23.5678 28.082 21.9474 28.7833C20.327 29.4847 18.5936 29.8345 16.7474 29.8327Z" fill="white"/>
</svg>
