<svg width="33" height="33" viewBox="0 0 33 33" fill="none" xmlns="http://www.w3.org/2000/svg">
<path d="M23.1693 16.5007C19.4893 16.5007 16.5026 19.4873 16.5026 23.1673C16.5026 26.8473 19.4893 29.834 23.1693 29.834C26.8493 29.834 29.8359 26.8473 29.8359 23.1673C29.8359 19.4873 26.8493 16.5007 23.1693 16.5007ZM25.3693 26.3007L22.5026 23.434V19.1673H23.8359V22.8873L26.3026 25.354L25.3693 26.3007ZM24.5026 4.50065H20.2626C19.7026 2.95398 18.2359 1.83398 16.5026 1.83398C14.7693 1.83398 13.3026 2.95398 12.7426 4.50065H8.5026C7.03594 4.50065 5.83594 5.70065 5.83594 7.16732V27.1673C5.83594 28.634 7.03594 29.834 8.5026 29.834H16.6493C15.8594 29.0692 15.2176 28.1651 14.7559 27.1673H8.5026V7.16732H11.1693V11.1673H21.8359V7.16732H24.5026V13.9407C25.4493 14.074 26.3426 14.354 27.1693 14.7407V7.16732C27.1693 5.70065 25.9693 4.50065 24.5026 4.50065ZM16.5026 7.16732C15.7693 7.16732 15.1693 6.56732 15.1693 5.83398C15.1693 5.10065 15.7693 4.50065 16.5026 4.50065C17.2359 4.50065 17.8359 5.10065 17.8359 5.83398C17.8359 6.56732 17.2359 7.16732 16.5026 7.16732Z" fill="white"/>
</svg>
