<svg width="33" height="33" viewBox="0 0 33 33" fill="none" xmlns="http://www.w3.org/2000/svg">
<path d="M21.75 10.25V8.75C21.75 8.6125 21.6375 8.5 21.5 8.5H9.5C9.3625 8.5 9.25 8.6125 9.25 8.75V10.25C9.25 10.3875 9.3625 10.5 9.5 10.5H21.5C21.6375 10.5 21.75 10.3875 21.75 10.25ZM9.5 13C9.3625 13 9.25 13.1125 9.25 13.25V14.75C9.25 14.8875 9.3625 15 9.5 15H15.25C15.3875 15 15.5 14.8875 15.5 14.75V13.25C15.5 13.1125 15.3875 13 15.25 13H9.5ZM21.25 16.625C17.5219 16.625 14.5 19.6469 14.5 23.375C14.5 27.1031 17.5219 30.125 21.25 30.125C24.9781 30.125 28 27.1031 28 23.375C28 19.6469 24.9781 16.625 21.25 16.625ZM24.6094 26.7344C23.7125 27.6313 22.5187 28.125 21.25 28.125C19.9812 28.125 18.7875 27.6313 17.8906 26.7344C16.9937 25.8375 16.5 24.6437 16.5 23.375C16.5 22.1063 16.9937 20.9125 17.8906 20.0156C18.7875 19.1187 19.9812 18.625 21.25 18.625C22.5187 18.625 23.7125 19.1187 24.6094 20.0156C25.5063 20.9125 26 22.1063 26 23.375C26 24.6437 25.5063 25.8375 24.6094 26.7344ZM24.0312 21H22.6469C22.5656 21 22.4906 21.0375 22.4438 21.1031L20.4594 23.8469L19.7375 22.85C19.7144 22.8178 19.6839 22.7916 19.6485 22.7737C19.6132 22.7557 19.574 22.7465 19.5344 22.7469H18.1562C17.9531 22.7469 17.8344 22.9781 17.9531 23.1437L20.2594 26.3344C20.3594 26.4719 20.5625 26.4719 20.6625 26.3344L24.2313 21.3969C24.3531 21.2313 24.2344 21 24.0312 21ZM14 27.125H6.75V5.125H24.25V15.875C24.25 16.0125 24.3625 16.125 24.5 16.125H26.25C26.3875 16.125 26.5 16.0125 26.5 15.875V3.875C26.5 3.32187 26.0531 2.875 25.5 2.875H5.5C4.94687 2.875 4.5 3.32187 4.5 3.875V28.375C4.5 28.9281 4.94687 29.375 5.5 29.375H14C14.1375 29.375 14.25 29.2625 14.25 29.125V27.375C14.25 27.2375 14.1375 27.125 14 27.125Z" fill="white"/>
</svg>
