<svg width="32" height="33" viewBox="0 0 32 33" fill="none" xmlns="http://www.w3.org/2000/svg">
<path d="M20.6641 17H23.4971V20.833C23.4971 21.4904 23.7257 22.1248 24.1387 22.6289L24.3271 22.8369C24.8585 23.3683 25.5796 23.667 26.3311 23.667H30.1641V29.167C30.164 29.5647 30.0058 29.9463 29.7246 30.2275C29.4433 30.5087 29.0618 30.667 28.6641 30.667H20.6641C20.2663 30.667 19.8848 30.5087 19.6035 30.2275C19.3223 29.9463 19.1641 29.5647 19.1641 29.167V18.5C19.1641 18.152 19.2853 17.8167 19.5039 17.5498L19.6035 17.4395C19.8848 17.1581 20.2662 17 20.6641 17ZM6.99707 5H10.8359C11.4157 5.00027 11.9744 5.20216 12.4189 5.56641L12.6025 5.73242L15.0596 8.1875L15.2061 8.33301H24.999C25.9516 8.33341 26.8675 8.68878 27.5703 9.3252L27.708 9.45605C28.4266 10.1749 28.8311 11.1505 28.8311 12.167V17.4072L27.8311 16.4072V12.167C27.8311 11.5096 27.6024 10.8752 27.1895 10.3711L27.001 10.1631C26.4696 9.63173 25.7485 9.33301 24.9971 9.33301H15.2031L15.0566 9.47949L12.6035 11.9346C12.4294 12.1086 12.2309 12.2555 12.0146 12.3711L11.793 12.4766C11.4897 12.6022 11.1642 12.667 10.8359 12.667H4.16406V24.167C4.16424 25.7309 5.43319 26.9998 6.99707 27H16.8311V28H6.99707C6.04423 27.9999 5.12787 27.6452 4.4248 27.0088L4.28711 26.877C3.5683 26.1581 3.16415 25.1835 3.16406 24.167V8.83301C3.16414 7.88017 3.51884 6.9638 4.15527 6.26074L4.28711 6.12305C4.96114 5.44902 5.86005 5.05182 6.80762 5.00488L6.99707 5ZM29.457 21.333H26.3311C26.2316 21.333 26.1352 21.3033 26.0537 21.249L25.9775 21.1865C25.8838 21.0928 25.8311 20.9656 25.8311 20.833V17.707L29.457 21.333ZM6.99707 6C6.24574 6.00009 5.52542 6.2988 4.99414 6.83008C4.46286 7.36135 4.16415 8.08168 4.16406 8.83301V11.667H10.8369C11.1847 11.6666 11.5196 11.5448 11.7861 11.3262L11.8965 11.2266L14.29 8.83301L11.8965 6.43945H11.8955C11.6496 6.19363 11.3274 6.04209 10.9844 6.00781L10.8369 6H6.99707Z" fill="white" stroke="white"/>
</svg>
