<svg width="33" height="33" viewBox="0 0 33 33" fill="none" xmlns="http://www.w3.org/2000/svg">
<path d="M25.0244 11.666H28.3965L28.6025 11.6709C29.0483 11.6979 29.4702 11.8856 29.7871 12.1992C30.0647 12.474 30.2463 12.8292 30.3086 13.2119L30.3281 13.3779C30.332 13.4378 30.332 13.5066 30.332 13.5889V18.7432C30.332 18.8257 30.332 18.8951 30.3281 18.9551C30.3005 19.3447 30.1502 19.7142 29.9004 20.0107L29.7871 20.1328C29.5095 20.4075 29.1528 20.5862 28.7695 20.6445L28.6035 20.6621L28.3965 20.666H25.0244C22.5247 20.666 20.4082 18.6998 20.4082 16.166C20.4083 13.6323 22.5235 11.666 25.0244 11.666ZM24.7295 14.333C23.7254 14.333 22.9445 15.1717 22.9443 16.166C22.9443 17.1604 23.7253 18 24.7295 18C25.7327 18 26.5137 17.1601 26.5137 16.166C26.5136 15.1721 25.7326 14.333 24.7295 14.333Z" fill="white" stroke="white"/>
<path fill-rule="evenodd" clip-rule="evenodd" d="M28.39 23.1667C28.4361 23.1648 28.482 23.1739 28.5239 23.1931C28.5659 23.2123 28.6027 23.2411 28.6314 23.2772C28.6601 23.3133 28.6799 23.3557 28.6892 23.4009C28.6984 23.4461 28.6969 23.4928 28.6847 23.5373C28.418 24.4867 27.9927 25.2973 27.3113 25.9773C26.3127 26.9773 25.0473 27.4187 23.4847 27.6293C21.9647 27.8333 20.0247 27.8333 17.574 27.8333H14.758C12.3073 27.8333 10.366 27.8333 8.84735 27.6293C7.28468 27.4187 6.01935 26.976 5.02068 25.9787C4.02335 24.98 3.58068 23.7147 3.37002 22.152C3.16602 20.632 3.16602 18.692 3.16602 16.2413V16.092C3.16602 13.6413 3.16602 11.7 3.37002 10.18C3.58068 8.61733 4.02335 7.352 5.02068 6.35333C6.01935 5.356 7.28468 4.91333 8.84735 4.70267C10.3673 4.5 12.3073 4.5 14.758 4.5H17.574C20.0247 4.5 21.966 4.5 23.4847 4.704C25.0473 4.91467 26.3127 5.35733 27.3113 6.35467C27.9927 7.03733 28.418 7.84667 28.6847 8.796C28.6969 8.84049 28.6984 8.88723 28.6892 8.93243C28.6799 8.97762 28.6601 9.02 28.6314 9.05611C28.6027 9.09222 28.5659 9.12105 28.5239 9.14026C28.482 9.15947 28.4361 9.16852 28.39 9.16667H25.0247C21.242 9.16667 17.9087 12.1533 17.9087 16.1667C17.9087 20.18 21.242 23.1667 25.0247 23.1667H28.39ZM8.16602 9.83333C7.9008 9.83333 7.64645 9.93869 7.45891 10.1262C7.27137 10.3138 7.16602 10.5681 7.16602 10.8333C7.16602 11.0985 7.27137 11.3529 7.45891 11.5404C7.64645 11.728 7.9008 11.8333 8.16602 11.8333H13.4993C13.7646 11.8333 14.0189 11.728 14.2065 11.5404C14.394 11.3529 14.4993 11.0985 14.4993 10.8333C14.4993 10.5681 14.394 10.3138 14.2065 10.1262C14.0189 9.93869 13.7646 9.83333 13.4993 9.83333H8.16602Z" fill="white"/>
</svg>
