<svg width="323" height="150" viewBox="0 0 323 150" fill="none" xmlns="http://www.w3.org/2000/svg">
<path d="M1 21C1 9.9543 9.95431 1 21 1H323V149H21C9.9543 149 1 140.046 1 129V21Z" fill="white" fill-opacity="0.1"/>
<path d="M0.5 21C0.5 9.67816 9.67816 0.5 21 0.5H323V1.5H21C10.2304 1.5 1.5 10.2304 1.5 21H0.5ZM323 149.5H21C9.67816 149.5 0.5 140.322 0.5 129H1.5C1.5 139.77 10.2304 148.5 21 148.5H323V149.5ZM21 149.5C9.67816 149.5 0.5 140.322 0.5 129V21C0.5 9.67816 9.67816 0.5 21 0.5V1.5C10.2304 1.5 1.5 10.2304 1.5 21V129C1.5 139.77 10.2304 148.5 21 148.5V149.5ZM323 1V149V1Z" fill="#A1A1A1"/>
<path fill-rule="evenodd" clip-rule="evenodd" d="M58.75 75C58.75 78.4472 59.429 81.8606 60.7482 85.0454C62.0673 88.2302 64.0009 91.124 66.4384 93.5616C68.876 95.9991 71.7698 97.9327 74.9546 99.2518C78.1394 100.571 81.5528 101.25 85 101.25C88.4472 101.25 91.8606 100.571 95.0454 99.2518C98.2302 97.9327 101.124 95.9991 103.562 93.5616C105.999 91.124 107.933 88.2302 109.252 85.0454C110.571 81.8606 111.25 78.4472 111.25 75C111.25 68.0381 108.484 61.3613 103.562 56.4384C98.6387 51.5156 91.9619 48.75 85 48.75C78.0381 48.75 71.3613 51.5156 66.4384 56.4384C61.5156 61.3613 58.75 68.0381 58.75 75Z" fill="#0C0C4F"/>
<path fill-rule="evenodd" clip-rule="evenodd" d="M73.4179 68.8167L74.0654 66.8158C74.131 66.616 74.2437 66.4348 74.3939 66.2876C74.5442 66.1404 74.7276 66.0315 74.9287 65.97L76.9413 65.3487C77.0021 65.33 77.0553 65.2923 77.0931 65.2411C77.131 65.19 77.1514 65.128 77.1514 65.0644C77.1514 65.0007 77.131 64.9388 77.0931 64.8876C77.0553 64.8364 77.0021 64.7987 76.9413 64.78L74.9404 64.1325C74.7409 64.0672 74.5599 63.9549 74.4128 63.8052C74.2656 63.6555 74.1565 63.4727 74.0946 63.2721L73.4733 61.2596C73.3888 60.9825 72.995 60.9796 72.9075 61.2567L72.26 63.2575C72.1948 63.4579 72.0823 63.6396 71.932 63.7873C71.7818 63.9351 71.5981 64.0445 71.3967 64.1062L69.3842 64.7246C69.3232 64.743 69.2698 64.7804 69.2317 64.8314C69.1936 64.8824 69.1729 64.9442 69.1726 65.0079C69.1723 65.0715 69.1924 65.1336 69.2299 65.185C69.2675 65.2363 69.3205 65.2743 69.3812 65.2933L71.3821 65.9408C71.583 66.0056 71.7653 66.1179 71.9136 66.2682C72.0619 66.4185 72.1717 66.6024 72.2337 66.8042L72.8492 68.8137C72.9367 69.0908 73.3275 69.0937 73.4179 68.8167Z" fill="#FAFAFA"/>
<path fill-rule="evenodd" clip-rule="evenodd" d="M105.215 67.6529C104.387 66.7254 103.092 66.2033 101.832 65.9904C100.556 65.7888 99.2546 65.8006 97.9821 66.0254C95.4504 66.4542 93.1492 67.5042 91.1396 68.7963C90.0983 69.4321 89.2087 70.1671 88.2871 70.9167C87.8437 71.2958 87.4412 71.6983 87.0183 72.095L85.8662 73.2413C84.7052 74.4687 83.4784 75.6323 82.1912 76.7267C80.9925 77.7096 79.8725 78.4563 78.7671 78.9754C77.6646 79.5004 76.4833 79.8096 74.9462 79.8592C73.4208 79.9117 71.6154 79.6375 69.6875 79.1825C67.7479 78.7304 65.7092 78.0858 63.4312 77.5317C64.2286 79.7114 65.4254 81.7233 66.9604 83.4642C68.5121 85.2142 70.4546 86.8067 72.9454 87.8567C75.6053 88.9815 78.5404 89.2862 81.3746 88.7317C84.2708 88.1746 86.8112 86.8358 88.8646 85.2871C90.8028 83.7954 92.5279 82.0457 93.9921 80.0867C94.38 79.5733 94.5842 79.2875 94.8642 78.8879L95.64 77.7388C96.1767 77.0271 96.6696 76.2221 97.2004 75.5163C98.2475 74.0433 99.2771 72.5704 100.476 71.2142C101.077 70.5258 101.712 69.8696 102.462 69.2367C102.838 68.9275 103.244 68.6242 103.69 68.3529C104.145 68.0613 104.623 67.8279 105.215 67.6529Z" fill="url(#paint0_linear_184_576)"/>
<path fill-rule="evenodd" clip-rule="evenodd" d="M105.215 67.6501C104.326 65.4042 102.669 63.5113 100.447 62.1142C97.954 60.602 94.9873 60.0727 92.1254 60.6296C90.6233 60.9213 89.1679 61.4813 87.8904 62.2251C86.6559 62.9482 85.5148 63.82 84.4925 64.8209C84.0127 65.2977 83.5515 65.793 83.11 66.3055L81.9579 67.7726L80.1787 70.1351C77.9154 73.1742 75.4742 76.7355 71.4696 77.7913C67.5379 78.8267 65.8317 77.908 63.4312 77.5288C63.8687 78.6634 64.4142 79.763 65.1521 80.7313C65.8754 81.7171 66.7271 82.6446 67.7917 83.4409C68.3283 83.8201 68.8942 84.1992 69.5242 84.5201C70.1483 84.8263 70.825 85.1005 71.5454 85.3046C73.0457 85.7181 74.6136 85.8271 76.1567 85.6255C77.6771 85.4129 79.1522 84.9518 80.5229 84.2605C81.7686 83.634 82.9389 82.8679 84.0112 81.9767C85.8955 80.3876 87.5617 78.5566 88.9667 76.5313C89.6356 75.5844 90.2519 74.6277 90.8158 73.6613L91.4779 72.518C91.6821 72.1796 91.8882 71.851 92.0962 71.5321C92.9392 70.2721 93.7617 69.263 94.7621 68.5017C95.7508 67.7259 97.1246 67.1513 98.9592 67.0142C100.788 66.8801 102.897 67.1309 105.215 67.653" fill="#FAFAFA"/>
<path fill-rule="evenodd" clip-rule="evenodd" d="M95.3279 86.3312C95.3154 86.7319 95.3835 87.1309 95.5282 87.5048C95.6729 87.8786 95.8912 88.2195 96.1702 88.5074C96.4491 88.7952 96.7831 89.024 97.1522 89.1803C97.5214 89.3366 97.9181 89.4171 98.319 89.4171C98.7198 89.4171 99.1166 89.3366 99.4857 89.1803C99.8548 89.024 100.189 88.7952 100.468 88.5074C100.747 88.2195 100.965 87.8786 101.11 87.5048C101.254 87.1309 101.323 86.7319 101.31 86.3312C101.286 85.5541 100.96 84.817 100.402 84.2758C99.8434 83.7347 99.0964 83.4321 98.319 83.4321C97.5415 83.4321 96.7945 83.7347 96.2362 84.2758C95.6779 84.817 95.3522 85.5541 95.3279 86.3312Z" fill="#EC796B"/>
<path d="M179 71.375H150L159.969 60.5M150 78.625H179L169.031 89.5" stroke="white" stroke-width="2" stroke-linecap="round" stroke-linejoin="round"/>
<path d="M219.833 59.4271C219.833 57.811 220.475 56.261 221.618 55.1182C222.761 53.9754 224.311 53.3334 225.927 53.3334H257.073C257.873 53.3334 258.666 53.491 259.405 53.7972C260.144 54.1035 260.816 54.5523 261.382 55.1182C261.948 55.684 262.397 56.3558 262.703 57.0951C263.009 57.8345 263.167 58.6269 263.167 59.4271V70.4961C261.14 69.533 258.838 69.3199 256.67 69.8945C254.501 70.4692 252.606 71.7944 251.323 73.6345C250.039 75.4746 249.45 77.7103 249.66 79.944C249.87 82.1776 250.865 84.2645 252.469 85.8334H225.927C224.311 85.8334 222.761 85.1914 221.618 84.0486C220.475 82.9058 219.833 81.3558 219.833 79.7396V59.4271ZM244.208 93.3409C244.208 92.0977 244.509 90.9277 245.042 89.8959H216.448C215.909 89.8959 215.393 90.1099 215.012 90.4908C214.631 90.8717 214.417 91.3884 214.417 91.9271C214.417 92.4658 214.631 92.9825 215.012 93.3634C215.393 93.7444 215.909 93.9584 216.448 93.9584H244.214L244.208 93.6198V93.3409ZM265.875 79.0625C265.875 80.8583 265.162 82.5805 263.892 83.8502C262.622 85.12 260.9 85.8334 259.104 85.8334C257.308 85.8334 255.586 85.12 254.316 83.8502C253.047 82.5805 252.333 80.8583 252.333 79.0625C252.333 77.2668 253.047 75.5446 254.316 74.2748C255.586 73.0051 257.308 72.2917 259.104 72.2917C260.9 72.2917 262.622 73.0051 263.892 74.2748C265.162 75.5446 265.875 77.2668 265.875 79.0625ZM271.292 93.6198C271.292 97.834 267.809 102.083 259.104 102.083C250.4 102.083 246.917 97.8502 246.917 93.6198V93.3409C246.917 90.6867 249.067 88.5417 251.719 88.5417H266.49C269.144 88.5417 271.292 90.6894 271.292 93.3409V93.6198Z" fill="white"/>
<defs>
<linearGradient id="paint0_linear_184_576" x1="110.967" y1="51.06" x2="10.3129" y2="80.0808" gradientUnits="userSpaceOnUse">
<stop stop-color="#EC796B"/>
<stop offset="1" stop-color="#D672EF"/>
</linearGradient>
</defs>
</svg>
