<svg width="24" height="24" viewBox="0 0 24 24" fill="none" xmlns="http://www.w3.org/2000/svg">
<path fill-rule="evenodd" clip-rule="evenodd" d="M3 12C3 13.1819 3.23279 14.3522 3.68508 15.4442C4.13738 16.5361 4.80031 17.5282 5.63604 18.364C6.47177 19.1997 7.46392 19.8626 8.55585 20.3149C9.64778 20.7672 10.8181 21 12 21C13.1819 21 14.3522 20.7672 15.4442 20.3149C16.5361 19.8626 17.5282 19.1997 18.364 18.364C19.1997 17.5282 19.8626 16.5361 20.3149 15.4442C20.7672 14.3522 21 13.1819 21 12C21 9.61305 20.0518 7.32387 18.364 5.63604C16.6761 3.94821 14.3869 3 12 3C9.61305 3 7.32387 3.94821 5.63604 5.63604C3.94821 7.32387 3 9.61305 3 12Z" fill="#0C0C4F"/>
<path fill-rule="evenodd" clip-rule="evenodd" d="M8.02976 9.87955L8.25176 9.19355C8.27425 9.12503 8.31288 9.06292 8.36439 9.01245C8.41591 8.96198 8.4788 8.92463 8.54776 8.90355L9.23776 8.69055C9.25862 8.68414 9.27687 8.67121 9.28984 8.65366C9.3028 8.63611 9.3098 8.61487 9.3098 8.59305C9.3098 8.57123 9.3028 8.54999 9.28984 8.53244C9.27687 8.51489 9.25862 8.50196 9.23776 8.49555L8.55176 8.27355C8.48335 8.25116 8.42132 8.21268 8.37085 8.16135C8.32039 8.11002 8.28298 8.04733 8.26176 7.97855L8.04876 7.28855C8.01976 7.19355 7.88476 7.19255 7.85476 7.28755L7.63276 7.97355C7.61041 8.04225 7.57184 8.10456 7.52032 8.15522C7.4688 8.20587 7.40584 8.24337 7.33676 8.26455L6.64676 8.47655C6.62587 8.48285 6.60755 8.49569 6.59449 8.51317C6.58144 8.53065 6.57433 8.55186 6.57422 8.57368C6.57411 8.5955 6.581 8.61678 6.59387 8.6344C6.60675 8.65201 6.62494 8.66503 6.64576 8.67155L7.33176 8.89355C7.40065 8.91577 7.46316 8.95427 7.514 9.0058C7.56483 9.05733 7.60248 9.12036 7.62376 9.18955L7.83476 9.87855C7.86476 9.97355 7.99876 9.97455 8.02976 9.87955Z" fill="#FAFAFA"/>
<path fill-rule="evenodd" clip-rule="evenodd" d="M18.9315 9.48032C18.6475 9.16232 18.2035 8.98332 17.7715 8.91032C17.3338 8.84119 16.8878 8.84525 16.4515 8.92232C15.5835 9.06932 14.7945 9.42932 14.1055 9.87232C13.7485 10.0903 13.4435 10.3423 13.1275 10.5993C12.9755 10.7293 12.8375 10.8673 12.6925 11.0033L12.2975 11.3963C11.8994 11.8172 11.4788 12.2161 11.0375 12.5913C10.6265 12.9283 10.2425 13.1843 9.86347 13.3623C9.48547 13.5423 9.08047 13.6483 8.55347 13.6653C8.03047 13.6833 7.41147 13.5893 6.75047 13.4333C6.08547 13.2783 5.38647 13.0573 4.60547 12.8673C4.87884 13.6146 5.28919 14.3044 5.81547 14.9013C6.34747 15.5013 7.01347 16.0473 7.86747 16.4073C8.77941 16.793 9.78576 16.8974 10.7575 16.7073C11.7505 16.5163 12.6215 16.0573 13.3255 15.5263C13.99 15.0149 14.5815 14.415 15.0835 13.7433C15.2165 13.5673 15.2865 13.4693 15.3825 13.3323L15.6485 12.9383C15.8325 12.6943 16.0015 12.4183 16.1835 12.1763C16.5425 11.6713 16.8955 11.1663 17.3065 10.7013C17.5125 10.4653 17.7305 10.2403 17.9875 10.0233C18.1165 9.91732 18.2555 9.81332 18.4085 9.72032C18.5645 9.62032 18.7285 9.54032 18.9315 9.48032Z" fill="url(#paint0_linear_376_9710)"/>
<path fill-rule="evenodd" clip-rule="evenodd" d="M18.9315 9.47908C18.6265 8.70908 18.0585 8.06008 17.2965 7.58108C16.4418 7.0626 15.4247 6.88113 14.4435 7.07208C13.9285 7.17208 13.4295 7.36408 12.9915 7.61908C12.5682 7.86701 12.177 8.16591 11.8265 8.50908C11.662 8.67258 11.5039 8.84237 11.3525 9.01808L10.9575 9.52108L10.3475 10.3311C9.57147 11.3731 8.73447 12.5941 7.36147 12.9561C6.01347 13.3111 5.42847 12.9961 4.60547 12.8661C4.75547 13.2551 4.94247 13.6321 5.19547 13.9641C5.44347 14.3021 5.73547 14.6201 6.10047 14.8931C6.28447 15.0231 6.47847 15.1531 6.69447 15.2631C6.90847 15.3681 7.14047 15.4621 7.38747 15.5321C7.90186 15.6738 8.43941 15.7112 8.96847 15.6421C9.48975 15.5692 9.9955 15.4111 10.4655 15.1741C10.8926 14.9593 11.2938 14.6966 11.6615 14.3911C12.3075 13.8462 12.8788 13.2185 13.3605 12.5241C13.5898 12.1994 13.8011 11.8714 13.9945 11.5401L14.2215 11.1481C14.2915 11.0321 14.3621 10.9194 14.4335 10.8101C14.7225 10.3781 15.0045 10.0321 15.3475 9.77108C15.6865 9.50508 16.1575 9.30808 16.7865 9.26108C17.4135 9.21508 18.1365 9.30108 18.9315 9.48008" fill="#FAFAFA"/>
<path fill-rule="evenodd" clip-rule="evenodd" d="M15.5415 15.8846C15.5372 16.022 15.5606 16.1588 15.6102 16.287C15.6598 16.4151 15.7346 16.532 15.8303 16.6307C15.9259 16.7294 16.0404 16.8078 16.167 16.8614C16.2936 16.915 16.4296 16.9426 16.567 16.9426C16.7044 16.9426 16.8405 16.915 16.967 16.8614C17.0936 16.8078 17.2081 16.7294 17.3037 16.6307C17.3994 16.532 17.4742 16.4151 17.5238 16.287C17.5735 16.1588 17.5968 16.022 17.5925 15.8846C17.5842 15.6182 17.4725 15.3654 17.2811 15.1799C17.0897 14.9944 16.8336 14.8906 16.567 14.8906C16.3004 14.8906 16.0443 14.9944 15.8529 15.1799C15.6615 15.3654 15.5498 15.6182 15.5415 15.8846Z" fill="#EC796B"/>
<defs>
<linearGradient id="paint0_linear_376_9710" x1="20.9035" y1="3.79132" x2="-13.6065" y2="13.7413" gradientUnits="userSpaceOnUse">
<stop stop-color="#EC796B"/>
<stop offset="1" stop-color="#D672EF"/>
</linearGradient>
</defs>
</svg>
