<svg width="32" height="33" viewBox="0 0 32 33" fill="none" xmlns="http://www.w3.org/2000/svg">
<path d="M29.334 3.16602H2.66732C2.3137 3.16602 1.97456 3.30649 1.72451 3.55654C1.47446 3.80659 1.33398 4.14573 1.33398 4.49935V15.166C1.33398 15.5196 1.47446 15.8588 1.72451 16.1088C1.97456 16.3589 2.3137 16.4993 2.66732 16.4993H6.66732V28.4993C6.66732 28.853 6.80779 29.1921 7.05784 29.4422C7.30789 29.6922 7.64703 29.8327 8.00065 29.8327H24.0007C24.3543 29.8327 24.6934 29.6922 24.9435 29.4422C25.1935 29.1921 25.334 28.853 25.334 28.4993V16.4993H29.334C29.6876 16.4993 30.0267 16.3589 30.2768 16.1088C30.5268 15.8588 30.6673 15.5196 30.6673 15.166V4.49935C30.6673 4.14573 30.5268 3.80659 30.2768 3.55654C30.0267 3.30649 29.6876 3.16602 29.334 3.16602ZM9.33398 27.166V24.4993C10.0412 24.4993 10.7195 24.7803 11.2196 25.2804C11.7197 25.7805 12.0007 26.4588 12.0007 27.166H9.33398ZM22.6673 27.166H20.0007C20.0007 26.4588 20.2816 25.7805 20.7817 25.2804C21.2818 24.7803 21.9601 24.4993 22.6673 24.4993V27.166ZM22.6673 21.8327C21.2528 21.8327 19.8963 22.3946 18.8961 23.3948C17.8959 24.395 17.334 25.7515 17.334 27.166H14.6673C14.6673 25.7515 14.1054 24.395 13.1052 23.3948C12.105 22.3946 10.7485 21.8327 9.33398 21.8327V11.166H22.6673V21.8327ZM28.0006 13.8327H25.334V9.83268C25.334 9.47906 25.1935 9.13992 24.9435 8.88987C24.6934 8.63983 24.3543 8.49935 24.0007 8.49935H8.00065C7.64703 8.49935 7.30789 8.63983 7.05784 8.88987C6.80779 9.13992 6.66732 9.47906 6.66732 9.83268V13.8327H4.00065V5.83268H28.0006V13.8327ZM16.0007 20.4993C16.7918 20.4993 17.5651 20.2648 18.2229 19.8252C18.8807 19.3857 19.3934 18.761 19.6962 18.0301C19.9989 17.2992 20.0781 16.4949 19.9238 15.719C19.7695 14.9431 19.3885 14.2303 18.8291 13.6709C18.2697 13.1115 17.5569 12.7305 16.781 12.5762C16.0051 12.4219 15.2008 12.5011 14.4699 12.8038C13.739 13.1066 13.1143 13.6193 12.6748 14.2771C12.2352 14.9349 12.0007 15.7082 12.0007 16.4993C12.0007 17.5602 12.4221 18.5776 13.1722 19.3278C13.9224 20.0779 14.9398 20.4993 16.0007 20.4993ZM16.0007 15.166C16.2644 15.166 16.5221 15.2442 16.7414 15.3907C16.9607 15.5372 17.1316 15.7455 17.2325 15.9891C17.3334 16.2327 17.3598 16.5008 17.3084 16.7595C17.2569 17.0181 17.1299 17.2557 16.9435 17.4422C16.757 17.6286 16.5194 17.7556 16.2608 17.8071C16.0021 17.8585 15.734 17.8321 15.4904 17.7312C15.2468 17.6303 15.0385 17.4594 14.892 17.2401C14.7455 17.0208 14.6673 16.7631 14.6673 16.4993C14.6673 16.1457 14.8078 15.8066 15.0578 15.5565C15.3079 15.3065 15.647 15.166 16.0007 15.166Z" fill="white"/>
</svg>
