<svg width="33" height="32" viewBox="0 0 33 32" fill="none" xmlns="http://www.w3.org/2000/svg">
<g clip-path="url(#clip0_590_7090)">
<path d="M14.6759 18.8007C15.7017 16.5483 17.5801 14.7956 19.8979 13.928C22.2158 13.0603 24.7833 13.1488 27.0359 14.174C29.2883 15.1997 31.041 17.0781 31.9086 19.396C32.7763 21.7138 32.6878 24.2814 31.6626 26.534C30.9233 28.1661 29.7287 29.5501 28.2221 30.5198C26.7155 31.4895 24.961 32.0037 23.1693 32.0007C19.5693 32.0007 16.2759 29.9207 14.7293 26.6673H1.83594V24.0007C1.91594 22.4807 2.95594 21.2407 4.95594 20.2407C6.95594 19.2407 9.4626 18.7207 12.5026 18.6673C13.2626 18.6673 13.9826 18.734 14.6759 18.8007ZM12.5026 5.33398C13.9959 5.37398 15.2493 5.89398 16.2493 6.89398C17.2493 7.89398 17.7426 9.14732 17.7426 10.6673C17.7426 12.1873 17.2493 13.4407 16.2493 14.4407C15.2493 15.4407 13.9959 15.934 12.5026 15.934C11.0093 15.934 9.75594 15.4407 8.75594 14.4407C7.75594 13.4407 7.2626 12.1873 7.2626 10.6673C7.2626 9.14732 7.75594 7.89398 8.75594 6.89398C9.75594 5.89398 11.0093 5.37398 12.5026 5.33398ZM23.1693 29.334C24.9374 29.334 26.6331 28.6316 27.8833 27.3814C29.1336 26.1311 29.8359 24.4354 29.8359 22.6673C29.8359 20.8992 29.1336 19.2035 27.8833 17.9533C26.6331 16.703 24.9374 16.0007 23.1693 16.0007C21.4012 16.0007 19.7055 16.703 18.4552 17.9533C17.205 19.2035 16.5026 20.8992 16.5026 22.6673C16.5026 24.4354 17.205 26.1311 18.4552 27.3814C19.7055 28.6316 21.4012 29.334 23.1693 29.334ZM21.8359 18.6673H23.8359V22.4273L27.0893 24.3073L26.0893 26.0407L21.8359 23.5873V18.6673Z" fill="white"/>
</g>
<defs>
<clipPath id="clip0_590_7090">
<rect width="32" height="32" fill="white" transform="translate(0.5)"/>
</clipPath>
</defs>
</svg>
