<svg width="363" height="318" viewBox="0 0 363 318" fill="none" xmlns="http://www.w3.org/2000/svg">
<path d="M182 19L303.244 89V229L182 299L60.7564 229V89L182 19Z" stroke="#777777"/>
<path d="M166.271 33.8594C166.271 34.9948 165.952 35.9688 165.312 36.7812C164.673 37.5938 163.903 38 163.003 38H149.9C148.999 38 148.23 37.5938 147.59 36.7812C146.951 35.9688 146.631 34.9948 146.631 33.8594C146.631 32.974 146.675 32.138 146.762 31.3516C146.849 30.5651 147.01 29.7734 147.245 28.9766C147.48 28.1797 147.78 27.4974 148.143 26.9297C148.506 26.362 148.987 25.8984 149.585 25.5391C150.183 25.1797 150.871 25 151.649 25C152.989 26.3333 154.59 27 156.451 27C158.313 27 159.914 26.3333 161.254 25C162.031 25 162.719 25.1797 163.318 25.5391C163.916 25.8984 164.397 26.362 164.76 26.9297C165.123 27.4974 165.422 28.1797 165.657 28.9766C165.893 29.7734 166.054 30.5651 166.141 31.3516C166.228 32.138 166.271 32.974 166.271 33.8594ZM162.343 20C162.343 21.6562 161.768 23.0703 160.617 24.2422C159.466 25.4141 158.078 26 156.451 26C154.825 26 153.436 25.4141 152.286 24.2422C151.135 23.0703 150.559 21.6562 150.559 20C150.559 18.3438 151.135 16.9297 152.286 15.7578C153.436 14.5859 154.825 14 156.451 14C158.078 14 159.466 14.5859 160.617 15.7578C161.768 16.9297 162.343 18.3438 162.343 20Z" fill="white"/>
<g clip-path="url(#clip0_184_697)">
<path d="M62.3213 130C63.3822 130 64.3996 129.579 65.1497 128.828C65.8999 128.078 66.3213 127.061 66.3213 126C66.3213 124.939 65.8999 123.922 65.1497 123.172C64.3996 122.421 63.3822 122 62.3213 122C61.2604 122 60.243 122.421 59.4929 123.172C58.7427 123.922 58.3213 124.939 58.3213 126C58.3213 127.061 58.7427 128.078 59.4929 128.828C60.243 129.579 61.2604 130 62.3213 130ZM60.8932 131.5C57.815 131.5 55.3213 133.994 55.3213 137.072C55.3213 137.584 55.7369 138 56.2494 138H65.4088C65.3119 137.725 65.2932 137.425 65.365 137.131L65.8338 135.253C65.9213 134.9 66.1025 134.581 66.3588 134.325L67.6182 133.066C66.615 132.097 65.2525 131.5 63.7463 131.5H60.89H60.8932ZM74.5025 129.366C74.015 128.878 73.2244 128.878 72.7338 129.366L71.815 130.284L74.0338 132.503L74.9525 131.584C75.44 131.097 75.44 130.306 74.9525 129.816L74.5025 129.366ZM67.0682 135.031C66.94 135.159 66.8494 135.319 66.8057 135.497L66.3369 137.375C66.2932 137.547 66.3432 137.725 66.4682 137.85C66.5932 137.975 66.7713 138.025 66.9432 137.981L68.8213 137.512C68.9963 137.469 69.1588 137.378 69.2869 137.25L73.3244 133.209L71.1057 130.991L67.0682 135.031Z" fill="white"/>
</g>
<path d="M300.321 122C300.321 119.79 302.111 118 304.321 118C306.531 118 308.321 119.79 308.321 122C308.321 124.21 306.531 126 304.321 126C302.111 126 300.321 124.21 300.321 122ZM306.321 132.2C306.321 131.24 306.821 130.34 307.521 129.74V129.5C307.521 129.11 307.591 128.74 307.701 128.38C306.671 128.14 305.531 128 304.321 128C299.901 128 296.321 129.79 296.321 132V134H306.321V132.2ZM316.321 132.3V135.8C316.321 136.4 315.721 137 315.021 137H309.521C308.921 137 308.321 136.4 308.321 135.7V132.2C308.321 131.6 308.921 131 309.521 131V129.5C309.521 128.1 310.921 127 312.321 127C313.721 127 315.121 128.1 315.121 129.5V131C315.721 131 316.321 131.6 316.321 132.3ZM313.821 129.5C313.821 128.7 313.121 128.2 312.321 128.2C311.521 128.2 310.821 128.7 310.821 129.5V131H313.821V129.5Z" fill="white"/>
<path fill-rule="evenodd" clip-rule="evenodd" d="M259.571 243.5C259.571 243.434 259.545 243.37 259.498 243.323C259.451 243.276 259.388 243.25 259.321 243.25H252.321C251.592 243.25 250.892 243.54 250.377 244.055C249.861 244.571 249.571 245.271 249.571 246V260C249.571 260.729 249.861 261.429 250.377 261.945C250.892 262.46 251.592 262.75 252.321 262.75H262.321C263.051 262.75 263.75 262.46 264.266 261.945C264.782 261.429 265.071 260.729 265.071 260V250.147C265.071 250.081 265.045 250.017 264.998 249.97C264.951 249.923 264.888 249.897 264.821 249.897H260.321C260.122 249.897 259.932 249.818 259.791 249.677C259.65 249.537 259.571 249.346 259.571 249.147V243.5ZM257.321 251C256.791 251 256.282 251.211 255.907 251.586C255.532 251.961 255.321 252.47 255.321 253C255.321 253.53 255.532 254.039 255.907 254.414C256.282 254.789 256.791 255 257.321 255C257.852 255 258.36 254.789 258.736 254.414C259.111 254.039 259.321 253.53 259.321 253C259.321 252.47 259.111 251.961 258.736 251.586C258.36 251.211 257.852 251 257.321 251ZM253.321 259.5C253.321 258.704 253.637 257.941 254.2 257.379C254.763 256.816 255.526 256.5 256.321 256.5H258.321C259.117 256.5 259.88 256.816 260.443 257.379C261.005 257.941 261.321 258.704 261.321 259.5C261.321 259.765 261.216 260.02 261.028 260.207C260.841 260.395 260.587 260.5 260.321 260.5H254.321C254.056 260.5 253.802 260.395 253.614 260.207C253.427 260.02 253.321 259.765 253.321 259.5Z" fill="white"/>
<path d="M261.071 243.824C261.071 243.64 261.264 243.523 261.407 243.638C261.529 243.736 261.636 243.85 261.73 243.98L264.743 248.177C264.811 248.273 264.737 248.397 264.619 248.397H261.321C261.255 248.397 261.191 248.371 261.145 248.324C261.098 248.277 261.071 248.213 261.071 248.147V243.824Z" fill="white"/>
<path d="M107.321 245C107.321 246.061 106.9 247.078 106.15 247.828C105.4 248.579 104.382 249 103.321 249C102.26 249 101.243 248.579 100.493 247.828C99.7427 247.078 99.3213 246.061 99.3213 245C99.3213 243.939 99.7427 242.922 100.493 242.172C101.243 241.421 102.26 241 103.321 241C104.382 241 105.4 241.421 106.15 242.172C106.9 242.922 107.321 243.939 107.321 245ZM106.999 252.503C106.526 252.508 106.085 252.526 105.701 252.577C105.058 252.664 104.354 252.87 103.773 253.452C103.191 254.033 102.985 254.737 102.899 255.38C102.821 255.958 102.821 256.664 102.821 257.414V257.586C102.821 258.336 102.821 259.042 102.899 259.62C102.959 260.071 103.079 260.552 103.346 261H103.321C95.3213 261 95.3213 258.985 95.3213 256.5C95.3213 254.015 98.9033 252 103.321 252C104.647 252 105.898 252.181 106.999 252.503Z" fill="white"/>
<path fill-rule="evenodd" clip-rule="evenodd" d="M107.821 261C106.171 261 105.346 261 104.834 260.487C104.321 259.975 104.321 259.15 104.321 257.5C104.321 255.85 104.321 255.025 104.834 254.513C105.346 254 106.171 254 107.821 254C109.471 254 110.296 254 110.808 254.513C111.321 255.025 111.321 255.85 111.321 257.5C111.321 259.15 111.321 259.975 110.808 260.487C110.296 261 109.471 261 107.821 261ZM109.789 256.746C109.899 256.637 109.96 256.488 109.96 256.333C109.96 256.179 109.899 256.03 109.789 255.921C109.68 255.812 109.532 255.75 109.377 255.75C109.222 255.75 109.074 255.812 108.964 255.921L107.044 257.841L106.678 257.476C106.624 257.422 106.56 257.379 106.489 257.35C106.418 257.32 106.342 257.305 106.266 257.305C106.189 257.305 106.113 257.32 106.043 257.35C105.972 257.379 105.907 257.422 105.853 257.476C105.799 257.53 105.756 257.594 105.727 257.665C105.698 257.736 105.682 257.812 105.682 257.889C105.682 257.965 105.698 258.041 105.727 258.112C105.756 258.183 105.799 258.247 105.853 258.301L106.631 259.079C106.685 259.133 106.75 259.176 106.821 259.206C106.891 259.235 106.967 259.25 107.044 259.25C107.12 259.25 107.196 259.235 107.267 259.206C107.338 259.176 107.402 259.133 107.456 259.079L109.789 256.746Z" fill="white"/>
<path fill-rule="evenodd" clip-rule="evenodd" d="M181.5 116.507L217.875 137.508V179.511L181.5 200.512L145.125 179.511V137.508L181.5 116.507ZM153.208 146.375V174.844L177.458 188.844V160.376L153.208 146.375ZM209.792 146.375L185.542 160.376V188.844L209.792 174.844V146.375ZM181.5 125.841L157.654 139.609L181.5 153.376L205.346 139.608L181.5 125.841Z" fill="white"/>
<defs>
<clipPath id="clip0_184_697">
<rect width="20" height="16" fill="white" transform="translate(55.3213 122)"/>
</clipPath>
</defs>
</svg>
