<svg width="29" height="28" viewBox="0 0 29 28" fill="none" xmlns="http://www.w3.org/2000/svg">
<path d="M18.6641 13H21.4971V16.833C21.4971 17.4904 21.7257 18.1248 22.1387 18.6289L22.3271 18.8369C22.8585 19.3683 23.5796 19.667 24.3311 19.667H28.1641V25.167C28.164 25.5647 28.0058 25.9463 27.7246 26.2275C27.4433 26.5087 27.0618 26.667 26.6641 26.667H18.6641C18.2663 26.667 17.8848 26.5087 17.6035 26.2275C17.3223 25.9463 17.1641 25.5647 17.1641 25.167V14.5C17.1641 14.152 17.2853 13.8167 17.5039 13.5498L17.6035 13.4395C17.8848 13.1581 18.2662 13 18.6641 13ZM4.99707 1H8.83594C9.41569 1.00027 9.97439 1.20216 10.4189 1.56641L10.6025 1.73242L13.0596 4.1875L13.2061 4.33301H22.999C23.9516 4.33341 24.8675 4.68878 25.5703 5.3252L25.708 5.45605C26.4266 6.17491 26.8311 7.15053 26.8311 8.16699V13.4072L25.8311 12.4072V8.16699C25.8311 7.50957 25.6024 6.87524 25.1895 6.37109L25.001 6.16309C24.4696 5.63173 23.7485 5.33301 22.9971 5.33301H13.2031L13.0566 5.47949L10.6035 7.93457C10.4294 8.10859 10.2309 8.25547 10.0146 8.37109L9.79297 8.47656C9.48965 8.6022 9.16424 8.667 8.83594 8.66699H2.16406V20.167C2.16424 21.7309 3.43319 22.9998 4.99707 23H14.8311V24H4.99707C4.04423 23.9999 3.12787 23.6452 2.4248 23.0088L2.28711 22.877C1.5683 22.1581 1.16415 21.1835 1.16406 20.167V4.83301C1.16414 3.88017 1.51884 2.9638 2.15527 2.26074L2.28711 2.12305C2.96114 1.44902 3.86005 1.05182 4.80762 1.00488L4.99707 1ZM27.457 17.333H24.3311C24.2316 17.333 24.1352 17.3033 24.0537 17.249L23.9775 17.1865C23.8838 17.0928 23.8311 16.9656 23.8311 16.833V13.707L27.457 17.333ZM4.99707 2C4.24574 2.00009 3.52542 2.2988 2.99414 2.83008C2.46286 3.36135 2.16415 4.08168 2.16406 4.83301V7.66699H8.83691C9.18467 7.66659 9.51958 7.54479 9.78613 7.32617L9.89648 7.22656L12.29 4.83301L9.89648 2.43945H9.89551C9.64963 2.19363 9.32737 2.04209 8.98438 2.00781L8.83691 2H4.99707Z" fill="white" stroke="white"/>
</svg>
