<svg width="28" height="27" viewBox="0 0 28 27" fill="none" xmlns="http://www.w3.org/2000/svg">
<path d="M13.9974 15.366L17.8641 19.2327C18.1085 19.4771 18.4196 19.5993 18.7974 19.5993C19.1752 19.5993 19.4863 19.4771 19.7307 19.2327C19.9752 18.9882 20.0974 18.6771 20.0974 18.2994C20.0974 17.9216 19.9752 17.6105 19.7307 17.366L15.8641 13.4993L19.7307 9.63268C19.9752 9.38824 20.0974 9.07713 20.0974 8.69935C20.0974 8.32157 19.9752 8.01046 19.7307 7.76602C19.4863 7.52157 19.1752 7.39935 18.7974 7.39935C18.4196 7.39935 18.1085 7.52157 17.8641 7.76602L13.9974 11.6327L10.1307 7.76602C9.88629 7.52157 9.57518 7.39935 9.1974 7.39935C8.81962 7.39935 8.50851 7.52157 8.26406 7.76602C8.01962 8.01046 7.8974 8.32157 7.8974 8.69935C7.8974 9.07713 8.01962 9.38824 8.26406 9.63268L12.1307 13.4993L8.26406 17.366C8.01962 17.6105 7.8974 17.9216 7.8974 18.2994C7.8974 18.6771 8.01962 18.9882 8.26406 19.2327C8.50851 19.4771 8.81962 19.5993 9.1974 19.5993C9.57518 19.5993 9.88629 19.4771 10.1307 19.2327L13.9974 15.366ZM13.9974 26.8327C12.153 26.8327 10.4196 26.4825 8.7974 25.782C7.17518 25.0816 5.76406 24.1318 4.56406 22.9327C3.36406 21.7336 2.41429 20.3225 1.71473 18.6993C1.01518 17.0762 0.664953 15.3429 0.664064 13.4993C0.663175 11.6558 1.0134 9.92246 1.71473 8.29935C2.41606 6.67624 3.36584 5.26513 4.56406 4.06602C5.76229 2.8669 7.1734 1.91713 8.7974 1.21668C10.4214 0.516238 12.1547 0.166016 13.9974 0.166016C15.8401 0.166016 17.5734 0.516238 19.1974 1.21668C20.8214 1.91713 22.2325 2.8669 23.4307 4.06602C24.629 5.26513 25.5792 6.67624 26.2814 8.29935C26.9836 9.92246 27.3334 11.6558 27.3307 13.4993C27.3281 15.3429 26.9778 17.0762 26.2801 18.6993C25.5823 20.3225 24.6325 21.7336 23.4307 22.9327C22.229 24.1318 20.8178 25.082 19.1974 25.7833C17.577 26.4847 15.8436 26.8345 13.9974 26.8327Z" fill="white"/>
</svg>
