<svg width="18" height="18" viewBox="0 0 18 18" fill="none" xmlns="http://www.w3.org/2000/svg">
<path d="M14 1C14 0.447715 14.4477 0 15 0C15.5523 0 16 0.447715 16 1V4.2C16 4.75229 15.5523 5.2 15 5.2H11.8884C11.3362 5.2 10.8884 4.75229 10.8884 4.2C10.8884 3.64772 11.3362 3.2 11.8884 3.2H12.5735C11.4881 2.44066 10.181 2 8.77746 2C5.06078 2 2 5.10723 2 9C2 9.55229 1.55229 10 1 10C0.447716 10 0 9.55229 0 9C0 4.05622 3.9034 0 8.77746 0C10.7372 0 12.5433 0.658518 14 1.76587V1Z" fill="#0000FF"/>
<path d="M4 17C4 17.5523 3.55228 18 3 18C2.44772 18 2 17.5523 2 17V13.8C2 13.2477 2.44772 12.8 3 12.8H6.11155C6.66384 12.8 7.11155 13.2477 7.11155 13.8C7.11155 14.3523 6.66384 14.8 6.11155 14.8H5.42654C6.5119 15.5593 7.81903 16 9.22254 16C12.9392 16 16 12.8928 16 9C16 8.44771 16.4477 8 17 8C17.5523 8 18 8.44771 18 9C18 13.9438 14.0966 18 9.22254 18C7.26278 18 5.45674 17.3415 4 16.2341V17Z" fill="#0000FF"/>
</svg>
