<svg width="18" height="19" viewBox="0 0 18 19" fill="none" xmlns="http://www.w3.org/2000/svg">
<path d="M11.977 9.66436L14.3923 7.24982H6.1875C5.29239 7.24982 4.43395 7.6054 3.80101 8.23834C3.16808 8.87127 2.8125 9.72972 2.8125 10.6248C2.8125 11.5199 3.16808 12.3784 3.80101 13.0113C4.43395 13.6442 5.29239 13.9998 6.1875 13.9998H12.375C12.5242 13.9998 12.6673 14.0591 12.7727 14.1646C12.8782 14.2701 12.9375 14.4131 12.9375 14.5623C12.9375 14.7115 12.8782 14.8546 12.7727 14.9601C12.6673 15.0656 12.5242 15.1248 12.375 15.1248H6.1875C4.99403 15.1248 3.84943 14.6507 3.00552 13.8068C2.16161 12.9629 1.6875 11.8183 1.6875 10.6248C1.6875 9.43135 2.16161 8.28676 3.00552 7.44284C3.84943 6.59893 4.99403 6.12482 6.1875 6.12482H14.3923L11.977 3.71029C11.9248 3.65803 11.8833 3.59599 11.855 3.5277C11.8267 3.45942 11.8122 3.38623 11.8122 3.31232C11.8122 3.23841 11.8267 3.16523 11.855 3.09695C11.8833 3.02866 11.9248 2.96662 11.977 2.91436C12.0293 2.86209 12.0913 2.82064 12.1596 2.79235C12.2279 2.76407 12.3011 2.74951 12.375 2.74951C12.4489 2.74951 12.5221 2.76407 12.5904 2.79235C12.6587 2.82064 12.7207 2.86209 12.773 2.91436L16.148 6.28936C16.2003 6.3416 16.2418 6.40363 16.2701 6.47192C16.2984 6.54021 16.3129 6.6134 16.3129 6.68732C16.3129 6.76125 16.2984 6.83444 16.2701 6.90273C16.2418 6.97101 16.2003 7.03305 16.148 7.08529L12.773 10.4603C12.6674 10.5658 12.5243 10.6251 12.375 10.6251C12.2257 10.6251 12.0826 10.5658 11.977 10.4603C11.8715 10.3547 11.8122 10.2116 11.8122 10.0623C11.8122 9.91306 11.8715 9.7699 11.977 9.66436Z" fill="#6C6C6C"/>
</svg>
