<svg width="18" height="19" viewBox="0 0 18 19" fill="none" xmlns="http://www.w3.org/2000/svg">
<path d="M16.3129 10.6248C16.3116 11.8179 15.8371 12.9617 14.9935 13.8054C14.1499 14.649 13.006 15.1235 11.8129 15.1248H5.62544C5.47626 15.1248 5.33318 15.0656 5.22769 14.9601C5.12221 14.8546 5.06294 14.7115 5.06294 14.5623C5.06294 14.4131 5.12221 14.2701 5.22769 14.1646C5.33318 14.0591 5.47626 13.9998 5.62544 13.9998H11.8129C12.708 13.9998 13.5665 13.6442 14.1994 13.0113C14.8324 12.3784 15.1879 11.5199 15.1879 10.6248C15.1879 9.72972 14.8324 8.87127 14.1994 8.23834C13.5665 7.6054 12.708 7.24982 11.8129 7.24982H3.60818L6.02341 9.66436C6.12896 9.7699 6.18826 9.91306 6.18826 10.0623C6.18826 10.2116 6.12896 10.3547 6.02341 10.4603C5.91786 10.5658 5.77471 10.6251 5.62544 10.6251C5.47618 10.6251 5.33302 10.5658 5.22747 10.4603L1.85247 7.08529C1.80017 7.03305 1.75868 6.97101 1.73038 6.90273C1.70207 6.83444 1.6875 6.76125 1.6875 6.68732C1.6875 6.6134 1.70207 6.54021 1.73038 6.47192C1.75868 6.40363 1.80017 6.3416 1.85247 6.28936L5.22747 2.91436C5.33302 2.80881 5.47618 2.74951 5.62544 2.74951C5.77471 2.74951 5.91786 2.80881 6.02341 2.91436C6.12896 3.0199 6.18826 3.16306 6.18826 3.31232C6.18826 3.46159 6.12896 3.60475 6.02341 3.71029L3.60818 6.12482H11.8129C13.006 6.12613 14.1499 6.60065 14.9935 7.44428C15.8371 8.28791 16.3116 9.43175 16.3129 10.6248Z" fill="#6C6C6C"/>
</svg>
