<svg width="10" height="10" viewBox="0 0 10 10" fill="none" xmlns="http://www.w3.org/2000/svg">
<path d="M9.50028 1V7.5C9.50028 7.63261 9.4476 7.75979 9.35383 7.85355C9.26006 7.94732 9.13289 8 9.00028 8C8.86767 8 8.74049 7.94732 8.64672 7.85355C8.55296 7.75979 8.50028 7.63261 8.50028 7.5V2.20687L1.35403 9.35375C1.26021 9.44757 1.13296 9.50028 1.00028 9.50028C0.867596 9.50028 0.740348 9.44757 0.646528 9.35375C0.552708 9.25993 0.5 9.13268 0.5 9C0.5 8.86732 0.552708 8.74007 0.646528 8.64625L7.7934 1.5H2.50028C2.36767 1.5 2.24049 1.44732 2.14672 1.35355C2.05296 1.25979 2.00028 1.13261 2.00028 1C2.00028 0.867392 2.05296 0.740215 2.14672 0.646447C2.24049 0.552679 2.36767 0.5 2.50028 0.5H9.00028C9.13289 0.5 9.26006 0.552679 9.35383 0.646447C9.4476 0.740215 9.50028 0.867392 9.50028 1Z" fill="#6C6C6C"/>
</svg>
