<svg width="15" height="16" viewBox="0 0 15 16" fill="none" xmlns="http://www.w3.org/2000/svg">
<path d="M10.3125 6.87499C10.3125 7.02418 10.2532 7.16725 10.1477 7.27274C10.0423 7.37823 9.89918 7.43749 9.75 7.43749H5.25C5.10082 7.43749 4.95774 7.37823 4.85225 7.27274C4.74676 7.16725 4.6875 7.02418 4.6875 6.87499C4.6875 6.72581 4.74676 6.58273 4.85225 6.47724C4.95774 6.37175 5.10082 6.31249 5.25 6.31249H9.75C9.89918 6.31249 10.0423 6.37175 10.1477 6.47724C10.2532 6.58273 10.3125 6.72581 10.3125 6.87499ZM9.75 8.56249H5.25C5.10082 8.56249 4.95774 8.62175 4.85225 8.72724C4.74676 8.83273 4.6875 8.97581 4.6875 9.12499C4.6875 9.27418 4.74676 9.41725 4.85225 9.52274C4.95774 9.62823 5.10082 9.68749 5.25 9.68749H9.75C9.89918 9.68749 10.0423 9.62823 10.1477 9.52274C10.2532 9.41725 10.3125 9.27418 10.3125 9.12499C10.3125 8.97581 10.2532 8.83273 10.1477 8.72724C10.0423 8.62175 9.89918 8.56249 9.75 8.56249ZM14.8125 7.99999C14.8128 9.26248 14.4862 10.5035 13.8645 11.6023C13.2429 12.7012 12.3473 13.6203 11.265 14.2703C10.1827 14.9204 8.9506 15.2791 7.68854 15.3117C6.42647 15.3442 5.17748 15.0495 4.06312 14.4561L1.66898 15.2541C1.47076 15.3202 1.25805 15.3298 1.05468 15.2818C0.851316 15.2338 0.665335 15.1302 0.517583 14.9824C0.369831 14.8347 0.266148 14.6487 0.218154 14.4453C0.170161 14.2419 0.179755 14.0292 0.245859 13.831L1.04391 11.4369C0.522292 10.4562 0.230951 9.36953 0.191998 8.25942C0.153045 7.14932 0.367504 6.04493 0.819096 5.03009C1.27069 4.01524 1.94754 3.11661 2.79829 2.40241C3.64903 1.68821 4.6513 1.1772 5.72902 0.908185C6.80674 0.639168 7.93158 0.619208 9.01816 0.849821C10.1047 1.08043 11.1245 1.55556 12.0001 2.23913C12.8756 2.9227 13.5839 3.79675 14.0712 4.79493C14.5585 5.79312 14.812 6.8892 14.8125 7.99999ZM13.6875 7.99999C13.6872 7.05086 13.4686 6.11451 13.0486 5.26339C12.6285 4.41227 12.0183 3.66919 11.2651 3.09164C10.5119 2.51409 9.63596 2.11756 8.705 1.93272C7.77404 1.74788 6.81304 1.77968 5.89634 2.02568C4.97964 2.27167 4.13182 2.72526 3.41847 3.35135C2.70512 3.97743 2.14536 4.75924 1.78251 5.63627C1.41966 6.5133 1.26343 7.46206 1.32593 8.40913C1.38842 9.3562 1.66795 10.2762 2.14289 11.098C2.18275 11.1669 2.2075 11.2436 2.2155 11.3229C2.2235 11.4022 2.21457 11.4822 2.1893 11.5578L1.3125 14.1875L3.94219 13.3107C3.99946 13.2912 4.05956 13.2812 4.12008 13.2812C4.21887 13.2813 4.31587 13.3075 4.40133 13.3571C5.34197 13.9013 6.40936 14.1882 7.49609 14.1889C8.58283 14.1896 9.65058 13.9041 10.5919 13.361C11.5332 12.818 12.3149 12.0366 12.8584 11.0955C13.4018 10.1544 13.6877 9.08673 13.6875 7.99999Z" fill="#6C6C6C"/>
</svg>
