<svg width="18" height="18" viewBox="0 0 18 18" fill="none" xmlns="http://www.w3.org/2000/svg">
<path d="M12.773 10.2895C12.8253 10.3418 12.8668 10.4038 12.8951 10.4721C12.9234 10.5404 12.9379 10.6136 12.9379 10.6875C12.9379 10.7614 12.9234 10.8346 12.8951 10.9029C12.8668 10.9712 12.8253 11.0332 12.773 11.0855L11.0855 12.773C10.9799 12.8785 10.8368 12.9378 10.6875 12.9378C10.5382 12.9378 10.3951 12.8785 10.2895 12.773C10.184 12.6674 10.1247 12.5243 10.1247 12.375C10.1247 12.2257 10.184 12.0826 10.2895 11.977L11.5798 10.6875L10.2895 9.39797C10.184 9.29242 10.1247 9.14927 10.1247 9C10.1247 8.85073 10.184 8.70758 10.2895 8.60203C10.3951 8.49648 10.5382 8.43719 10.6875 8.43719C10.8368 8.43719 10.9799 8.49648 11.0855 8.60203L12.773 10.2895ZM7.71047 8.60203C7.65823 8.54973 7.59619 8.50824 7.5279 8.47994C7.45962 8.45163 7.38642 8.43706 7.3125 8.43706C7.23858 8.43706 7.16538 8.45163 7.0971 8.47994C7.02881 8.50824 6.96677 8.54973 6.91453 8.60203L5.22703 10.2895C5.17473 10.3418 5.13324 10.4038 5.10494 10.4721C5.07663 10.5404 5.06206 10.6136 5.06206 10.6875C5.06206 10.7614 5.07663 10.8346 5.10494 10.9029C5.13324 10.9712 5.17473 11.0332 5.22703 11.0855L6.91453 12.773C6.96679 12.8252 7.02884 12.8667 7.09712 12.895C7.1654 12.9233 7.23859 12.9378 7.3125 12.9378C7.38641 12.9378 7.4596 12.9233 7.52788 12.895C7.59616 12.8667 7.65821 12.8252 7.71047 12.773C7.76273 12.7207 7.80419 12.6587 7.83247 12.5904C7.86076 12.5221 7.87531 12.4489 7.87531 12.375C7.87531 12.3011 7.86076 12.2279 7.83247 12.1596C7.80419 12.0913 7.76273 12.0293 7.71047 11.977L6.42023 10.6875L7.71047 9.39797C7.76277 9.34573 7.80426 9.28369 7.83256 9.2154C7.86087 9.14712 7.87544 9.07392 7.87544 9C7.87544 8.92608 7.86087 8.85288 7.83256 8.7846C7.80426 8.71631 7.76277 8.65427 7.71047 8.60203ZM15.1875 6.1875V15.1875C15.1875 15.4859 15.069 15.772 14.858 15.983C14.647 16.194 14.3609 16.3125 14.0625 16.3125H3.9375C3.63913 16.3125 3.35298 16.194 3.142 15.983C2.93103 15.772 2.8125 15.4859 2.8125 15.1875V2.8125C2.8125 2.51413 2.93103 2.22798 3.142 2.017C3.35298 1.80603 3.63913 1.6875 3.9375 1.6875H10.6875C10.7614 1.68744 10.8346 1.70194 10.9029 1.73017C10.9711 1.7584 11.0332 1.79981 11.0855 1.85203L15.023 5.78953C15.0752 5.84181 15.1166 5.90386 15.1448 5.97215C15.1731 6.04043 15.1876 6.11361 15.1875 6.1875ZM11.25 5.625H13.2673L11.25 3.60773V5.625ZM14.0625 15.1875V6.75H10.6875C10.5383 6.75 10.3952 6.69074 10.2898 6.58525C10.1843 6.47976 10.125 6.33668 10.125 6.1875V2.8125H3.9375V15.1875H14.0625Z" fill="#6C6C6C"/>
</svg>
