<svg width="14" height="15" viewBox="0 0 14 15" fill="none" xmlns="http://www.w3.org/2000/svg">
<path fill-rule="evenodd" clip-rule="evenodd" d="M9.53125 3.38216C9.25792 3.38216 9.03125 3.15549 9.03125 2.88216V2.06616C8.51525 2.04883 7.90925 2.04883 7.19792 2.04883H5.86458C5.15258 2.04883 4.54725 2.04883 4.03125 2.06616V2.88216C4.03125 3.15549 3.80458 3.38216 3.53125 3.38216C3.25792 3.38216 3.03125 3.15549 3.03125 2.88216V2.13816C2.40125 2.22016 1.96858 2.37816 1.66458 2.68216C1.26325 3.08349 1.11658 3.70883 1.06258 4.71549H11.9999C11.9459 3.70883 11.7986 3.08349 11.3979 2.68216C11.0939 2.37816 10.6613 2.22016 10.0313 2.13816V2.88216C10.0313 3.15549 9.80458 3.38216 9.53125 3.38216ZM12.0273 5.71549C12.0308 6.06794 12.0321 6.45683 12.0312 6.88216V7.54883C12.0312 7.82216 12.2579 8.04883 12.5312 8.04883C12.8046 8.04883 13.0312 7.82216 13.0312 7.54883V6.88216C13.0312 4.22883 13.0313 2.90216 12.1046 1.97549C11.5899 1.46083 10.9513 1.23216 10.0313 1.13016V0.548828C10.0313 0.275495 9.80458 0.0488281 9.53125 0.0488281C9.25792 0.0488281 9.03125 0.275495 9.03125 0.548828V1.06549C8.50058 1.04883 7.89458 1.04883 7.19792 1.04883H5.86458C5.16725 1.04883 4.56192 1.04883 4.03125 1.06549V0.548828C4.03125 0.275495 3.80458 0.0488281 3.53125 0.0488281C3.25792 0.0488281 3.03125 0.275495 3.03125 0.548828V1.13016C2.11125 1.23216 1.47258 1.46083 0.957917 1.97549C0.0312499 2.90216 0.03125 4.23549 0.03125 6.88216V8.21549C0.03125 10.8688 0.0312499 12.1955 0.957917 13.1222C1.88458 14.0488 3.21125 14.0488 5.86458 14.0488C6.13792 14.0488 6.36458 13.8222 6.36458 13.5488C6.36458 13.2755 6.13792 13.0488 5.86458 13.0488C3.49125 13.0488 2.29792 13.0488 1.66458 12.4155C1.03125 11.7822 1.03125 10.5888 1.03125 8.21549V6.88216C1.03081 6.45727 1.03192 6.06838 1.03458 5.71549H12.0273ZM9.86458 14.3822C8.11792 14.3822 6.69792 12.9622 6.69792 11.2155C6.69792 9.46883 8.11792 8.04883 9.86458 8.04883C11.6113 8.04883 13.0312 9.46883 13.0312 11.2155C13.0312 12.9622 11.6113 14.3822 9.86458 14.3822ZM9.86458 9.04883C8.67125 9.04883 7.69792 10.0222 7.69792 11.2155C7.69792 12.4088 8.67125 13.3822 9.86458 13.3822C11.0579 13.3822 12.0312 12.4088 12.0312 11.2155C12.0312 10.0222 11.0579 9.04883 9.86458 9.04883ZM10.1779 12.2355C10.2779 12.3355 10.4046 12.3822 10.5313 12.3822C10.6579 12.3822 10.7846 12.3355 10.8846 12.2355C11.0779 12.0422 11.0779 11.7222 10.8846 11.5288L10.3646 11.0088V9.88216C10.3646 9.60883 10.1379 9.38216 9.86458 9.38216C9.59125 9.38216 9.36458 9.60883 9.36458 9.88216V11.2155C9.36458 11.3488 9.41792 11.4755 9.51125 11.5688L10.1779 12.2355Z" fill="white"/>
</svg>
