<svg width="50" height="45" viewBox="0 0 50 45" fill="none" xmlns="http://www.w3.org/2000/svg">
<rect width="50" height="45" rx="10" fill="#BC8522"/>
<path d="M10.924 30.596V26.924H14.188C15.004 26.924 15.74 26.804 16.396 26.564C17.052 26.308 17.612 25.956 18.076 25.508C18.54 25.044 18.892 24.492 19.132 23.852C19.372 23.196 19.492 22.476 19.492 21.692C19.492 20.876 19.372 20.148 19.132 19.508C18.892 18.868 18.54 18.324 18.076 17.876C17.612 17.428 17.052 17.092 16.396 16.868C15.74 16.628 15.004 16.508 14.188 16.508H10.924V12.836H13.972C15.556 12.836 16.94 13.068 18.124 13.532C19.308 13.996 20.3 14.628 21.1 15.428C21.9 16.228 22.492 17.148 22.876 18.188C23.276 19.212 23.476 20.292 23.476 21.428V21.956C23.476 23.012 23.276 24.06 22.876 25.1C22.492 26.124 21.9 27.052 21.1 27.884C20.3 28.7 19.308 29.356 18.124 29.852C16.94 30.348 15.556 30.596 13.972 30.596H10.924ZM7.468 30.596V12.836H11.404V30.596H7.468ZM34.522 30.956C32.954 30.956 31.586 30.7 30.418 30.188C29.25 29.66 28.282 28.956 27.514 28.076C26.762 27.196 26.202 26.22 25.834 25.148C25.466 24.076 25.282 23.004 25.282 21.932V21.404C25.282 20.3 25.466 19.22 25.834 18.164C26.202 17.108 26.754 16.148 27.49 15.284C28.242 14.42 29.17 13.732 30.274 13.22C31.394 12.708 32.682 12.452 34.138 12.452C35.722 12.452 37.122 12.748 38.338 13.34C39.554 13.916 40.53 14.724 41.266 15.764C42.002 16.788 42.426 17.98 42.538 19.34H38.602C38.506 18.7 38.25 18.14 37.834 17.66C37.434 17.18 36.914 16.804 36.274 16.532C35.65 16.26 34.938 16.124 34.138 16.124C33.37 16.124 32.682 16.26 32.074 16.532C31.482 16.804 30.97 17.188 30.538 17.684C30.122 18.18 29.802 18.772 29.578 19.46C29.37 20.132 29.266 20.876 29.266 21.692C29.266 22.54 29.378 23.316 29.602 24.02C29.842 24.708 30.186 25.308 30.634 25.82C31.082 26.316 31.634 26.7 32.29 26.972C32.962 27.244 33.706 27.38 34.522 27.38C35.61 27.38 36.554 27.156 37.354 26.708C38.154 26.26 38.73 25.668 39.082 24.932L38.602 27.62V23.444H42.226V27.188C41.474 28.404 40.434 29.34 39.106 29.996C37.794 30.636 36.266 30.956 34.522 30.956ZM34.018 24.212V21.38H43.666V24.212H34.018Z" fill="white"/>
</svg>
