<svg width="14" height="7" viewBox="0 0 14 7" fill="none" xmlns="http://www.w3.org/2000/svg">
<path d="M12.9233 1.04813L7.29834 6.67313C7.21924 6.75213 7.11202 6.79651 7.00022 6.79651C6.88842 6.79651 6.7812 6.75213 6.70209 6.67313L1.07709 1.04813C1.00257 0.968157 0.962005 0.862381 0.963933 0.753087C0.965861 0.643792 1.01014 0.539513 1.08743 0.462218C1.16473 0.384924 1.26901 0.340648 1.3783 0.338719C1.48759 0.336791 1.59337 0.377361 1.67334 0.451881L7.00022 5.77805L12.3271 0.451881C12.4071 0.377361 12.5128 0.336791 12.6221 0.338719C12.7314 0.340648 12.8357 0.384924 12.913 0.462218C12.9903 0.539513 13.0346 0.643792 13.0365 0.753087C13.0384 0.862381 12.9979 0.968157 12.9233 1.04813Z" fill="#6C6C6C"/>
</svg>
