<svg width="16" height="9" viewBox="0 0 16 9" fill="none" xmlns="http://www.w3.org/2000/svg">
<path d="M13.0625 4.5625C13.0625 4.71168 13.0032 4.85476 12.8977 4.96025C12.7923 5.06574 12.6492 5.125 12.5 5.125H3.5C3.35082 5.125 3.20774 5.06574 3.10225 4.96025C2.99676 4.85476 2.9375 4.71168 2.9375 4.5625C2.9375 4.41332 2.99676 4.27024 3.10225 4.16475C3.20774 4.05926 3.35082 4 3.5 4H12.5C12.6492 4 12.7923 4.05926 12.8977 4.16475C13.0032 4.27024 13.0625 4.41332 13.0625 4.5625ZM15.3125 0.625H0.6875C0.538316 0.625 0.395242 0.684263 0.289752 0.789753C0.184263 0.895242 0.125 1.03832 0.125 1.1875C0.125 1.33668 0.184263 1.47976 0.289752 1.58525C0.395242 1.69074 0.538316 1.75 0.6875 1.75H15.3125C15.4617 1.75 15.6048 1.69074 15.7102 1.58525C15.8157 1.47976 15.875 1.33668 15.875 1.1875C15.875 1.03832 15.8157 0.895242 15.7102 0.789753C15.6048 0.684263 15.4617 0.625 15.3125 0.625ZM9.6875 7.375H6.3125C6.16332 7.375 6.02024 7.43426 5.91475 7.53975C5.80926 7.64524 5.75 7.78832 5.75 7.9375C5.75 8.08668 5.80926 8.22976 5.91475 8.33525C6.02024 8.44074 6.16332 8.5 6.3125 8.5H9.6875C9.83668 8.5 9.97976 8.44074 10.0852 8.33525C10.1907 8.22976 10.25 8.08668 10.25 7.9375C10.25 7.78832 10.1907 7.64524 10.0852 7.53975C9.97976 7.43426 9.83668 7.375 9.6875 7.375Z" fill="#6C6C6C"/>
</svg>
