<svg width="13" height="12" viewBox="0 0 13 12" fill="none" xmlns="http://www.w3.org/2000/svg">
<path d="M9.6875 0H3.3125C1.7592 0 0.5 1.2592 0.5 2.8125V9.1875C0.5 10.7408 1.7592 12 3.3125 12H9.6875C11.2408 12 12.5 10.7408 12.5 9.1875V2.8125C12.5 1.2592 11.2408 0 9.6875 0Z" fill="#F0DB4F"/>
<path d="M3.6563 10.0287L4.57458 9.47295C4.75177 9.78706 4.91292 10.0528 5.2995 10.0528C5.67005 10.0528 5.90367 9.90791 5.90367 9.34409V5.50981H7.03139V9.36003C7.03139 10.528 6.34673 11.0597 5.34783 11.0597C4.44572 11.0597 3.92208 10.5925 3.65625 10.0286M7.64391 9.90786L8.56209 9.37625C8.80383 9.77098 9.11799 10.061 9.67374 10.061C10.141 10.061 10.439 9.82733 10.439 9.50511C10.439 9.11848 10.1329 8.98152 9.61734 8.75605L9.33548 8.63516C8.52188 8.28884 7.98216 7.85384 7.98216 6.93556C7.98216 6.08975 8.62659 5.44531 9.63352 5.44531C10.3504 5.44531 10.866 5.69506 11.2365 6.34752L10.3584 6.91138C10.1651 6.56502 9.95574 6.42809 9.63352 6.42809C9.30324 6.42809 9.0938 6.63753 9.0938 6.91138C9.0938 7.24967 9.30323 7.38664 9.78652 7.59613L10.0684 7.71692C11.027 8.12778 11.5667 8.54656 11.5667 9.48898C11.5667 10.504 10.7693 11.0598 9.69792 11.0598C8.65078 11.0598 7.97414 10.5604 7.64391 9.90786Z" fill="#323330"/>
</svg>
