<svg width="32" height="33" viewBox="0 0 32 33" fill="none" xmlns="http://www.w3.org/2000/svg">
<path fill-rule="evenodd" clip-rule="evenodd" d="M16.0291 4.5C13.0177 4.5 10.2744 5.49467 8.65108 6.30733C8.50441 6.38067 8.36753 6.45222 8.24041 6.522C7.98841 6.65933 7.77375 6.78733 7.60308 6.9L9.44975 9.61867L10.3191 9.96467C13.7164 11.6787 18.2724 11.6787 21.6704 9.96467L22.6571 9.45267L24.4031 6.9C24.041 6.66474 23.665 6.45168 23.2771 6.262C21.6617 5.458 18.9837 4.5 16.0297 4.5M11.7351 7.57733C11.0813 7.4543 10.4355 7.29223 9.80108 7.092C11.3217 6.41667 13.5877 5.7 16.0297 5.7C17.7211 5.7 19.3204 6.044 20.6431 6.48C19.0931 6.698 17.4391 7.068 15.8631 7.52333C14.6231 7.882 13.1737 7.84333 11.7351 7.57733ZM22.3751 10.9533L22.2111 11.036C18.4737 12.9213 13.5164 12.9213 9.77908 11.036L9.62375 10.9573C4.00841 17.118 -0.278253 28.498 16.0291 28.498C32.3364 28.498 27.9457 16.9067 22.3751 10.9533ZM15.3364 16.5C14.9828 16.5 14.6437 16.6405 14.3936 16.8905C14.1436 17.1406 14.0031 17.4797 14.0031 17.8333C14.0031 18.187 14.1436 18.5261 14.3936 18.7761C14.6437 19.0262 14.9828 19.1667 15.3364 19.1667V16.5ZM16.6697 15.1667V14.5H15.3364V15.1667C14.6292 15.1667 13.9509 15.4476 13.4508 15.9477C12.9507 16.4478 12.6697 17.1261 12.6697 17.8333C12.6697 18.5406 12.9507 19.2189 13.4508 19.719C13.9509 20.219 14.6292 20.5 15.3364 20.5V23.1667C14.7564 23.1667 14.2624 22.7967 14.0784 22.278C14.0511 22.1931 14.0071 22.1146 13.9489 22.0471C13.8907 21.9795 13.8196 21.9244 13.7397 21.8848C13.6598 21.8452 13.5728 21.8221 13.4839 21.8167C13.3949 21.8113 13.3057 21.8239 13.2217 21.8536C13.1376 21.8833 13.0604 21.9295 12.9945 21.9896C12.9287 22.0497 12.8755 22.1223 12.8382 22.2033C12.801 22.2843 12.7803 22.3719 12.7774 22.461C12.7746 22.5501 12.7897 22.6388 12.8217 22.722C13.0056 23.242 13.3461 23.6923 13.7965 24.0107C14.2468 24.3291 14.7848 24.5001 15.3364 24.5V25.1667H16.6697V24.5C17.377 24.5 18.0553 24.219 18.5554 23.719C19.0555 23.2189 19.3364 22.5406 19.3364 21.8333C19.3364 21.1261 19.0555 20.4478 18.5554 19.9477C18.0553 19.4476 17.377 19.1667 16.6697 19.1667V16.5C17.2497 16.5 17.7437 16.87 17.9277 17.3887C17.955 17.4735 17.9991 17.552 18.0573 17.6196C18.1154 17.6871 18.1866 17.7423 18.2664 17.7819C18.3463 17.8215 18.4333 17.8446 18.5223 17.85C18.6113 17.8553 18.7004 17.8428 18.7845 17.8131C18.8685 17.7834 18.9458 17.7371 19.0116 17.6771C19.0775 17.617 19.1306 17.5443 19.1679 17.4634C19.2052 17.3824 19.2259 17.2948 19.2287 17.2057C19.2315 17.1166 19.2165 17.0278 19.1844 16.9447C19.0006 16.4246 18.6601 15.9744 18.2097 15.656C17.7593 15.3375 17.2213 15.1666 16.6697 15.1667ZM16.6697 20.5V23.1667C17.0234 23.1667 17.3625 23.0262 17.6126 22.7761C17.8626 22.5261 18.0031 22.187 18.0031 21.8333C18.0031 21.4797 17.8626 21.1406 17.6126 20.8905C17.3625 20.6405 17.0234 20.5 16.6697 20.5Z" fill="white"/>
</svg>
