<svg width="12" height="12" viewBox="0 0 12 12" fill="none" xmlns="http://www.w3.org/2000/svg">
<path fill-rule="evenodd" clip-rule="evenodd" d="M6.01063 0C4.50497 0 3.1333 0.497333 2.32163 0.903667C2.2483 0.940333 2.17986 0.976111 2.1163 1.011C1.9903 1.07967 1.88297 1.14367 1.79763 1.2L2.72097 2.55933L3.15563 2.73233C4.8543 3.58933 7.1323 3.58933 8.8313 2.73233L9.32463 2.47633L10.1976 1.2C10.0166 1.08237 9.82858 0.97584 9.63463 0.881C8.82697 0.479 7.48797 0 6.01097 0M3.86363 1.53867C3.53675 1.47715 3.21384 1.39612 2.89663 1.296C3.65697 0.958333 4.78997 0.6 6.01097 0.6C6.85663 0.6 7.6563 0.772 8.31763 0.99C7.54263 1.099 6.71563 1.284 5.92763 1.51167C5.30763 1.691 4.58297 1.67167 3.86363 1.53867ZM9.18363 3.22667L9.10163 3.268C7.23297 4.21067 4.7543 4.21067 2.88563 3.268L2.80797 3.22867C0.000300735 6.309 -2.14303 11.999 6.01063 11.999C14.1643 11.999 11.969 6.20333 9.18363 3.22667ZM5.6643 6C5.48749 6 5.31792 6.07024 5.1929 6.19526C5.06787 6.32029 4.99763 6.48986 4.99763 6.66667C4.99763 6.84348 5.06787 7.01305 5.1929 7.13807C5.31792 7.2631 5.48749 7.33333 5.6643 7.33333V6ZM6.33097 5.33333V5H5.6643V5.33333C5.31068 5.33333 4.97154 5.47381 4.72149 5.72386C4.47144 5.97391 4.33097 6.31305 4.33097 6.66667C4.33097 7.02029 4.47144 7.35943 4.72149 7.60948C4.97154 7.85952 5.31068 8 5.6643 8V9.33333C5.3743 9.33333 5.1273 9.14833 5.0353 8.889C5.02165 8.84657 4.99963 8.80731 4.97054 8.77354C4.94146 8.73977 4.90589 8.71218 4.86595 8.69239C4.82602 8.67261 4.78252 8.66103 4.73803 8.65835C4.69354 8.65567 4.64896 8.66194 4.60694 8.67679C4.56492 8.69164 4.5263 8.71476 4.49336 8.7448C4.46043 8.77483 4.43386 8.81116 4.41522 8.85165C4.39657 8.89213 4.38624 8.93594 4.38482 8.98049C4.3834 9.02504 4.39093 9.06941 4.40697 9.111C4.49887 9.37102 4.66914 9.59614 4.89432 9.75536C5.11951 9.91457 5.38852 10 5.6643 10V10.3333H6.33097V10C6.68459 10 7.02373 9.85952 7.27378 9.60948C7.52382 9.35943 7.6643 9.02029 7.6643 8.66667C7.6643 8.31304 7.52382 7.97391 7.27378 7.72386C7.02373 7.47381 6.68459 7.33333 6.33097 7.33333V6C6.62097 6 6.86797 6.185 6.95997 6.44433C6.97362 6.48676 6.99564 6.52602 7.02472 6.55979C7.05381 6.59356 7.08938 6.62115 7.12931 6.64094C7.16925 6.66073 7.21275 6.6723 7.25724 6.67498C7.30173 6.67766 7.3463 6.67139 7.38833 6.65654C7.43035 6.6417 7.46897 6.61857 7.5019 6.58854C7.53483 6.5585 7.56141 6.52217 7.58005 6.48169C7.5987 6.4412 7.60903 6.39739 7.61045 6.35285C7.61187 6.3083 7.60433 6.26392 7.5883 6.22233C7.4964 5.96231 7.32612 5.73719 7.10094 5.57798C6.87576 5.41876 6.60675 5.33329 6.33097 5.33333ZM6.33097 8V9.33333C6.50778 9.33333 6.67735 9.2631 6.80237 9.13807C6.9274 9.01305 6.99763 8.84348 6.99763 8.66667C6.99763 8.48986 6.9274 8.32029 6.80237 8.19526C6.67735 8.07024 6.50778 8 6.33097 8Z" fill="white"/>
</svg>
