<svg width="51" height="45" viewBox="0 0 51 45" fill="none" xmlns="http://www.w3.org/2000/svg">
<rect x="0.5" width="50" height="45" rx="10" fill="#000080"/>
<path d="M12.924 25.484V22.076H16.068C16.676 22.076 17.196 21.956 17.628 21.716C18.076 21.476 18.42 21.14 18.66 20.708C18.9 20.26 19.02 19.748 19.02 19.172C19.02 18.564 18.9 18.044 18.66 17.612C18.42 17.164 18.076 16.828 17.628 16.604C17.196 16.364 16.676 16.244 16.068 16.244H12.924V12.836H15.876C17.364 12.836 18.636 13.084 19.692 13.58C20.764 14.076 21.58 14.78 22.14 15.692C22.716 16.604 23.004 17.7 23.004 18.98V19.364C23.004 20.612 22.716 21.7 22.14 22.628C21.58 23.54 20.764 24.244 19.692 24.74C18.636 25.236 17.364 25.484 15.876 25.484H12.924ZM9.468 30.5V12.836H13.404V30.5H9.468ZM33.5158 30.956C31.9318 30.956 30.5718 30.684 29.4358 30.14C28.2998 29.58 27.3718 28.852 26.6518 27.956C25.9318 27.044 25.3958 26.068 25.0438 25.028C24.7078 23.972 24.5398 22.948 24.5398 21.956V21.428C24.5398 20.34 24.7158 19.268 25.0678 18.212C25.4198 17.14 25.9558 16.172 26.6758 15.308C27.4118 14.444 28.3318 13.756 29.4358 13.244C30.5558 12.716 31.8758 12.452 33.3958 12.452C34.9798 12.452 36.3798 12.748 37.5958 13.34C38.8118 13.932 39.7798 14.756 40.4998 15.812C41.2358 16.852 41.6678 18.076 41.7958 19.484H37.8358C37.7238 18.78 37.4678 18.18 37.0678 17.684C36.6678 17.188 36.1478 16.804 35.5078 16.532C34.8838 16.26 34.1798 16.124 33.3958 16.124C32.6118 16.124 31.9158 16.26 31.3078 16.532C30.6998 16.804 30.1878 17.188 29.7718 17.684C29.3718 18.18 29.0598 18.772 28.8358 19.46C28.6278 20.132 28.5238 20.884 28.5238 21.716C28.5238 22.532 28.6278 23.284 28.8358 23.972C29.0598 24.644 29.3798 25.236 29.7958 25.748C30.2278 26.244 30.7558 26.628 31.3798 26.9C32.0038 27.156 32.7158 27.284 33.5158 27.284C34.7318 27.284 35.7558 26.988 36.5878 26.396C37.4358 25.804 37.9478 24.988 38.1238 23.948H42.0598C41.9158 25.228 41.4838 26.404 40.7638 27.476C40.0598 28.532 39.0918 29.38 37.8598 30.02C36.6438 30.644 35.1958 30.956 33.5158 30.956Z" fill="white"/>
</svg>
