<svg width="33" height="33" viewBox="0 0 33 33" fill="none" xmlns="http://www.w3.org/2000/svg">
<path d="M23.2708 16.5007C19.5908 16.5007 16.6042 19.4873 16.6042 23.1673C16.6042 26.8473 19.5908 29.834 23.2708 29.834C26.9508 29.834 29.9375 26.8473 29.9375 23.1673C29.9375 19.4873 26.9508 16.5007 23.2708 16.5007ZM25.4708 26.3007L22.6042 23.434V19.1673H23.9375V22.8873L26.4042 25.354L25.4708 26.3007ZM24.6042 4.50065H20.3642C19.8042 2.95398 18.3375 1.83398 16.6042 1.83398C14.8708 1.83398 13.4042 2.95398 12.8442 4.50065H8.60417C7.1375 4.50065 5.9375 5.70065 5.9375 7.16732V27.1673C5.9375 28.634 7.1375 29.834 8.60417 29.834H16.7508C15.961 29.0692 15.3191 28.1651 14.8575 27.1673H8.60417V7.16732H11.2708V11.1673H21.9375V7.16732H24.6042V13.9407C25.5508 14.074 26.4442 14.354 27.2708 14.7407V7.16732C27.2708 5.70065 26.0708 4.50065 24.6042 4.50065ZM16.6042 7.16732C15.8708 7.16732 15.2708 6.56732 15.2708 5.83398C15.2708 5.10065 15.8708 4.50065 16.6042 4.50065C17.3375 4.50065 17.9375 5.10065 17.9375 5.83398C17.9375 6.56732 17.3375 7.16732 16.6042 7.16732Z" fill="white"/>
</svg>
