<svg width="33" height="33" viewBox="0 0 33 33" fill="none" xmlns="http://www.w3.org/2000/svg">
<path d="M25.5365 17.8333C26.4698 17.8333 27.3631 18.0067 28.2031 18.3V12.5L20.2031 4.5H6.86979C5.38979 4.5 4.20312 5.68667 4.20312 7.16667V25.8333C4.20313 26.5406 4.48408 27.2189 4.98417 27.719C5.48427 28.219 6.16255 28.5 6.86979 28.5H18.0031C17.7098 27.66 17.5365 26.7667 17.5365 25.8333C17.5365 21.42 21.1231 17.8333 25.5365 17.8333ZM18.8698 6.5L26.2031 13.8333H18.8698V6.5ZM30.2031 23.5L23.8698 29.8333L20.2031 25.8333L21.7498 24.2867L23.8698 26.4067L28.6565 21.62L30.2031 23.5Z" fill="white"/>
</svg>
