<svg width="33" height="33" viewBox="0 0 33 33" fill="none" xmlns="http://www.w3.org/2000/svg">
<path fill-rule="evenodd" clip-rule="evenodd" d="M16.4275 4.5C13.4162 4.5 10.6729 5.49467 9.04952 6.30733C8.90285 6.38067 8.76596 6.45222 8.63885 6.522C8.38685 6.65933 8.17218 6.78733 8.00152 6.9L9.84819 9.61867L10.7175 9.96467C14.1149 11.6787 18.6709 11.6787 22.0688 9.96467L23.0555 9.45267L24.8015 6.9C24.4394 6.66474 24.0634 6.45168 23.6755 6.262C22.0602 5.458 19.3822 4.5 16.4282 4.5M12.1335 7.57733C11.4797 7.4543 10.8339 7.29223 10.1995 7.092C11.7202 6.41667 13.9862 5.7 16.4282 5.7C18.1195 5.7 19.7189 6.044 21.0415 6.48C19.4915 6.698 17.8375 7.068 16.2615 7.52333C15.0215 7.882 13.5722 7.84333 12.1335 7.57733ZM22.7735 10.9533L22.6095 11.036C18.8722 12.9213 13.9149 12.9213 10.1775 11.036L10.0222 10.9573C4.40685 17.118 0.120185 28.498 16.4275 28.498C32.7348 28.498 28.3442 16.9067 22.7735 10.9533ZM15.7349 16.5C15.3812 16.5 15.0421 16.6405 14.792 16.8905C14.542 17.1406 14.4015 17.4797 14.4015 17.8333C14.4015 18.187 14.542 18.5261 14.792 18.7761C15.0421 19.0262 15.3812 19.1667 15.7349 19.1667V16.5ZM17.0682 15.1667V14.5H15.7349V15.1667C15.0276 15.1667 14.3493 15.4476 13.8492 15.9477C13.3491 16.4478 13.0682 17.1261 13.0682 17.8333C13.0682 18.5406 13.3491 19.2189 13.8492 19.719C14.3493 20.219 15.0276 20.5 15.7349 20.5V23.1667C15.1549 23.1667 14.6609 22.7967 14.4769 22.278C14.4496 22.1931 14.4055 22.1146 14.3473 22.0471C14.2892 21.9795 14.218 21.9244 14.1382 21.8848C14.0583 21.8452 13.9713 21.8221 13.8823 21.8167C13.7933 21.8113 13.7042 21.8239 13.6201 21.8536C13.5361 21.8833 13.4588 21.9295 13.393 21.9896C13.3271 22.0497 13.274 22.1223 13.2367 22.2033C13.1994 22.2843 13.1787 22.3719 13.1759 22.461C13.1731 22.5501 13.1881 22.6388 13.2202 22.722C13.404 23.242 13.7445 23.6923 14.1949 24.0107C14.6453 24.3291 15.1833 24.5001 15.7349 24.5V25.1667H17.0682V24.5C17.7754 24.5 18.4537 24.219 18.9538 23.719C19.4539 23.2189 19.7349 22.5406 19.7349 21.8333C19.7349 21.1261 19.4539 20.4478 18.9538 19.9477C18.4537 19.4476 17.7754 19.1667 17.0682 19.1667V16.5C17.6482 16.5 18.1422 16.87 18.3262 17.3887C18.3535 17.4735 18.3975 17.552 18.4557 17.6196C18.5139 17.6871 18.585 17.7423 18.6649 17.7819C18.7448 17.8215 18.8318 17.8446 18.9207 17.85C19.0097 17.8553 19.0989 17.8428 19.1829 17.8131C19.267 17.7834 19.3442 17.7371 19.4101 17.6771C19.4759 17.617 19.5291 17.5443 19.5664 17.4634C19.6036 17.3824 19.6243 17.2948 19.6271 17.2057C19.63 17.1166 19.6149 17.0278 19.5829 16.9447C19.399 16.4246 19.0585 15.9744 18.6081 15.656C18.1578 15.3375 17.6198 15.1666 17.0682 15.1667ZM17.0682 20.5V23.1667C17.4218 23.1667 17.7609 23.0262 18.011 22.7761C18.261 22.5261 18.4015 22.187 18.4015 21.8333C18.4015 21.4797 18.261 21.1406 18.011 20.8905C17.7609 20.6405 17.4218 20.5 17.0682 20.5Z" fill="white"/>
</svg>
