<svg width="33" height="33" viewBox="0 0 33 33" fill="none" xmlns="http://www.w3.org/2000/svg">
<path d="M8.39941 10.0273L12.3184 19.3291C12.4784 19.9152 12.477 20.3937 12.3672 20.7803C12.2567 21.169 12.0276 21.4994 11.6797 21.7744C10.9656 22.3389 9.7474 22.6669 8.12695 22.667C6.50723 22.667 5.32045 22.3392 4.62207 21.7773C3.97672 21.2579 3.6754 20.479 3.9375 19.3193L7.85352 10.0273L8.12598 9.37988L8.39941 10.0273ZM25.7324 10.0273L29.6514 19.3271C29.8119 19.9142 29.8102 20.3933 29.7002 20.7803C29.5897 21.169 29.3606 21.4994 29.0127 21.7744C28.2986 22.3388 27.0804 22.667 25.46 22.667C23.8401 22.667 22.6534 22.3393 21.9551 21.7773C21.3091 21.2575 21.0091 20.4778 21.2725 19.3164L25.1875 10.0273L25.459 9.37988L25.7324 10.0273ZM7.66211 13.9814L5.66211 18.9814L5.3877 19.667H10.8652L10.5908 18.9814L8.59082 13.9814L8.12695 12.8203L7.66211 13.9814ZM24.9961 13.9814L22.9961 18.9814L22.7217 19.667H28.1982L27.9238 18.9814L25.9238 13.9814L25.46 12.8203L24.9961 13.9814ZM16.793 6.66699C16.3674 6.66705 15.9571 6.81459 15.6309 7.08203L15.4971 7.2041C15.1533 7.54791 14.96 8.01382 14.96 8.5C14.96 8.9255 15.1076 9.33586 15.375 9.66211L15.4971 9.7959C15.8408 10.1397 16.3068 10.3329 16.793 10.333C17.2185 10.333 17.6288 10.1853 17.9551 9.91797L18.0898 9.7959C18.4334 9.45212 18.627 8.98606 18.627 8.5C18.627 8.0744 18.4784 7.66418 18.2109 7.33789L18.0898 7.2041C17.746 6.86028 17.2792 6.66699 16.793 6.66699ZM15.96 11.9307L15.6406 11.8076C14.6382 11.4184 13.8755 10.6548 13.4863 9.65234L13.3623 9.33301H5.29297V7.66699H13.3877L13.5049 7.33203C13.9946 5.93297 15.3119 5.0001 16.793 5C18.2734 5 19.5929 5.9323 20.0957 7.33496L20.2148 7.66699H28.293V9.33301H20.207L20.085 9.65723C19.709 10.6558 18.9488 11.4161 17.9502 11.792L17.627 11.9141V27.667H29.627V29.333H3.95996V27.667H15.96V11.9307Z" fill="white" stroke="white"/>
</svg>
