<svg width="32" height="33" viewBox="0 0 32 33" fill="none" xmlns="http://www.w3.org/2000/svg">
<path d="M5 3.08984L15.125 3.09082V3.0918C15.2226 3.09201 15.317 3.12115 15.3975 3.17383L15.4727 3.2334L15.4736 3.23535L23.3477 10.8672C23.3959 10.9139 23.4348 10.9694 23.4609 11.0312C23.474 11.0621 23.4836 11.0943 23.4902 11.127L23.5 11.2266V25.4102C23.4999 25.5427 23.4472 25.67 23.3535 25.7637C23.2598 25.8573 23.1325 25.9102 23 25.9102H5C4.90062 25.9102 4.80416 25.8805 4.72266 25.8262L4.64648 25.7637C4.55279 25.67 4.50008 25.5427 4.5 25.4102V3.58984L4.50977 3.49219C4.52255 3.42802 4.54769 3.36694 4.58398 3.3125L4.64648 3.23633C4.71689 3.16592 4.80611 3.11878 4.90234 3.09961L5 3.08984ZM7.5 22H20.5V19H7.5V22ZM7.5 17H20.5V14H7.5V17ZM7.5 12H12.5V9H7.5V12ZM15.626 10.7275H21.7656L20.8799 9.86914L16.4746 5.59473L15.626 4.77246V10.7275Z" fill="white" stroke="white"/>
<path d="M26 15.5V28.5H9V30.5H27C27.2652 30.5 27.5196 30.3946 27.7071 30.2071C27.8946 30.0196 28 29.7652 28 29.5V15.5H26Z" fill="white"/>
</svg>
