<svg width="24" height="24" viewBox="0 0 24 24" fill="none" xmlns="http://www.w3.org/2000/svg">
<g clip-path="url(#clip0_523_6657)">
<path d="M18.375 0H5.625C2.5184 0 0 2.5184 0 5.625V18.375C0 21.4816 2.5184 24 5.625 24H18.375C21.4816 24 24 21.4816 24 18.375V5.625C24 2.5184 21.4816 0 18.375 0Z" fill="#E43717"/>
<path d="M21.2413 11.7704L20.4548 11.2831C20.4481 11.2064 20.4406 11.13 20.4323 11.0538L21.1096 10.4231C21.1434 10.3917 21.1686 10.3522 21.1828 10.3082C21.197 10.2643 21.1997 10.2175 21.1906 10.1722C21.1817 10.127 21.1614 10.0847 21.1315 10.0496C21.1016 10.0145 21.0631 9.98763 21.0199 9.97162L20.1544 9.64913C20.1327 9.57422 20.1099 9.49988 20.0867 9.42516L20.626 8.67628C20.653 8.63891 20.67 8.59525 20.6753 8.54947C20.6807 8.50368 20.6742 8.45729 20.6565 8.41472C20.6388 8.37221 20.6107 8.33487 20.5746 8.30623C20.5386 8.27758 20.4958 8.25856 20.4504 8.25094L19.5383 8.10253C19.503 8.03385 19.4664 7.96577 19.4287 7.89834L19.8122 7.05628C19.8314 7.01421 19.8396 6.96792 19.8359 6.9218C19.8322 6.87569 19.8167 6.83129 19.791 6.79284C19.7655 6.75435 19.7305 6.72307 19.6894 6.70202C19.6482 6.68097 19.6024 6.67086 19.5563 6.67266L18.6299 6.70491C18.5821 6.64503 18.5333 6.58591 18.4837 6.52753L18.6969 5.62631C18.7076 5.58127 18.7065 5.53425 18.6938 5.48974C18.6812 5.44522 18.6573 5.40468 18.6246 5.37196C18.5919 5.33925 18.5513 5.31544 18.5068 5.30281C18.4623 5.29017 18.4153 5.28913 18.3702 5.29978L17.469 5.51297C17.4105 5.46335 17.3512 5.41459 17.2913 5.36672L17.3237 4.44047C17.3273 4.34672 17.2815 4.25766 17.2034 4.20572C17.1649 4.18006 17.1205 4.16464 17.0744 4.16091C17.0284 4.15719 16.9821 4.16529 16.94 4.18444L16.0996 4.56788C16.0317 4.53044 15.9637 4.49381 15.8954 4.458L15.7466 3.54609C15.7393 3.50059 15.7203 3.45775 15.6917 3.42167C15.663 3.38558 15.6255 3.35747 15.5828 3.34003C15.5403 3.32236 15.4939 3.31588 15.4481 3.32122C15.4023 3.32655 15.3587 3.34352 15.3213 3.3705L14.5723 3.90975C14.4985 3.88631 14.4245 3.8638 14.3501 3.84225L14.0275 2.97694C14.0114 2.93368 13.9846 2.89524 13.9495 2.86529C13.9143 2.83533 13.8722 2.81483 13.8269 2.80575C13.7817 2.79687 13.7349 2.79964 13.691 2.81381C13.6471 2.82798 13.6075 2.85308 13.576 2.88675L12.9453 3.564C12.869 3.55545 12.7925 3.54798 12.716 3.54159L12.2286 2.75325C12.2041 2.71397 12.1701 2.68157 12.1296 2.65913C12.0892 2.63669 12.0436 2.62494 11.9974 2.625C11.9028 2.625 11.8164 2.67356 11.7681 2.75325L11.2807 3.54169C11.204 3.54788 11.1273 3.55556 11.0513 3.564L10.4206 2.88675C10.3891 2.85308 10.3495 2.82798 10.3056 2.81381C10.2617 2.79964 10.215 2.79687 10.1697 2.80575C10.1244 2.81473 10.0822 2.83517 10.047 2.86512C10.0119 2.89508 9.98503 2.93354 9.969 2.97684L9.6465 3.84216C9.57159 3.86372 9.49744 3.8865 9.42431 3.90975L8.67525 3.3705C8.63792 3.34343 8.59425 3.32642 8.54845 3.32108C8.50265 3.31575 8.45624 3.32227 8.41369 3.34003C8.37119 3.35771 8.33388 3.3859 8.30525 3.42194C8.27662 3.45798 8.25761 3.5007 8.25 3.54609L8.10131 4.458C8.03256 4.49369 7.96447 4.53031 7.89703 4.56788L7.05666 4.18444C7.01463 4.16526 6.96839 4.15714 6.92235 4.16085C6.8763 4.16455 6.83196 4.17996 6.79353 4.2056C6.75511 4.23125 6.72387 4.26628 6.70278 4.30739C6.68169 4.34849 6.67145 4.3943 6.67303 4.44047L6.70528 5.36672C6.64538 5.41468 6.58613 5.46343 6.52753 5.51297L5.62622 5.29978C5.58117 5.28925 5.53418 5.29035 5.48967 5.30298C5.44516 5.31561 5.40459 5.33935 5.37178 5.37197C5.30522 5.43844 5.27803 5.53425 5.29959 5.62631L5.511 6.52753C5.4616 6.58601 5.41297 6.64514 5.36513 6.70491L4.43888 6.67266C4.39275 6.67111 4.34699 6.68133 4.3059 6.70236C4.26481 6.72338 4.22976 6.75452 4.20403 6.79284C4.17837 6.83132 4.16295 6.87571 4.15923 6.9218C4.1555 6.9679 4.1636 7.01419 4.18275 7.05628L4.56619 7.89834C4.52875 7.96584 4.49213 8.03391 4.45631 8.10253L3.54431 8.25094C3.49881 8.2583 3.45597 8.27723 3.41989 8.30591C3.3838 8.33459 3.35569 8.37206 3.33825 8.41472C3.32067 8.45731 3.31424 8.50368 3.31957 8.54945C3.3249 8.59522 3.34182 8.63887 3.36872 8.67628L3.90806 9.42516C3.88433 9.49946 3.86174 9.57413 3.84028 9.64913L2.97488 9.97162C2.93169 9.98777 2.89333 10.0147 2.86344 10.0498C2.83355 10.0849 2.81311 10.127 2.80406 10.1722C2.79509 10.2175 2.79782 10.2643 2.81199 10.3082C2.82617 10.3521 2.85132 10.3917 2.88506 10.4231L3.56241 11.0538C3.55397 11.13 3.5465 11.2065 3.54 11.2831L2.75344 11.7704C2.71407 11.7947 2.6816 11.8288 2.65912 11.8692C2.63663 11.9097 2.62489 11.9552 2.625 12.0015C2.625 12.0963 2.67356 12.1825 2.75334 12.2309L3.53991 12.7182C3.54647 12.795 3.55394 12.8714 3.56231 12.9475L2.88497 13.5782C2.85126 13.6096 2.82615 13.6492 2.81201 13.6931C2.79786 13.737 2.79516 13.7837 2.80416 13.8289C2.81315 13.8742 2.83355 13.9163 2.86341 13.9515C2.89327 13.9866 2.9316 14.0135 2.97478 14.0297L3.84019 14.3522C3.86175 14.4271 3.88444 14.5014 3.90797 14.5762L3.36863 15.325C3.34163 15.3625 3.32468 15.4063 3.3194 15.4522C3.31413 15.4981 3.32069 15.5446 3.33848 15.5873C3.35626 15.6299 3.38467 15.6673 3.421 15.6958C3.45733 15.7244 3.50036 15.7432 3.546 15.7504L4.45809 15.8987C4.49372 15.9679 4.53031 16.036 4.56788 16.103L4.18444 16.9432C4.16526 16.9853 4.15713 17.0315 4.16084 17.0775C4.16454 17.1236 4.17995 17.1679 4.20559 17.2064C4.23124 17.2448 4.26628 17.276 4.30739 17.2971C4.34849 17.3182 4.3943 17.3284 4.44047 17.3268L5.36503 17.2944C5.41301 17.3543 5.46177 17.4135 5.51128 17.4721L5.29988 18.3733C5.27831 18.4647 5.3055 18.5597 5.37206 18.626C5.40479 18.6587 5.44536 18.6825 5.4899 18.6951C5.53444 18.7077 5.58147 18.7087 5.6265 18.698L6.52781 18.4866C6.58629 18.5361 6.64555 18.5847 6.70556 18.6324L6.67331 19.5587C6.67162 19.6048 6.68178 19.6506 6.70282 19.6917C6.72386 19.7328 6.75508 19.7678 6.7935 19.7933C6.87131 19.8455 6.97097 19.8534 7.05694 19.8143L7.89731 19.4309C7.965 19.4685 8.03309 19.5052 8.10159 19.5408L8.25028 20.4527C8.26528 20.5455 8.32734 20.624 8.41406 20.6605C8.50059 20.6965 8.60044 20.6849 8.67563 20.6302L9.42469 20.091C9.49866 20.1144 9.573 20.1374 9.64866 20.1589L9.97116 21.0242C9.98723 21.0674 10.0141 21.1058 10.0493 21.1357C10.0844 21.1657 10.1266 21.1861 10.1719 21.195C10.2171 21.2041 10.264 21.2014 10.3079 21.1872C10.3518 21.173 10.3913 21.1478 10.4228 21.114L11.0535 20.4368C11.1296 20.4456 11.2063 20.4529 11.2828 20.4597L11.7702 21.2462C11.7944 21.2853 11.8282 21.3176 11.8683 21.34C11.9084 21.3625 11.9536 21.3743 11.9995 21.3745C12.0925 21.3745 12.1806 21.3258 12.2307 21.2462L12.7181 20.4597C12.7947 20.4531 12.8711 20.4454 12.9474 20.4368L13.5782 21.114C13.6096 21.1478 13.6491 21.173 13.6931 21.1872C13.737 21.2014 13.7838 21.2041 13.8291 21.195C13.8743 21.1861 13.9166 21.1657 13.9517 21.1358C13.9869 21.1059 14.0137 21.0675 14.0297 21.0242L14.3523 20.1589C14.4271 20.1374 14.5015 20.1144 14.5763 20.091L15.3252 20.6302C15.3627 20.6573 15.4065 20.6742 15.4525 20.6795C15.4984 20.6848 15.5449 20.6782 15.5875 20.6604C15.6302 20.6426 15.6676 20.6142 15.6961 20.5778C15.7247 20.5414 15.7434 20.4984 15.7506 20.4527L15.8993 19.5408C15.9682 19.5051 16.0362 19.468 16.1036 19.4309L16.944 19.8143C16.986 19.8336 17.0322 19.8418 17.0783 19.8381C17.1243 19.8345 17.1687 19.8191 17.2071 19.7935C17.2455 19.7679 17.2768 19.7328 17.2979 19.6918C17.319 19.6507 17.3292 19.6049 17.3276 19.5587L17.2954 18.6324C17.3553 18.5847 17.4145 18.5361 17.4729 18.4866L18.3742 18.698C18.4192 18.7087 18.4662 18.7077 18.5108 18.6951C18.5554 18.6825 18.596 18.6587 18.6287 18.626C18.6613 18.5935 18.6851 18.5533 18.6977 18.5091C18.7104 18.4648 18.7114 18.4181 18.7009 18.3733L18.4894 17.4721C18.539 17.4137 18.5876 17.3544 18.6353 17.2944L19.5617 17.3268C19.6078 17.3286 19.6537 17.3184 19.6947 17.2974C19.7358 17.2763 19.7708 17.2451 19.7963 17.2066C19.8221 17.1682 19.8376 17.1238 19.8413 17.0777C19.8451 17.0316 19.8369 16.9853 19.8175 16.9432L19.4341 16.103C19.4716 16.0351 19.5082 15.967 19.5438 15.8987L20.4558 15.7504C20.5013 15.7431 20.5442 15.7242 20.5803 15.6955C20.6164 15.6668 20.6445 15.6293 20.6618 15.5866C20.6795 15.544 20.686 15.4976 20.6807 15.4518C20.6753 15.4061 20.6584 15.3624 20.6314 15.325L20.092 14.5762C20.1154 14.5021 20.1381 14.4277 20.1598 14.3522L21.0252 14.0297C21.0685 14.0136 21.1069 13.9867 21.1368 13.9516C21.1667 13.9164 21.1871 13.8742 21.196 13.829C21.2051 13.7837 21.2024 13.7369 21.1882 13.693C21.174 13.6491 21.1488 13.6096 21.115 13.5782L20.4377 12.9475C20.4459 12.8713 20.4534 12.7948 20.4601 12.7182L21.2468 12.2309C21.2859 12.2068 21.3182 12.173 21.3407 12.1329C21.3631 12.0927 21.3749 12.0475 21.375 12.0015C21.375 11.9086 21.3266 11.8206 21.2468 11.7704H21.2413ZM15.9733 18.3099C15.6723 18.2451 15.4823 17.948 15.5468 17.647C15.5621 17.5755 15.5913 17.5076 15.6328 17.4474C15.6743 17.3872 15.7273 17.3357 15.7887 17.2959C15.8501 17.2561 15.9188 17.2289 15.9907 17.2156C16.0627 17.2024 16.1365 17.2035 16.2081 17.2188C16.5091 17.2831 16.7008 17.5807 16.6363 17.8817C16.621 17.9532 16.5918 18.0211 16.5503 18.0813C16.5088 18.1416 16.4558 18.193 16.3944 18.2328C16.333 18.2726 16.2644 18.2999 16.1924 18.3131C16.1205 18.3263 16.0466 18.3253 15.9751 18.3099H15.9733ZM15.7063 16.5004C15.4322 16.4416 15.1616 16.6161 15.1043 16.8909L14.8248 18.1952C13.9628 18.5858 12.997 18.8044 11.9936 18.8044C10.9615 18.8044 9.98681 18.5768 9.10875 18.1684L8.82928 16.864C8.7705 16.5899 8.50134 16.4143 8.22722 16.4735L7.07503 16.7207C6.86139 16.5 6.66264 16.2654 6.48009 16.0184H12.0886C12.1521 16.0184 12.1943 16.007 12.1943 15.9492V13.9605C12.1943 13.9028 12.1521 13.8914 12.0886 13.8914H10.4491V12.6354H12.2212C12.383 12.6354 13.0867 12.6817 13.3106 13.5814C13.381 13.8573 13.5364 14.7567 13.6421 15.0452C13.7475 15.3677 14.1761 16.0127 14.6331 16.0127H17.4283C17.46 16.0127 17.4938 16.009 17.5296 16.0027C17.3357 16.2655 17.1237 16.5146 16.8953 16.748L15.7162 16.4953L15.7063 16.5004ZM7.94766 18.283C7.87611 18.2984 7.80223 18.2996 7.73025 18.2864C7.65827 18.2732 7.58959 18.2459 7.52817 18.2061C7.46674 18.1664 7.41377 18.1148 7.37229 18.0545C7.33081 17.9943 7.30163 17.9264 7.28644 17.8548C7.22213 17.5538 7.41338 17.2564 7.71469 17.1919C7.78623 17.1766 7.86008 17.1755 7.93203 17.1887C8.00398 17.2019 8.07263 17.2292 8.13403 17.269C8.19544 17.3088 8.2484 17.3602 8.2899 17.4205C8.33141 17.4807 8.36063 17.5486 8.37591 17.6201C8.44022 17.9212 8.24888 18.2185 7.94766 18.283ZM5.81541 9.66525C5.87525 9.80047 5.87905 9.95389 5.82598 10.0919C5.77291 10.2299 5.6673 10.3413 5.53228 10.4016C5.39732 10.4614 5.2441 10.4652 5.10633 10.4122C4.96855 10.3591 4.85749 10.2535 4.79756 10.1185C4.67222 9.83756 4.79972 9.50756 5.08069 9.38212C5.21567 9.32227 5.36889 9.31847 5.50667 9.37157C5.64445 9.42466 5.7555 9.5303 5.81541 9.66525ZM5.16131 11.2133L6.36188 10.6793C6.61809 10.5655 6.73463 10.2654 6.61988 10.0092L6.37266 9.45028H7.34381V13.8218H5.39072C5.21688 13.2099 5.12885 12.5768 5.12916 11.9407C5.12915 11.6947 5.14224 11.4489 5.16834 11.2043L5.16131 11.2133ZM10.4294 10.7886V9.49866H12.7408C12.8603 9.49866 13.5848 9.63675 13.5848 10.1777C13.5848 10.6273 13.0293 10.7886 12.5724 10.7886H10.4222H10.4294ZM18.8331 11.9496C18.8331 12.1208 18.8268 12.29 18.8143 12.4584H18.1101C18.0397 12.4584 18.0113 12.5047 18.0113 12.5736V12.8961C18.0113 13.6557 17.5831 13.8224 17.2068 13.8636C16.8485 13.9039 16.4525 13.7138 16.4041 13.4945C16.1926 12.3067 15.8414 12.054 15.2859 11.6133C15.9758 11.1761 16.6926 10.5293 16.6926 9.66037C16.6926 8.727 16.0529 8.13928 15.6174 7.85081C15.0047 7.44769 14.3273 7.36706 14.1445 7.36706H6.86972C7.85691 6.26709 9.19913 5.48588 10.7042 5.19919L11.5626 6.09863C11.6086 6.14695 11.6638 6.18571 11.7248 6.2127C11.7859 6.23969 11.8517 6.25437 11.9184 6.2559C11.9851 6.25744 12.0515 6.24579 12.1137 6.22163C12.176 6.19748 12.2328 6.16128 12.2811 6.11513L13.2414 5.19778C15.2483 5.57222 16.9506 6.82284 17.9361 8.54813L17.2785 10.0316C17.1651 10.2878 17.2808 10.5889 17.5365 10.7017L18.8016 11.2642C18.8234 11.4882 18.8348 11.7157 18.8348 11.9451L18.8331 11.9496ZM11.5583 4.44263C11.611 4.39204 11.6733 4.35237 11.7414 4.32589C11.8095 4.29942 11.8822 4.28665 11.9553 4.28833C12.0284 4.29001 12.1004 4.30611 12.1672 4.33569C12.2341 4.36527 12.2944 4.40776 12.3448 4.46072C12.4466 4.56785 12.5018 4.71095 12.4984 4.8587C12.4949 5.00645 12.4331 5.14682 12.3263 5.24906C12.2736 5.29967 12.2113 5.33935 12.1432 5.36584C12.0751 5.39232 12.0024 5.40508 11.9293 5.40338C11.8562 5.40168 11.7841 5.38556 11.7173 5.35594C11.6505 5.32632 11.5901 5.28379 11.5398 5.23078C11.438 5.12365 11.3828 4.98055 11.3862 4.8328C11.3897 4.68505 11.4515 4.54469 11.5583 4.44244V4.44263ZM18.0805 9.69216C18.1101 9.62524 18.1525 9.56481 18.2055 9.51434C18.2584 9.46387 18.3208 9.42435 18.3891 9.39804C18.4573 9.37174 18.5301 9.35917 18.6032 9.36105C18.6763 9.36294 18.7484 9.37924 18.8152 9.40903C18.8821 9.43879 18.9425 9.48144 18.993 9.53455C19.0435 9.58767 19.083 9.6502 19.1093 9.71859C19.1356 9.78697 19.1481 9.85987 19.1462 9.9331C19.1443 10.0063 19.1281 10.0785 19.0983 10.1454C19.0687 10.2123 19.0262 10.2727 18.9733 10.3232C18.9203 10.3736 18.8579 10.4131 18.7897 10.4394C18.7215 10.4657 18.6487 10.4782 18.5756 10.4764C18.5025 10.4745 18.4305 10.4582 18.3637 10.4285C18.2967 10.3987 18.2363 10.3561 18.1858 10.303C18.1354 10.2498 18.0959 10.1873 18.0696 10.119C18.0433 10.0506 18.0307 9.9777 18.0326 9.90447C18.0345 9.83124 18.0508 9.75909 18.0805 9.69216Z" fill="white"/>
</g>
<defs>
<clipPath id="clip0_523_6657">
<rect width="24" height="24" fill="white"/>
</clipPath>
</defs>
</svg>
