<svg width="24" height="24" viewBox="0 0 24 24" fill="none" xmlns="http://www.w3.org/2000/svg">
<path fill-rule="evenodd" clip-rule="evenodd" d="M3 12C3 13.1819 3.23279 14.3522 3.68508 15.4442C4.13738 16.5361 4.80031 17.5282 5.63604 18.364C6.47177 19.1997 7.46392 19.8626 8.55585 20.3149C9.64778 20.7672 10.8181 21 12 21C13.1819 21 14.3522 20.7672 15.4442 20.3149C16.5361 19.8626 17.5282 19.1997 18.364 18.364C19.1997 17.5282 19.8626 16.5361 20.3149 15.4442C20.7672 14.3522 21 13.1819 21 12C21 9.61305 20.0518 7.32387 18.364 5.63604C16.6761 3.94821 14.3869 3 12 3C9.61305 3 7.32387 3.94821 5.63604 5.63604C3.94821 7.32387 3 9.61305 3 12Z" fill="#0C0C4F"/>
<path fill-rule="evenodd" clip-rule="evenodd" d="M8.02585 9.87955L8.24786 9.19355C8.27035 9.12503 8.30897 9.06292 8.36049 9.01245C8.412 8.96198 8.47489 8.92463 8.54385 8.90355L9.23386 8.69055C9.25471 8.68414 9.27296 8.67121 9.28593 8.65366C9.2989 8.63611 9.30589 8.61487 9.30589 8.59305C9.30589 8.57123 9.2989 8.54999 9.28593 8.53244C9.27296 8.51489 9.25471 8.50196 9.23386 8.49555L8.54785 8.27355C8.47945 8.25116 8.41741 8.21268 8.36695 8.16135C8.31649 8.11002 8.27908 8.04733 8.25785 7.97855L8.04485 7.28855C8.01585 7.19355 7.88085 7.19255 7.85085 7.28755L7.62885 7.97355C7.6065 8.04225 7.56793 8.10456 7.51641 8.15522C7.46489 8.20587 7.40193 8.24337 7.33285 8.26455L6.64285 8.47655C6.62196 8.48285 6.60365 8.49569 6.59059 8.51317C6.57753 8.53065 6.57043 8.55186 6.57031 8.57368C6.5702 8.5955 6.57709 8.61678 6.58997 8.6344C6.60284 8.65201 6.62103 8.66503 6.64185 8.67155L7.32785 8.89355C7.39674 8.91577 7.45926 8.95427 7.51009 9.0058C7.56092 9.05733 7.59858 9.12036 7.61985 9.18955L7.83085 9.87855C7.86085 9.97355 7.99485 9.97455 8.02585 9.87955Z" fill="#FAFAFA"/>
<path fill-rule="evenodd" clip-rule="evenodd" d="M18.9276 9.48032C18.6436 9.16232 18.1996 8.98332 17.7676 8.91032C17.3299 8.84119 16.8839 8.84525 16.4476 8.92232C15.5796 9.06932 14.7906 9.42932 14.1016 9.87232C13.7446 10.0903 13.4396 10.3423 13.1236 10.5993C12.9716 10.7293 12.8336 10.8673 12.6886 11.0033L12.2936 11.3963C11.8955 11.8172 11.4749 12.2161 11.0336 12.5913C10.6226 12.9283 10.2386 13.1843 9.85956 13.3623C9.48156 13.5423 9.07656 13.6483 8.54956 13.6653C8.02656 13.6833 7.40756 13.5893 6.74656 13.4333C6.08156 13.2783 5.38256 13.0573 4.60156 12.8673C4.87494 13.6146 5.28529 14.3044 5.81156 14.9013C6.34356 15.5013 7.00956 16.0473 7.86356 16.4073C8.77551 16.793 9.78185 16.8974 10.7536 16.7073C11.7466 16.5163 12.6176 16.0573 13.3216 15.5263C13.9861 15.0149 14.5776 14.415 15.0796 13.7433C15.2126 13.5673 15.2826 13.4693 15.3786 13.3323L15.6446 12.9383C15.8286 12.6943 15.9976 12.4183 16.1796 12.1763C16.5386 11.6713 16.8916 11.1663 17.3026 10.7013C17.5086 10.4653 17.7266 10.2403 17.9836 10.0233C18.1126 9.91732 18.2516 9.81332 18.4046 9.72032C18.5606 9.62032 18.7246 9.54032 18.9276 9.48032Z" fill="url(#paint0_linear_478_6081)"/>
<path fill-rule="evenodd" clip-rule="evenodd" d="M18.9276 9.47908C18.6226 8.70908 18.0546 8.06008 17.2926 7.58108C16.4379 7.0626 15.4208 6.88113 14.4396 7.07208C13.9246 7.17208 13.4256 7.36408 12.9876 7.61908C12.5643 7.86701 12.1731 8.16591 11.8226 8.50908C11.6581 8.67258 11.4999 8.84237 11.3486 9.01808L10.9536 9.52108L10.3436 10.3311C9.56756 11.3731 8.73056 12.5941 7.35756 12.9561C6.00956 13.3111 5.42456 12.9961 4.60156 12.8661C4.75156 13.2551 4.93856 13.6321 5.19156 13.9641C5.43956 14.3021 5.73156 14.6201 6.09656 14.8931C6.28056 15.0231 6.47456 15.1531 6.69056 15.2631C6.90456 15.3681 7.13656 15.4621 7.38356 15.5321C7.89795 15.6738 8.4355 15.7112 8.96456 15.6421C9.48585 15.5692 9.9916 15.4111 10.4616 15.1741C10.8886 14.9593 11.2899 14.6966 11.6576 14.3911C12.3036 13.8462 12.8749 13.2185 13.3566 12.5241C13.5859 12.1994 13.7972 11.8714 13.9906 11.5401L14.2176 11.1481C14.2876 11.0321 14.3582 10.9194 14.4296 10.8101C14.7186 10.3781 15.0006 10.0321 15.3436 9.77108C15.6826 9.50508 16.1536 9.30808 16.7826 9.26108C17.4096 9.21508 18.1326 9.30108 18.9276 9.48008" fill="#FAFAFA"/>
<path fill-rule="evenodd" clip-rule="evenodd" d="M15.5396 15.8846C15.5353 16.022 15.5586 16.1588 15.6082 16.287C15.6578 16.4151 15.7327 16.532 15.8283 16.6307C15.924 16.7294 16.0385 16.8078 16.165 16.8614C16.2916 16.915 16.4276 16.9426 16.5651 16.9426C16.7025 16.9426 16.8385 16.915 16.9651 16.8614C17.0916 16.8078 17.2061 16.7294 17.3018 16.6307C17.3974 16.532 17.4723 16.4151 17.5219 16.287C17.5715 16.1588 17.5949 16.022 17.5906 15.8846C17.5822 15.6182 17.4706 15.3654 17.2791 15.1799C17.0877 14.9944 16.8316 14.8906 16.5651 14.8906C16.2985 14.8906 16.0424 14.9944 15.851 15.1799C15.6596 15.3654 15.5479 15.6182 15.5396 15.8846Z" fill="#EC796B"/>
<defs>
<linearGradient id="paint0_linear_478_6081" x1="20.8996" y1="3.79132" x2="-13.6104" y2="13.7413" gradientUnits="userSpaceOnUse">
<stop stop-color="#EC796B"/>
<stop offset="1" stop-color="#D672EF"/>
</linearGradient>
</defs>
</svg>
