<svg width="24" height="24" viewBox="0 0 24 24" fill="none" xmlns="http://www.w3.org/2000/svg">
<path d="M20.8125 13.5V19.5C20.8125 19.6492 20.7532 19.7923 20.6477 19.8977C20.5423 20.0032 20.3992 20.0625 20.25 20.0625H3.75C3.60082 20.0625 3.45774 20.0032 3.35225 19.8977C3.24676 19.7923 3.1875 19.6492 3.1875 19.5V13.5C3.1875 13.3508 3.24676 13.2077 3.35225 13.1022C3.45774 12.9968 3.60082 12.9375 3.75 12.9375C3.89918 12.9375 4.04226 12.9968 4.14775 13.1022C4.25324 13.2077 4.3125 13.3508 4.3125 13.5V18.9375H19.6875V13.5C19.6875 13.3508 19.7468 13.2077 19.8523 13.1022C19.9577 12.9968 20.1008 12.9375 20.25 12.9375C20.3992 12.9375 20.5423 12.9968 20.6477 13.1022C20.7532 13.2077 20.8125 13.3508 20.8125 13.5ZM8.6475 7.14749L11.4375 4.35843V13.5C11.4375 13.6492 11.4968 13.7923 11.6023 13.8977C11.7077 14.0032 11.8508 14.0625 12 14.0625C12.1492 14.0625 12.2923 14.0032 12.3977 13.8977C12.5032 13.7923 12.5625 13.6492 12.5625 13.5V4.35843L15.3525 7.14749C15.4591 7.24685 15.6002 7.30095 15.7459 7.29837C15.8916 7.2958 16.0307 7.23677 16.1337 7.13371C16.2368 7.03065 16.2958 6.89161 16.2984 6.74588C16.301 6.60016 16.2469 6.45912 16.1475 6.35249L12.3975 2.60249C12.292 2.49716 12.1491 2.43799 12 2.43799C11.8509 2.43799 11.708 2.49716 11.6025 2.60249L7.8525 6.35249C7.75314 6.45912 7.69905 6.60016 7.70162 6.74588C7.70419 6.89161 7.76322 7.03065 7.86628 7.13371C7.96934 7.23677 8.10838 7.2958 8.25411 7.29837C8.39983 7.30095 8.54087 7.24685 8.6475 7.14749Z" fill="#6C6C6C"/>
</svg>
