<svg width="24" height="25" viewBox="0 0 24 25" fill="none" xmlns="http://www.w3.org/2000/svg">
<path d="M2 3H22C22.0994 3 22.1958 3.02963 22.2773 3.08398L22.3535 3.14648C22.4473 3.24025 22.5 3.36739 22.5 3.5V11.5C22.5 11.6326 22.4473 11.7597 22.3535 11.8535C22.2597 11.9473 22.1326 12 22 12H18.5V21.5C18.5 21.6326 18.4473 21.7597 18.3535 21.8535C18.2597 21.9473 18.1326 22 18 22H6C5.86739 22 5.74025 21.9473 5.64648 21.8535C5.55272 21.7597 5.5 21.6326 5.5 21.5V12H2C1.90056 12 1.80419 11.9704 1.72266 11.916L1.64648 11.8535C1.55272 11.7597 1.5 11.6326 1.5 11.5V3.5L1.50977 3.40234C1.52255 3.33817 1.54769 3.2771 1.58398 3.22266L1.64648 3.14648C1.71689 3.07608 1.80611 3.02894 1.90234 3.00977L2 3ZM6.5 21H9.5V20.5C9.5 19.837 9.23642 19.2013 8.76758 18.7324C8.29874 18.2636 7.66304 18 7 18H6.5V21ZM6.5 17H7C7.92826 17 8.81823 17.369 9.47461 18.0254C10.131 18.6818 10.5 19.5717 10.5 20.5V21H13.5V20.5C13.5 19.5717 13.869 18.6818 14.5254 18.0254C15.1818 17.369 16.0717 17 17 17H17.5V8H6.5V17ZM17 18C16.337 18 15.7013 18.2636 15.2324 18.7324C14.7636 19.2013 14.5 19.837 14.5 20.5V21H17.5V18H17ZM11.043 10.1904C11.4996 10.0013 12.0025 9.95151 12.4873 10.0479C12.9723 10.1443 13.4179 10.3828 13.7676 10.7324C14.1172 11.0821 14.3557 11.5277 14.4521 12.0127C14.5485 12.4975 14.4987 13.0004 14.3096 13.457C14.1203 13.9137 13.7997 14.3045 13.3887 14.5791C12.9776 14.8536 12.4943 15 12 15C11.337 15 10.7013 14.7364 10.2324 14.2676C9.76358 13.7987 9.5 13.163 9.5 12.5C9.5 12.0674 9.61216 11.6432 9.82422 11.2686L9.9209 11.1113C10.1955 10.7003 10.5863 10.3797 11.043 10.1904ZM12 11C11.6022 11 11.2208 11.1581 10.9395 11.4395C10.6581 11.7208 10.5 12.1022 10.5 12.5C10.5 12.7966 10.5882 13.0864 10.7529 13.333C10.9177 13.5796 11.1518 13.7722 11.4258 13.8857C11.6999 13.9993 12.002 14.0286 12.293 13.9707C12.5838 13.9128 12.8509 13.7702 13.0605 13.5605C13.2702 13.3509 13.4128 13.0838 13.4707 12.793C13.5286 12.502 13.4993 12.1999 13.3857 11.9258C13.2722 11.6518 13.0796 11.4177 12.833 11.2529C12.5864 11.0882 12.2966 11 12 11ZM2.5 11H5.5V7.5C5.5 7.36739 5.55272 7.24025 5.64648 7.14648C5.74025 7.05272 5.86739 7 6 7H18C18.1326 7 18.2597 7.05272 18.3535 7.14648C18.4473 7.24025 18.5 7.36739 18.5 7.5V11H21.5V4H2.5V11Z" stroke="white"/>
</svg>
