<svg width="33" height="33" viewBox="0 0 33 33" fill="none" xmlns="http://www.w3.org/2000/svg">
<path fill-rule="evenodd" clip-rule="evenodd" d="M16.7752 4.5C13.7638 4.5 11.0205 5.49467 9.39717 6.30733C9.25051 6.38067 9.11362 6.45222 8.98651 6.522C8.73451 6.65933 8.51984 6.78733 8.34917 6.9L10.1958 9.61867L11.0652 9.96467C14.4625 11.6787 19.0185 11.6787 22.4165 9.96467L23.4032 9.45267L25.1492 6.9C24.7871 6.66474 24.4111 6.45168 24.0232 6.262C22.4078 5.458 19.7298 4.5 16.7758 4.5M12.4812 7.57733C11.8274 7.4543 11.1816 7.29223 10.5472 7.092C12.0678 6.41667 14.3338 5.7 16.7758 5.7C18.4672 5.7 20.0665 6.044 21.3892 6.48C19.8392 6.698 18.1852 7.068 16.6092 7.52333C15.3692 7.882 13.9198 7.84333 12.4812 7.57733ZM23.1212 10.9533L22.9572 11.036C19.2198 12.9213 14.2625 12.9213 10.5252 11.036L10.3698 10.9573C4.75451 17.118 0.467841 28.498 16.7752 28.498C33.0825 28.498 28.6918 16.9067 23.1212 10.9533ZM16.0825 16.5C15.7289 16.5 15.3897 16.6405 15.1397 16.8905C14.8897 17.1406 14.7492 17.4797 14.7492 17.8333C14.7492 18.187 14.8897 18.5261 15.1397 18.7761C15.3897 19.0262 15.7289 19.1667 16.0825 19.1667V16.5ZM17.4158 15.1667V14.5H16.0825V15.1667C15.3753 15.1667 14.697 15.4476 14.1969 15.9477C13.6968 16.4478 13.4158 17.1261 13.4158 17.8333C13.4158 18.5406 13.6968 19.2189 14.1969 19.719C14.697 20.219 15.3753 20.5 16.0825 20.5V23.1667C15.5025 23.1667 15.0085 22.7967 14.8245 22.278C14.7972 22.1931 14.7532 22.1146 14.695 22.0471C14.6368 21.9795 14.5657 21.9244 14.4858 21.8848C14.4059 21.8452 14.3189 21.8221 14.23 21.8167C14.141 21.8113 14.0518 21.8239 13.9678 21.8536C13.8837 21.8833 13.8065 21.9295 13.7406 21.9896C13.6748 22.0497 13.6216 22.1223 13.5843 22.2033C13.5471 22.2843 13.5264 22.3719 13.5235 22.461C13.5207 22.5501 13.5358 22.6388 13.5678 22.722C13.7517 23.242 14.0922 23.6923 14.5426 24.0107C14.9929 24.3291 15.5309 24.5001 16.0825 24.5V25.1667H17.4158V24.5C18.1231 24.5 18.8014 24.219 19.3015 23.719C19.8016 23.2189 20.0825 22.5406 20.0825 21.8333C20.0825 21.1261 19.8016 20.4478 19.3015 19.9477C18.8014 19.4476 18.1231 19.1667 17.4158 19.1667V16.5C17.9958 16.5 18.4898 16.87 18.6738 17.3887C18.7011 17.4735 18.7452 17.552 18.8034 17.6196C18.8615 17.6871 18.9327 17.7423 19.0125 17.7819C19.0924 17.8215 19.1794 17.8446 19.2684 17.85C19.3574 17.8553 19.4465 17.8428 19.5306 17.8131C19.6146 17.7834 19.6919 17.7371 19.7577 17.6771C19.8236 17.617 19.8767 17.5443 19.914 17.4634C19.9513 17.3824 19.972 17.2948 19.9748 17.2057C19.9776 17.1166 19.9626 17.0278 19.9305 16.9447C19.7467 16.4246 19.4062 15.9744 18.9558 15.656C18.5054 15.3375 17.9674 15.1666 17.4158 15.1667ZM17.4158 20.5V23.1667C17.7695 23.1667 18.1086 23.0262 18.3586 22.7761C18.6087 22.5261 18.7492 22.187 18.7492 21.8333C18.7492 21.4797 18.6087 21.1406 18.3586 20.8905C18.1086 20.6405 17.7695 20.5 17.4158 20.5Z" fill="white"/>
</svg>
