<svg width="32" height="33" viewBox="0 0 32 33" fill="none" xmlns="http://www.w3.org/2000/svg">
<path d="M22.6654 16.5007C18.9854 16.5007 15.9987 19.4873 15.9987 23.1673C15.9987 26.8473 18.9854 29.834 22.6654 29.834C26.3454 29.834 29.332 26.8473 29.332 23.1673C29.332 19.4873 26.3454 16.5007 22.6654 16.5007ZM24.8654 26.3007L21.9987 23.434V19.1673H23.332V22.8873L25.7987 25.354L24.8654 26.3007ZM23.9987 4.50065H19.7587C19.1987 2.95398 17.732 1.83398 15.9987 1.83398C14.2654 1.83398 12.7987 2.95398 12.2387 4.50065H7.9987C6.53203 4.50065 5.33203 5.70065 5.33203 7.16732V27.1673C5.33203 28.634 6.53203 29.834 7.9987 29.834H16.1454C15.3555 29.0692 14.7137 28.1651 14.252 27.1673H7.9987V7.16732H10.6654V11.1673H21.332V7.16732H23.9987V13.9407C24.9454 14.074 25.8387 14.354 26.6654 14.7407V7.16732C26.6654 5.70065 25.4654 4.50065 23.9987 4.50065ZM15.9987 7.16732C15.2654 7.16732 14.6654 6.56732 14.6654 5.83398C14.6654 5.10065 15.2654 4.50065 15.9987 4.50065C16.732 4.50065 17.332 5.10065 17.332 5.83398C17.332 6.56732 16.732 7.16732 15.9987 7.16732Z" fill="white"/>
</svg>
