<svg width="33" height="33" viewBox="0 0 33 33" fill="none" xmlns="http://www.w3.org/2000/svg">
<path d="M25.5833 17.8333C26.5167 17.8333 27.41 18.0067 28.25 18.3V12.5L20.25 4.5H6.91667C5.43667 4.5 4.25 5.68667 4.25 7.16667V25.8333C4.25 26.5406 4.53095 27.2189 5.03105 27.719C5.53115 28.219 6.20942 28.5 6.91667 28.5H18.05C17.7567 27.66 17.5833 26.7667 17.5833 25.8333C17.5833 21.42 21.17 17.8333 25.5833 17.8333ZM18.9167 6.5L26.25 13.8333H18.9167V6.5ZM30.25 23.5L23.9167 29.8333L20.25 25.8333L21.7967 24.2867L23.9167 26.4067L28.7033 21.62L30.25 23.5Z" fill="white"/>
</svg>
