<svg width="33" height="33" viewBox="0 0 33 33" fill="none" xmlns="http://www.w3.org/2000/svg">
<path d="M8.10645 10.0273L12.0254 19.3291C12.1854 19.9152 12.1841 20.3937 12.0742 20.7803C11.9637 21.169 11.7346 21.4994 11.3867 21.7744C10.6727 22.3389 9.45444 22.6669 7.83398 22.667C6.21426 22.667 5.02748 22.3392 4.3291 21.7773C3.68375 21.2579 3.38243 20.479 3.64453 19.3193L7.56055 10.0273L7.83301 9.37988L8.10645 10.0273ZM25.4395 10.0273L29.3584 19.3271C29.5189 19.9142 29.5172 20.3933 29.4072 20.7803C29.2967 21.169 29.0676 21.4994 28.7197 21.7744C28.0056 22.3388 26.7875 22.667 25.167 22.667C23.5471 22.667 22.3605 22.3393 21.6621 21.7773C21.0162 21.2575 20.7161 20.4778 20.9795 19.3164L24.8945 10.0273L25.166 9.37988L25.4395 10.0273ZM7.36914 13.9814L5.36914 18.9814L5.09473 19.667H10.5723L10.2979 18.9814L8.29785 13.9814L7.83398 12.8203L7.36914 13.9814ZM24.7031 13.9814L22.7031 18.9814L22.4287 19.667H27.9053L27.6309 18.9814L25.6309 13.9814L25.167 12.8203L24.7031 13.9814ZM16.5 6.66699C16.0745 6.66705 15.6641 6.81459 15.3379 7.08203L15.2041 7.2041C14.8604 7.54791 14.667 8.01382 14.667 8.5C14.667 8.9255 14.8147 9.33586 15.082 9.66211L15.2041 9.7959C15.5479 10.1397 16.0139 10.3329 16.5 10.333C16.9255 10.333 17.3359 10.1853 17.6621 9.91797L17.7969 9.7959C18.1405 9.45212 18.334 8.98606 18.334 8.5C18.334 8.0744 18.1854 7.66418 17.918 7.33789L17.7969 7.2041C17.4531 6.86028 16.9862 6.66699 16.5 6.66699ZM15.667 11.9307L15.3477 11.8076C14.3452 11.4184 13.5826 10.6548 13.1934 9.65234L13.0693 9.33301H5V7.66699H13.0947L13.2119 7.33203C13.7016 5.93297 15.0189 5.0001 16.5 5C17.9804 5 19.2999 5.9323 19.8027 7.33496L19.9219 7.66699H28V9.33301H19.9141L19.792 9.65723C19.416 10.6558 18.6558 11.4161 17.6572 11.792L17.334 11.9141V27.667H29.334V29.333H3.66699V27.667H15.667V11.9307Z" fill="white" stroke="white"/>
</svg>
