<svg width="24" height="25" viewBox="0 0 24 25" fill="none" xmlns="http://www.w3.org/2000/svg">
<path d="M5.25 6.5V8.75H3.75V6.5H1.5V5H3.75V2.75H5.25V5H7.5V6.5H5.25ZM16.815 20.0075L21.3375 15.485C22.8825 13.94 22.8825 11.4425 21.3375 9.905C19.7925 8.3675 17.295 8.36 15.7575 9.905L16.815 10.9625C17.2755 10.5049 17.8983 10.248 18.5475 10.248C19.1967 10.248 19.8195 10.5049 20.28 10.9625C20.7376 11.423 20.9945 12.0458 20.9945 12.695C20.9945 13.3442 20.7376 13.967 20.28 14.4275L15.7575 18.95C15.297 19.4076 14.6742 19.6645 14.025 19.6645C13.3758 19.6645 12.753 19.4076 12.2925 18.95C11.8349 18.4895 11.578 17.8667 11.578 17.2175C11.578 16.5683 11.8349 15.9455 12.2925 15.485L11.235 14.4275C10.4925 15.17 10.08 16.175 10.08 17.225C10.08 19.4075 11.85 21.17 14.0325 21.17C15.0825 21.17 16.0875 20.7575 16.8225 20.015L16.815 20.0075ZM10.4925 21.845L9.435 20.7875C8.97583 21.2418 8.35596 21.4967 7.71 21.4967C7.06404 21.4967 6.44417 21.2418 5.985 20.7875C5.5241 20.3297 5.26366 19.7077 5.26085 19.0581C5.25804 18.4085 5.51308 17.7843 5.97 17.3225L10.4925 12.8L10.5075 12.785C11.4675 11.8325 13.02 11.84 13.9725 12.8C14.925 13.76 14.9175 15.3125 13.9575 16.265L15.015 17.3225L15.0375 17.3C15.4025 16.9322 15.6914 16.4961 15.8879 16.0165C16.0843 15.537 16.1843 15.0235 16.1822 14.5053C16.1801 13.9872 16.0759 13.4745 15.8757 12.9966C15.6754 12.5186 15.3829 12.0849 15.015 11.72C14.6472 11.355 14.2111 11.0661 13.7315 10.8696C13.252 10.6732 12.7385 10.5732 12.2203 10.5753C11.7022 10.5774 11.1895 10.6816 10.7116 10.8818C10.2336 11.0821 9.79986 11.3746 9.435 11.7425L4.9125 16.265C4.17067 17.0043 3.75257 18.0077 3.75 19.055C3.75 21.2375 5.5275 23 7.7025 23C8.7525 23 9.7575 22.5875 10.4925 21.845Z" fill="white"/>
</svg>
