<svg width="24" height="25" viewBox="0 0 24 25" fill="none" xmlns="http://www.w3.org/2000/svg">
<path d="M12 19.5H6C5.20435 19.5 4.44129 19.1839 3.87868 18.6213C3.31607 18.0587 3 17.2956 3 16.5V8.5C3 7.70435 3.31607 6.94129 3.87868 6.37868C4.44129 5.81607 5.20435 5.5 6 5.5H18C18.7956 5.5 19.5587 5.81607 20.1213 6.37868C20.6839 6.94129 21 7.70435 21 8.5V13M3 10.5H21M7 15.5H7.01M11 15.5H13M16 19.5H22M16 19.5L19 16.5M16 19.5L19 22.5" stroke="white" stroke-width="2" stroke-linecap="round" stroke-linejoin="round"/>
</svg>
