<svg width="24" height="25" viewBox="0 0 24 25" fill="none" xmlns="http://www.w3.org/2000/svg">
<path d="M16.5 20C17.3284 20 18 19.3284 18 18.5C18 17.6716 17.3284 17 16.5 17C15.6716 17 15 17.6716 15 18.5C15 19.3284 15.6716 20 16.5 20Z" fill="white"/>
<path d="M22.3328 18.1093C21.8693 16.9287 21.0697 15.91 20.0329 15.1796C18.9961 14.4491 17.7677 14.039 16.5 14C15.2323 14.039 14.0039 14.4491 12.9671 15.1796C11.9303 15.91 11.1307 16.9287 10.6672 18.1093L10.5 18.5L10.6672 18.8915C11.1308 20.0719 11.9305 21.0904 12.9673 21.8207C14.0041 22.551 15.2324 22.9611 16.5 23C17.7676 22.9611 18.9959 22.551 20.0327 21.8207C21.0695 21.0904 21.8692 20.0719 22.3328 18.8915L22.5 18.5L22.3328 18.1093ZM16.5 21.5C15.9067 21.5 15.3266 21.3241 14.8333 20.9944C14.3399 20.6648 13.9554 20.1962 13.7284 19.648C13.5013 19.0999 13.4419 18.4967 13.5576 17.9147C13.6734 17.3328 13.9591 16.7982 14.3787 16.3787C14.7982 15.9591 15.3328 15.6734 15.9147 15.5576C16.4967 15.4419 17.0999 15.5013 17.648 15.7284C18.1962 15.9554 18.6648 16.3399 18.9944 16.8333C19.3241 17.3266 19.5 17.9067 19.5 18.5C19.499 19.2953 19.1826 20.0578 18.6202 20.6202C18.0578 21.1826 17.2953 21.499 16.5 21.5Z" fill="white"/>
<path d="M9 21.5003H6V3.50034H12V8.00034C12.0012 8.3978 12.1596 8.77865 12.4407 9.05969C12.7217 9.34074 13.1025 9.49916 13.5 9.50034H18V12.5003H19.5V8.00034C19.5026 7.90178 19.4839 7.80381 19.4451 7.71318C19.4062 7.62254 19.3482 7.54141 19.275 7.47535L14.025 2.22534C13.9593 2.15174 13.8782 2.09345 13.7875 2.05458C13.6968 2.0157 13.5986 1.99719 13.5 2.00034H6C5.60254 2.00153 5.2217 2.15995 4.94065 2.441C4.6596 2.72204 4.50119 3.10289 4.5 3.50034V21.5003C4.50119 21.8978 4.6596 22.2786 4.94065 22.5597C5.2217 22.8407 5.60254 22.9992 6 23.0003H9V21.5003ZM13.5 3.80034L17.7 8.00034H13.5V3.80034Z" fill="white"/>
</svg>
