<svg width="32" height="33" viewBox="0 0 32 33" fill="none" xmlns="http://www.w3.org/2000/svg">
<path d="M29.2998 15.9131C29.4621 15.9186 29.6222 15.9562 29.7695 16.0244C29.8801 16.0757 29.9821 16.1433 30.0723 16.2246L30.1582 16.3096C30.2402 16.3999 30.3079 16.5022 30.3594 16.6123L30.4053 16.7246C30.4456 16.8396 30.4681 16.9598 30.4727 17.0811L30.4707 17.2021C30.4631 17.3237 30.4375 17.4432 30.3945 17.5566L30.3457 17.668C30.2734 17.8131 30.1728 17.9423 30.0498 18.0479L30.0381 18.0576L27.7021 20.1836L27.4805 20.3857L27.5537 20.6768C27.6442 21.0325 27.7021 21.3963 27.7256 21.7686L27.7373 22.1436V22.7148H30.2881C30.6101 22.7149 30.9188 22.8436 31.1465 23.0713C31.3741 23.299 31.502 23.6077 31.502 23.9297C31.5019 24.2517 31.3742 24.5604 31.1465 24.7881C30.9188 25.0158 30.6101 25.1435 30.2881 25.1436H27.7373V25.7168C27.7373 26.2179 27.6767 26.7067 27.5547 27.1836L27.4795 27.4756L27.7031 27.6777L30.041 29.7988C30.2496 29.9884 30.3841 30.2441 30.4248 30.5205L30.4365 30.6396C30.4499 30.9211 30.3658 31.1976 30.1992 31.4219L30.1221 31.5146C29.9055 31.7528 29.6028 31.8948 29.2812 31.9102H29.1611C28.9223 31.8978 28.6921 31.8154 28.5 31.6729L28.4072 31.5957L26.6221 29.9756L26.2734 29.6592L25.9365 29.9873C24.822 31.0733 23.3276 31.6816 21.7715 31.6816C20.2154 31.6816 18.721 31.0732 17.6064 29.9873L17.2695 29.6592L16.9209 29.9756L15.1445 31.5889C14.9046 31.7945 14.5937 31.8986 14.2783 31.8789C14.0022 31.8617 13.7413 31.7507 13.5381 31.5664L13.4551 31.4834C13.2692 31.2788 13.159 31.0177 13.1416 30.7441L13.1406 30.626C13.1513 30.3103 13.2842 30.011 13.5117 29.792L13.5107 29.791L15.8379 27.6758L16.0596 27.4736L15.9863 27.1826C15.8952 26.8236 15.8378 26.4571 15.8154 26.0879L15.8047 25.7178V25.1436H13.2529C12.9309 25.1436 12.6213 25.0158 12.3936 24.7881C12.166 24.5604 12.0381 24.2516 12.0381 23.9297C12.0381 23.6078 12.166 23.299 12.3936 23.0713C12.6213 22.8436 12.9309 22.7148 13.2529 22.7148H15.8047V22.1436C15.8061 21.6393 15.867 21.1504 15.9863 20.6758L16.0596 20.3848L15.8379 20.1836L13.502 18.0576C13.2935 17.8681 13.158 17.6132 13.1172 17.3369L13.1055 17.2178C13.0899 16.8946 13.201 16.5798 13.416 16.3428L13.417 16.3438C13.4974 16.2553 13.5901 16.1793 13.6924 16.1182L13.7979 16.0615C13.9062 16.0105 14.0215 15.9763 14.1396 15.959L14.2578 15.9473C14.3773 15.9416 14.4968 15.9542 14.6123 15.9834L14.7266 16.0176C14.8392 16.0581 14.9454 16.1153 15.041 16.1865L15.1328 16.2627H15.1338L16.9189 17.8838L17.2666 18.2002L17.6035 17.8721C18.718 16.7862 20.2126 16.1779 21.7686 16.1777C23.3247 16.1777 24.82 16.7861 25.9346 17.8721L26.2715 18.2002L26.6191 17.8838L28.4072 16.2607L28.417 16.251C28.5046 16.1667 28.6047 16.0965 28.7129 16.042L28.8242 15.9922C28.938 15.9486 29.0576 15.9231 29.1787 15.915L29.2998 15.9131ZM3.46289 1.00098H11.8926C12.4758 0.987078 13.0483 1.14738 13.5371 1.45898L13.7412 1.60156C14.2707 2.00622 14.6459 2.5796 14.8057 3.22656L14.8086 3.23828L14.8125 3.25L15.249 5.18262L15.3369 5.57227H28.5371C29.2165 5.57228 29.8715 5.80859 30.3926 6.23535L30.6074 6.42969C31.1566 6.9789 31.4658 7.72427 31.4658 8.50098V12.6113C30.7821 12.2742 30.0271 12.0931 29.2568 12.0879C28.2779 12.0814 27.3209 12.3593 26.499 12.8828C25.0366 12.1362 23.4164 11.7461 21.7715 11.7461C20.1266 11.7461 18.5064 12.1363 17.0439 12.8828C16.1614 12.3192 15.1255 12.0409 14.0781 12.0898L13.8477 12.1064C12.6931 12.2134 11.612 12.7123 10.7832 13.5166L10.6211 13.6807C9.77371 14.5813 9.28492 15.7611 9.24609 16.9971C9.21292 18.0539 9.51135 19.0896 10.0918 19.9629C9.64957 20.3141 9.26808 20.7363 8.96484 21.2139L8.80176 21.4883C8.39058 22.2362 8.17578 23.0762 8.17578 23.9297C8.17581 24.7829 8.39079 25.6224 8.80176 26.3701C9.12647 26.9607 9.56688 27.4774 10.0918 27.8945C9.94821 28.1102 9.82194 28.337 9.71289 28.5723H3.46289C2.78319 28.5723 2.1276 28.3363 1.60645 27.9092L1.3916 27.7148C0.842431 27.1656 0.53418 26.4202 0.53418 25.6436V3.92969L0.548828 3.63965C0.605966 3.06513 0.831321 2.51982 1.19727 2.07324L1.3916 1.8584C1.94082 1.30918 2.68619 1.00098 3.46289 1.00098Z" fill="white" stroke="white"/>
</svg>
