<svg width="24" height="25" viewBox="0 0 24 25" fill="none" xmlns="http://www.w3.org/2000/svg">
<path fill-rule="evenodd" clip-rule="evenodd" d="M12.0262 0.5C9.01482 0.5 6.27148 1.49467 4.64815 2.30733C4.50148 2.38067 4.3646 2.45222 4.23748 2.522C3.98548 2.65933 3.77082 2.78733 3.60015 2.9L5.44682 5.61867L6.31615 5.96467C9.71348 7.67867 14.2695 7.67867 17.6675 5.96467L18.6542 5.45267L20.4001 2.9C20.0381 2.66474 19.6621 2.45168 19.2741 2.262C17.6588 1.458 14.9808 0.5 12.0268 0.5M7.73215 3.57733C7.07838 3.4543 6.43255 3.29223 5.79815 3.092C7.31882 2.41667 9.58482 1.7 12.0268 1.7C13.7182 1.7 15.3175 2.044 16.6402 2.48C15.0901 2.698 13.4362 3.068 11.8602 3.52333C10.6202 3.882 9.17082 3.84333 7.73215 3.57733ZM18.3721 6.95333L18.2082 7.036C14.4708 8.92133 9.51348 8.92133 5.77615 7.036L5.62082 6.95733C0.00548428 13.118 -4.28118 24.498 12.0262 24.498C28.3335 24.498 23.9428 12.9067 18.3721 6.95333ZM11.3335 12.5C10.9799 12.5 10.6407 12.6405 10.3907 12.8905C10.1406 13.1406 10.0002 13.4797 10.0002 13.8333C10.0002 14.187 10.1406 14.5261 10.3907 14.7761C10.6407 15.0262 10.9799 15.1667 11.3335 15.1667V12.5ZM12.6668 11.1667V10.5H11.3335V11.1667C10.6262 11.1667 9.94796 11.4476 9.44787 11.9477C8.94777 12.4478 8.66682 13.1261 8.66682 13.8333C8.66682 14.5406 8.94777 15.2189 9.44787 15.719C9.94796 16.219 10.6262 16.5 11.3335 16.5V19.1667C10.7535 19.1667 10.2595 18.7967 10.0755 18.278C10.0482 18.1931 10.0041 18.1146 9.94597 18.0471C9.8878 17.9795 9.81667 17.9244 9.73679 17.8848C9.65692 17.8452 9.56992 17.8221 9.48094 17.8167C9.39196 17.8113 9.30281 17.8239 9.21876 17.8536C9.13471 17.8833 9.05747 17.9295 8.99161 17.9896C8.92575 18.0497 8.8726 18.1223 8.83531 18.2033C8.79803 18.2843 8.77735 18.3719 8.77452 18.461C8.77169 18.5501 8.78675 18.6388 8.81882 18.722C9.00263 19.242 9.34317 19.6923 9.79353 20.0107C10.2439 20.3291 10.7819 20.5001 11.3335 20.5V21.1667H12.6668V20.5C13.3741 20.5 14.0523 20.219 14.5524 19.719C15.0525 19.2189 15.3335 18.5406 15.3335 17.8333C15.3335 17.1261 15.0525 16.4478 14.5524 15.9477C14.0523 15.4476 13.3741 15.1667 12.6668 15.1667V12.5C13.2468 12.5 13.7408 12.87 13.9248 13.3887C13.9521 13.4735 13.9962 13.552 14.0543 13.6196C14.1125 13.6871 14.1836 13.7423 14.2635 13.7819C14.3434 13.8215 14.4304 13.8446 14.5194 13.85C14.6083 13.8553 14.6975 13.8428 14.7815 13.8131C14.8656 13.7834 14.9428 13.7371 15.0087 13.6771C15.0746 13.617 15.1277 13.5443 15.165 13.4634C15.2023 13.3824 15.2229 13.2948 15.2258 13.2057C15.2286 13.1166 15.2136 13.0278 15.1815 12.9447C14.9977 12.4246 14.6571 11.9744 14.2068 11.656C13.7564 11.3375 13.2184 11.1666 12.6668 11.1667ZM12.6668 16.5V19.1667C13.0204 19.1667 13.3596 19.0262 13.6096 18.7761C13.8597 18.5261 14.0002 18.187 14.0002 17.8333C14.0002 17.4797 13.8597 17.1406 13.6096 16.8905C13.3596 16.6405 13.0204 16.5 12.6668 16.5Z" fill="white"/>
</svg>
