<svg width="28" height="27" viewBox="0 0 28 27" fill="none" xmlns="http://www.w3.org/2000/svg">
<path d="M0.666992 13.4993C0.666992 20.8633 6.63633 26.8327 14.0003 26.8327C21.3643 26.8327 27.3337 20.8633 27.3337 13.4993C27.3337 6.13535 21.3643 0.166016 14.0003 0.166016C6.63633 0.166016 0.666992 6.13535 0.666992 13.4993ZM24.667 13.4993C24.667 16.3283 23.5432 19.0414 21.5428 21.0418C19.5424 23.0422 16.8293 24.166 14.0003 24.166C11.1713 24.166 8.45824 23.0422 6.45785 21.0418C4.45747 19.0414 3.33366 16.3283 3.33366 13.4993C3.33366 10.6704 4.45747 7.95726 6.45785 5.95688C8.45824 3.95649 11.1713 2.83268 14.0003 2.83268C16.8293 2.83268 19.5424 3.95649 21.5428 5.95688C23.5432 7.95726 24.667 10.6704 24.667 13.4993ZM14.0003 21.4993C16.1221 21.4993 18.1569 20.6565 19.6572 19.1562C21.1575 17.6559 22.0003 15.6211 22.0003 13.4993C22.0003 11.3776 21.1575 9.34279 19.6572 7.84249C18.1569 6.3422 16.1221 5.49935 14.0003 5.49935C11.8786 5.49935 9.84376 6.3422 8.34347 7.84249C6.84318 9.34279 6.00033 11.3776 6.00033 13.4993C6.00033 15.6211 6.84318 17.6559 8.34347 19.1562C9.84376 20.6565 11.8786 21.4993 14.0003 21.4993Z" fill="white"/>
</svg>
